<svg xmlns="http://www.w3.org/2000/svg" width="22" height="22" viewBox="0 0 22 22">
  <g id="Group_3966" data-name="Group 3966" transform="translate(-27 -510)">
    <path id="placeholder_1_" data-name="placeholder (1)" d="M-1.923,0A4.332,4.332,0,0,0-6.25,4.327c0,3,4.331,8.121,4.331,8.121S2.4,7.178,2.4,4.327A4.332,4.332,0,0,0-1.923,0ZM-.618,5.594a1.841,1.841,0,0,1-1.305.54,1.84,1.84,0,0,1-1.305-.54,1.848,1.848,0,0,1,0-2.611,1.834,1.834,0,0,1,1.305-.541,1.834,1.834,0,0,1,1.305.541A1.848,1.848,0,0,1-.618,5.594Zm0,0" transform="translate(40.25 515)" fill="#3169b3"/>
    <g id="copyright" transform="translate(27 510)">
      <path id="Path_6756" data-name="Path 6756" d="M22.578,30.141A10.142,10.142,0,0,1,31.43,20.081a10.141,10.141,0,1,0,0,20.119A10.142,10.142,0,0,1,22.578,30.141Z" transform="translate(-19.141 -19.141)" fill="#cee1f2"/>
      <path id="Path_6757" data-name="Path 6757" d="M11,22A11,11,0,0,1,3.222,3.222,11,11,0,0,1,18.778,18.778,10.928,10.928,0,0,1,11,22ZM11,1.719A9.281,9.281,0,1,0,20.281,11,9.292,9.292,0,0,0,11,1.719Z" transform="translate(0 0)" fill="#1e1f21"/>
    </g>
  </g>
</svg>
