<svg xmlns="http://www.w3.org/2000/svg" width="135" height="135" viewBox="0 0 135 135">
  <g id="apartment" transform="translate(1 0.999)">
    <g id="Group_4102" data-name="Group 4102" transform="translate(-1 -0.999)">
      <g id="Group_4101" data-name="Group 4101" transform="translate(0 0)">
        <path id="Path_7403" data-name="Path 7403" d="M131.75,129.5h-9.139a17.515,17.515,0,0,0,.139-2.25,15.647,15.647,0,0,0-9-14.26V37.251A2.126,2.126,0,0,0,111.5,35H77.751V1.251A2.126,2.126,0,0,0,75.5-1H14.75a2.125,2.125,0,0,0-2.25,2.25V129.5H1.25a2.25,2.25,0,0,0,0,4.5h130.5a2.25,2.25,0,0,0,0-4.5Zm-22.5-17.841A16.247,16.247,0,0,0,107,111.5a15.2,15.2,0,0,0-4.939.83,2.183,2.183,0,0,0-1.811-.83,2.126,2.126,0,0,0-2.25,2.25v.689a15.757,15.757,0,0,0-2.365,2.094q-.17.18-.335.366a14.256,14.256,0,0,0-6.981-4.837,2.27,2.27,0,0,0-1.569-.563,2.661,2.661,0,0,0-.7.091A13.332,13.332,0,0,0,84.5,111.5a11.836,11.836,0,0,0-4.284.705c-.159.054-.317.109-.474.169a14.03,14.03,0,0,0-5.29-2.675l-.061-.015c-.167-.043-.335-.084-.5-.12-.137-.03-.275-.056-.413-.082l-.18-.033c-.145-.025-.29-.047-.436-.068l-.2-.026c-.134-.017-.269-.032-.4-.045-.1-.009-.2-.016-.3-.023s-.212-.016-.319-.021c-.214-.01-.428-.017-.642-.017q-.248,0-.493.009c-.107,0-.214.01-.321.016l-.129.007a13.223,13.223,0,0,0-5.808,1.739V39.5h45V111.66ZM17,3.5H73.25V35H62a2.126,2.126,0,0,0-2.25,2.25v69.975a16.3,16.3,0,0,0-3.918-2.884q-.191-.1-.385-.2l-.152-.076a15.577,15.577,0,0,0-5.179-1.481l-.077-.007q-.318-.032-.639-.05l-.17-.01c-.242-.011-.484-.019-.728-.019a15.266,15.266,0,0,0-9,2.952v-.7a2.25,2.25,0,0,0-4.5,0v4.5a2.557,2.557,0,0,0,.162.921,16.221,16.221,0,0,0-2.187,6.054A15.283,15.283,0,0,0,26,118.848v-.6A2.126,2.126,0,0,0,23.75,116a2.126,2.126,0,0,0-2.25,2.25v4.5a2.64,2.64,0,0,0,.1.733,15.692,15.692,0,0,0-2.187,6.017H17V3.5ZM33.976,120.548l.134-.01c.119-.009.237-.018.357-.024.176-.008.354-.013.533-.013a2.126,2.126,0,0,0,2.25-2.25A11.141,11.141,0,0,1,48.5,107a10.977,10.977,0,0,1,11.025,9.675,2.44,2.44,0,0,0,1.007,1.443c.031.022.063.042.1.063s.069.043.105.062a2.324,2.324,0,0,0,.26.124l.01,0a2.5,2.5,0,0,0,.322.1h0a1.3,1.3,0,0,0,.447.057,2.176,2.176,0,0,0,1.8-.956h0l.225-.225a9.058,9.058,0,0,1,7.2-3.6,8.749,8.749,0,0,1,4.4,1.221,13.665,13.665,0,0,0-4.383,9.333q-.018.345-.018.7a13.23,13.23,0,0,0,.775,4.5h-47.8A11.339,11.339,0,0,1,33.976,120.548ZM77.088,129.5a9.6,9.6,0,0,1-1.362-4.725,8.788,8.788,0,0,1,2.667-6.368,9.108,9.108,0,0,1,1.029-.824,2.26,2.26,0,0,0,1.03-.233,8.849,8.849,0,0,1,12.6,4.725,2.04,2.04,0,0,0,2.025,1.35,1.552,1.552,0,0,0,.687-.189,1.9,1.9,0,0,0,1.338-1.161,10.352,10.352,0,0,1,3.865-4.369,2.066,2.066,0,0,0,.9-.512A11.41,11.41,0,0,1,107,116a11.141,11.141,0,0,1,11.25,11.25,7.657,7.657,0,0,1-.225,2.25Z" transform="translate(1 0.999)"/>
        <path id="Path_7404" data-name="Path 7404" d="M274.317,220.867a2.126,2.126,0,0,0-2.25,2.25v4.5a2.25,2.25,0,0,0,4.5,0v-4.5A2.126,2.126,0,0,0,274.317,220.867Z" transform="translate(-200.067 -162.367)"/>
        <path id="Path_7405" data-name="Path 7405" d="M274.317,374.467a2.126,2.126,0,0,0-2.25,2.25v4.5a2.25,2.25,0,0,0,4.5,0v-4.5A2.126,2.126,0,0,0,274.317,374.467Z" transform="translate(-200.067 -275.467)"/>
        <path id="Path_7406" data-name="Path 7406" d="M274.317,272.067a2.125,2.125,0,0,0-2.25,2.25v4.5a2.25,2.25,0,0,0,4.5,0v-4.5A2.126,2.126,0,0,0,274.317,272.067Z" transform="translate(-200.067 -200.067)"/>
        <path id="Path_7407" data-name="Path 7407" d="M274.317,323.267a2.125,2.125,0,0,0-2.25,2.25v4.5a2.25,2.25,0,1,0,4.5,0v-4.5A2.126,2.126,0,0,0,274.317,323.267Z" transform="translate(-200.067 -237.767)"/>
        <path id="Path_7408" data-name="Path 7408" d="M274.317,169.667a2.126,2.126,0,0,0-2.25,2.25v4.5a2.25,2.25,0,0,0,4.5,0v-4.5A2.126,2.126,0,0,0,274.317,169.667Z" transform="translate(-200.067 -124.667)"/>
        <path id="Path_7409" data-name="Path 7409" d="M325.517,229.867a2.126,2.126,0,0,0,2.25-2.25v-4.5a2.25,2.25,0,1,0-4.5,0v4.5A2.126,2.126,0,0,0,325.517,229.867Z" transform="translate(-237.767 -162.367)" fill="#3169b3"/>
        <path id="Path_7410" data-name="Path 7410" d="M325.517,178.667a2.126,2.126,0,0,0,2.25-2.25v-4.5a2.25,2.25,0,0,0-4.5,0v4.5A2.126,2.126,0,0,0,325.517,178.667Z" transform="translate(-237.767 -124.667)" fill="#3169b3"/>
        <path id="Path_7411" data-name="Path 7411" d="M325.517,281.067a2.126,2.126,0,0,0,2.25-2.25v-4.5a2.25,2.25,0,0,0-4.5,0v4.5A2.126,2.126,0,0,0,325.517,281.067Z" transform="translate(-237.767 -200.067)" fill="#3169b3"/>
        <path id="Path_7412" data-name="Path 7412" d="M325.517,332.267a2.126,2.126,0,0,0,2.25-2.25v-4.5a2.25,2.25,0,0,0-4.5,0v4.5A2.126,2.126,0,0,0,325.517,332.267Z" transform="translate(-237.767 -237.767)" fill="#3169b3"/>
        <path id="Path_7413" data-name="Path 7413" d="M325.517,383.467a2.126,2.126,0,0,0,2.25-2.25v-4.5a2.25,2.25,0,1,0-4.5,0v4.5A2.125,2.125,0,0,0,325.517,383.467Z" transform="translate(-237.767 -275.467)" fill="#3169b3"/>
        <path id="Path_7414" data-name="Path 7414" d="M376.717,281.067a2.126,2.126,0,0,0,2.25-2.25v-4.5a2.25,2.25,0,0,0-4.5,0v4.5A2.126,2.126,0,0,0,376.717,281.067Z" transform="translate(-275.467 -200.067)"/>
        <path id="Path_7415" data-name="Path 7415" d="M376.717,229.867a2.126,2.126,0,0,0,2.25-2.25v-4.5a2.25,2.25,0,1,0-4.5,0v4.5A2.126,2.126,0,0,0,376.717,229.867Z" transform="translate(-275.467 -162.367)"/>
        <path id="Path_7416" data-name="Path 7416" d="M376.717,383.467a2.125,2.125,0,0,0,2.25-2.25v-4.5a2.25,2.25,0,1,0-4.5,0v4.5A2.126,2.126,0,0,0,376.717,383.467Z" transform="translate(-275.467 -275.467)"/>
        <path id="Path_7417" data-name="Path 7417" d="M376.717,332.267a2.126,2.126,0,0,0,2.25-2.25v-4.5a2.25,2.25,0,0,0-4.5,0v4.5A2.126,2.126,0,0,0,376.717,332.267Z" transform="translate(-275.467 -237.767)"/>
        <path id="Path_7418" data-name="Path 7418" d="M376.717,178.667a2.126,2.126,0,0,0,2.25-2.25v-4.5a2.25,2.25,0,0,0-4.5,0v4.5A2.126,2.126,0,0,0,376.717,178.667Z" transform="translate(-275.467 -124.667)"/>
        <path id="Path_7419" data-name="Path 7419" d="M86.584,298.134a2.126,2.126,0,0,0,2.25-2.25v-4.5a2.25,2.25,0,1,0-4.5,0v4.5A2.126,2.126,0,0,0,86.584,298.134Z" transform="translate(-61.834 -212.634)"/>
        <path id="Path_7420" data-name="Path 7420" d="M86.584,349.334a2.126,2.126,0,0,0,2.25-2.25v-4.5a2.25,2.25,0,0,0-4.5,0v4.5A2.126,2.126,0,0,0,86.584,349.334Z" transform="translate(-61.834 -250.334)"/>
        <path id="Path_7421" data-name="Path 7421" d="M86.584,400.534a2.126,2.126,0,0,0,2.25-2.25v-4.5a2.25,2.25,0,0,0-4.5,0v4.5A2.125,2.125,0,0,0,86.584,400.534Z" transform="translate(-61.834 -288.034)"/>
        <path id="Path_7422" data-name="Path 7422" d="M86.584,42.134a2.126,2.126,0,0,0,2.25-2.25v-4.5a2.25,2.25,0,0,0-4.5,0v4.5A2.126,2.126,0,0,0,86.584,42.134Z" transform="translate(-61.834 -24.134)"/>
        <path id="Path_7423" data-name="Path 7423" d="M86.584,93.334a2.126,2.126,0,0,0,2.25-2.25v-4.5a2.25,2.25,0,0,0-4.5,0v4.5A2.126,2.126,0,0,0,86.584,93.334Z" transform="translate(-61.834 -61.834)"/>
        <path id="Path_7424" data-name="Path 7424" d="M86.584,144.534a2.126,2.126,0,0,0,2.25-2.25v-4.5a2.25,2.25,0,1,0-4.5,0v4.5A2.126,2.126,0,0,0,86.584,144.534Z" transform="translate(-61.834 -99.534)"/>
        <path id="Path_7425" data-name="Path 7425" d="M86.584,195.734a2.126,2.126,0,0,0,2.25-2.25v-4.5a2.25,2.25,0,1,0-4.5,0v4.5A2.126,2.126,0,0,0,86.584,195.734Z" transform="translate(-61.834 -137.234)"/>
        <path id="Path_7426" data-name="Path 7426" d="M86.584,246.934a2.126,2.126,0,0,0,2.25-2.25v-4.5a2.25,2.25,0,0,0-4.5,0v4.5A2.126,2.126,0,0,0,86.584,246.934Z" transform="translate(-61.834 -174.934)"/>
        <path id="Path_7427" data-name="Path 7427" d="M137.784,93.334a2.126,2.126,0,0,0,2.25-2.25v-4.5a2.25,2.25,0,1,0-4.5,0v4.5A2.126,2.126,0,0,0,137.784,93.334Z" transform="translate(-99.534 -61.834)" fill="#3169b3"/>
        <path id="Path_7428" data-name="Path 7428" d="M137.784,42.134a2.126,2.126,0,0,0,2.25-2.25v-4.5a2.25,2.25,0,1,0-4.5,0v4.5A2.126,2.126,0,0,0,137.784,42.134Z" transform="translate(-99.534 -24.134)" fill="#3169b3"/>
        <path id="Path_7429" data-name="Path 7429" d="M137.784,195.734a2.126,2.126,0,0,0,2.25-2.25v-4.5a2.25,2.25,0,1,0-4.5,0v4.5A2.126,2.126,0,0,0,137.784,195.734Z" transform="translate(-99.534 -137.234)" fill="#3169b3"/>
        <path id="Path_7430" data-name="Path 7430" d="M137.784,144.534a2.126,2.126,0,0,0,2.25-2.25v-4.5a2.25,2.25,0,1,0-4.5,0v4.5A2.126,2.126,0,0,0,137.784,144.534Z" transform="translate(-99.534 -99.534)" fill="#3169b3"/>
        <path id="Path_7431" data-name="Path 7431" d="M137.784,246.934a2.126,2.126,0,0,0,2.25-2.25v-4.5a2.25,2.25,0,0,0-4.5,0v4.5A2.126,2.126,0,0,0,137.784,246.934Z" transform="translate(-99.534 -174.934)" fill="#3169b3"/>
        <path id="Path_7432" data-name="Path 7432" d="M137.784,298.134a2.126,2.126,0,0,0,2.25-2.25v-4.5a2.25,2.25,0,1,0-4.5,0v4.5A2.126,2.126,0,0,0,137.784,298.134Z" transform="translate(-99.534 -212.634)" fill="#3169b3"/>
        <path id="Path_7433" data-name="Path 7433" d="M137.784,349.334a2.126,2.126,0,0,0,2.25-2.25v-4.5a2.25,2.25,0,0,0-4.5,0v4.5A2.126,2.126,0,0,0,137.784,349.334Z" transform="translate(-99.534 -250.334)" fill="#3169b3"/>
        <path id="Path_7434" data-name="Path 7434" d="M188.984,144.534a2.126,2.126,0,0,0,2.25-2.25v-4.5a2.25,2.25,0,1,0-4.5,0v4.5A2.126,2.126,0,0,0,188.984,144.534Z" transform="translate(-137.234 -99.534)" fill="#3169b3"/>
        <path id="Path_7435" data-name="Path 7435" d="M188.984,93.334a2.126,2.126,0,0,0,2.25-2.25v-4.5a2.25,2.25,0,1,0-4.5,0v4.5A2.126,2.126,0,0,0,188.984,93.334Z" transform="translate(-137.234 -61.834)" fill="#3169b3"/>
        <path id="Path_7436" data-name="Path 7436" d="M188.984,42.134a2.126,2.126,0,0,0,2.25-2.25v-4.5a2.25,2.25,0,1,0-4.5,0v4.5A2.126,2.126,0,0,0,188.984,42.134Z" transform="translate(-137.234 -24.134)" fill="#3169b3"/>
        <path id="Path_7437" data-name="Path 7437" d="M188.984,349.334a2.126,2.126,0,0,0,2.25-2.25v-4.5a2.25,2.25,0,0,0-4.5,0v4.5A2.126,2.126,0,0,0,188.984,349.334Z" transform="translate(-137.234 -250.334)" fill="#3169b3"/>
        <path id="Path_7438" data-name="Path 7438" d="M188.984,298.134a2.126,2.126,0,0,0,2.25-2.25v-4.5a2.25,2.25,0,1,0-4.5,0v4.5A2.126,2.126,0,0,0,188.984,298.134Z" transform="translate(-137.234 -212.634)" fill="#3169b3"/>
        <path id="Path_7439" data-name="Path 7439" d="M188.984,246.934a2.126,2.126,0,0,0,2.25-2.25v-4.5a2.25,2.25,0,0,0-4.5,0v4.5A2.126,2.126,0,0,0,188.984,246.934Z" transform="translate(-137.234 -174.934)" fill="#3169b3"/>
        <path id="Path_7440" data-name="Path 7440" d="M188.984,195.734a2.126,2.126,0,0,0,2.25-2.25v-4.5a2.25,2.25,0,1,0-4.5,0v4.5A2.126,2.126,0,0,0,188.984,195.734Z" transform="translate(-137.234 -137.234)" fill="#3169b3"/>
        <path id="Path_7441" data-name="Path 7441" d="M240.184,93.334a2.126,2.126,0,0,0,2.25-2.25v-4.5a2.25,2.25,0,1,0-4.5,0v4.5A2.126,2.126,0,0,0,240.184,93.334Z" transform="translate(-174.934 -61.834)"/>
        <path id="Path_7442" data-name="Path 7442" d="M240.184,42.134a2.126,2.126,0,0,0,2.25-2.25v-4.5a2.25,2.25,0,1,0-4.5,0v4.5A2.126,2.126,0,0,0,240.184,42.134Z" transform="translate(-174.934 -24.134)"/>
      </g>
    </g>
  </g>
</svg>
