<?xml version="1.0" encoding="utf-8"?>
<!-- Generator: Adobe Illustrator 21.0.0, SVG Export Plug-In . SVG Version: 6.00 Build 0)  -->
<svg version="1.1" id="Layer_1" xmlns="http://www.w3.org/2000/svg" xmlns:xlink="http://www.w3.org/1999/xlink" x="0px" y="0px"
	 viewBox="0 0 100 125" style="enable-background:new 0 0 100 125;" xml:space="preserve">
<style type="text/css">
	.st0{display:none;enable-background:new    ;}
	.st1{font-family:'HelveticaNeue-Bold';}
	.st2{font-size:5px;}
</style>
<path d="M42.7,85.8C42.7,85.8,42.7,85.8,42.7,85.8c1.9,0,3.3-1.5,3.2-3.3l-1-55.8c0-1.8-1.5-3.2-3.2-3.2c0,0,0,0-0.1,0
	c-1.8,0-3.2,1.5-3.2,3.3l1,55.8C39.5,84.3,40.9,85.8,42.7,85.8z M57.3,85.8c1.8,0,3.2-1.4,3.2-3.2l1-55.8c0-1.8-1.4-3.3-3.2-3.3
	c0,0,0,0-0.1,0c-1.8,0-3.2,1.4-3.2,3.2l-1,55.8C54,84.2,55.5,85.7,57.3,85.8C57.3,85.8,57.3,85.8,57.3,85.8z M77,23.5
	c-1.8-0.1-3.3,1.3-3.4,3.1l-2,61.1c0,0,0,0.1,0,0.1c0,1.3-1,2.3-2.3,2.3H30.7c-1.3,0-2.3-1-2.3-2.3c0,0,0-0.1,0-0.1l-2-61.1
	c-0.1-1.8-1.6-3.2-3.4-3.1c-1.8,0.1-3.2,1.6-3.1,3.4l2,61.1c0,4.8,4,8.8,8.8,8.8h38.6c4.8,0,8.8-3.9,8.8-8.8l2-61.1
	C80.2,25,78.8,23.5,77,23.5z M82,13.5H18c-1.8,0-3.2,1.5-3.2,3.2S16.2,20,18,20h64c1.8,0,3.2-1.5,3.2-3.2S83.8,13.5,82,13.5z
	 M34.5,12.8c1.8,0,3.2-1.5,3.2-3.2c0-0.4,0.3-0.8,0.8-0.8h23.1c0.4,0,0.8,0.3,0.8,0.8c0,1.8,1.5,3.2,3.2,3.2c1.8,0,3.2-1.5,3.2-3.2
	c0-4-3.3-7.2-7.2-7.2H38.5c-4,0-7.2,3.3-7.2,7.2C31.2,11.4,32.7,12.8,34.5,12.8z"/>
<text transform="matrix(1 0 0 1 0 115)" class="st0 st1 st2">Created by myladkings</text>
<text transform="matrix(1 0 0 1 0 120)" class="st0 st1 st2">from the Noun Project</text>
</svg>
