<svg xmlns="http://www.w3.org/2000/svg" width="220.217" height="247.918" viewBox="0 0 220.217 247.918">
  <g id="Group_5413" data-name="Group 5413" transform="translate(-80 -91)">
    <g id="Group_4471" data-name="Group 4471" transform="translate(-707.169 -595.338)">
      <g id="Group_4105" data-name="Group 4105" transform="translate(803.839 732.755)">
        <g id="Group_4104" data-name="Group 4104" transform="translate(0 0)">
          <g id="Group_4103" data-name="Group 4103">
            <path id="Path_7446" data-name="Path 7446" d="M967.817,1317.993a85.959,85.959,0,1,1,85.958,85.958A85.959,85.959,0,0,1,967.817,1317.993Z" transform="translate(-967.817 -1232.034)" fill="#3169b3" fill-rule="evenodd"/>
          </g>
        </g>
      </g>
      <g id="Group_4447" data-name="Group 4447" transform="translate(824.649 902.82)">
        <g id="Group_4446" data-name="Group 4446" transform="translate(0 0)">
          <g id="Group_4445" data-name="Group 4445">
            <path id="Path_7554" data-name="Path 7554" d="M1221.434,3077.866l-28.118,28.5,25.561-30.811a1.726,1.726,0,1,1,2.657,2.2C1221.5,3077.793,1221.468,3077.832,1221.434,3077.866Z" transform="translate(-1193.316 -3074.927)" fill="#0f227a"/>
          </g>
        </g>
      </g>
      <g id="Group_4450" data-name="Group 4450" transform="translate(787.169 869.525)">
        <g id="Group_4449" data-name="Group 4449" transform="translate(0)">
          <g id="Group_4448" data-name="Group 4448">
            <path id="Path_7555" data-name="Path 7555" d="M840.917,2716.982l-53.748,61.875,51.1-64.081a1.725,1.725,0,0,1,2.7,2.151Z" transform="translate(-787.169 -2714.125)" fill="#0f227a"/>
          </g>
        </g>
      </g>
      <g id="Group_4453" data-name="Group 4453" transform="translate(790.323 835.122)">
        <g id="Group_4452" data-name="Group 4452" transform="translate(0)">
          <g id="Group_4451" data-name="Group 4451">
            <path id="Path_7556" data-name="Path 7556" d="M865.422,2344.261l-44.071,44.714,41.549-47.067a1.725,1.725,0,1,1,2.587,2.284C865.467,2344.214,865.442,2344.24,865.422,2344.261Z" transform="translate(-821.351 -2341.325)" fill="#0f227a"/>
          </g>
        </g>
      </g>
      <g id="Group_4456" data-name="Group 4456" transform="translate(913.952 824.213)">
        <g id="Group_4455" data-name="Group 4455">
          <g id="Group_4454" data-name="Group 4454">
            <path id="Path_7557" data-name="Path 7557" d="M2204.5,2225.965l-43.46,49.871,40.8-52.068a1.725,1.725,0,1,1,2.716,2.128C2204.541,2225.917,2204.519,2225.944,2204.5,2225.965Z" transform="translate(-2161.041 -2223.106)" fill="#0f227a"/>
          </g>
        </g>
      </g>
      <g id="Group_4459" data-name="Group 4459" transform="translate(923.631 826.843)">
        <g id="Group_4458" data-name="Group 4458" transform="translate(0 0)">
          <g id="Group_4457" data-name="Group 4457">
            <path id="Path_7558" data-name="Path 7558" d="M2286.447,2254.521l-20.522,21.7,17.884-23.921a1.728,1.728,0,0,1,2.767,2.069A1.817,1.817,0,0,1,2286.447,2254.521Z" transform="translate(-2265.925 -2251.606)" fill="#0f227a"/>
          </g>
        </g>
      </g>
      <g id="Group_4462" data-name="Group 4462" transform="translate(808.645 862.911)">
        <g id="Group_4461" data-name="Group 4461" transform="translate(0 0)">
          <g id="Group_4460" data-name="Group 4460">
            <path id="Path_7559" data-name="Path 7559" d="M1047.822,2645.368l-27.931,29.7,25.32-31.956a1.726,1.726,0,0,1,2.706,2.144C1047.887,2645.3,1047.854,2645.333,1047.822,2645.368Z" transform="translate(-1019.891 -2642.459)" fill="#0f227a"/>
          </g>
        </g>
      </g>
      <g id="Group_4465" data-name="Group 4465" transform="translate(831.65 904.932)">
        <g id="Group_4464" data-name="Group 4464" transform="translate(0 0)">
          <g id="Group_4463" data-name="Group 4463">
            <path id="Path_7560" data-name="Path 7560" d="M1279.584,3100.82l-10.4,9.745,7.757-11.958a1.737,1.737,0,1,1,2.915,1.891A1.837,1.837,0,0,1,1279.584,3100.82Z" transform="translate(-1269.182 -3097.814)" fill="#0f227a"/>
          </g>
        </g>
      </g>
      <g id="Group_4468" data-name="Group 4468" transform="translate(815.759 821.319)">
        <g id="Group_4467" data-name="Group 4467" transform="translate(0 0)">
          <g id="Group_4466" data-name="Group 4466">
            <path id="Path_7561" data-name="Path 7561" d="M1119.7,2194.755l-22.718,20.743,20.253-23.156a1.727,1.727,0,0,1,2.6,2.274A1.77,1.77,0,0,1,1119.7,2194.755Z" transform="translate(-1096.981 -2191.752)" fill="#0f227a"/>
          </g>
        </g>
      </g>
    </g>
    <g id="Group_4481" data-name="Group 4481" transform="translate(-565.347 -536.134)">
      <path id="Path_7562" data-name="Path 7562" d="M2680.375,1757.063c-.192.189.942,2.017,2.619,2.991,6.667,3.872,35.768-.34,34.536-8.851C2712.5,1750.477,2681.387,1756.059,2680.375,1757.063Z" transform="translate(-1860.041 -1045.756)" fill="#c8934a" fill-rule="evenodd"/>
      <path id="Path_7563" data-name="Path 7563" d="M2674.537,1751.225c-.191.189.942,2.017,2.62,2.991,6.666,3.872,35.767-.339,34.535-8.851C2706.664,1744.639,2675.55,1750.22,2674.537,1751.225Z" transform="translate(-1854.607 -1040.322)" fill="#c8934a" fill-rule="evenodd"/>
      <path id="Path_7564" data-name="Path 7564" d="M2787.424,1575.244c.619.264,11.377-23.728,11.3-24.5-.062-.659-19.751-9.558-19.907-9.232-3.211,6.7-6.222,18.327-8.992,24.946C2770.269,1566.707,2785.327,1574.351,2787.424,1575.244Z" transform="translate(-1939.242 -859.403)" fill="#faad52" fill-rule="evenodd"/>
      <g id="Group_4472" data-name="Group 4472" transform="translate(818.461 682.22)">
        <path id="Path_7565" data-name="Path 7565" d="M2971.954,1696.408c-.67-1.638-3.488-13.03-3.842-17.8.662-.428,1.465-.8,1.609-1.116.308-.681-.131-.828-.232-1.789,3.708-1.777,16.919-7.922,15.545-6.586a20.516,20.516,0,0,0-2.276,1.016c-1.889,1.125-9.786,3.975-12.979,5.9a3.351,3.351,0,0,1,.078,1.523c-.166.345-.883.734-1.326,1.022a61.063,61.063,0,0,0,1.609,9.2c.232.947,1.928,7.825,1.928,8.464C2972.067,1696.534,2972.074,1696.7,2971.954,1696.408Z" transform="translate(-2944.091 -1659.524)" fill="#9a612a" fill-rule="evenodd"/>
        <path id="Path_7566" data-name="Path 7566" d="M2787.4,1589.593c2.013-.62,16.637-7.661,17.592-9.605a1.5,1.5,0,0,0,.116-1.04c-.687-2.878-4.751-18.806-4.922-16.783-.2,2.386,4.544,13.286,4.43,17.3-.043,1.477-8.053,5.409-9.394,6.051-.88.421-7.27,3.476-7.765,3.882C2787.235,1589.587,2787.1,1589.686,2787.4,1589.593Z" transform="translate(-2779.116 -1561.988)" fill="#9a612a" fill-rule="evenodd"/>
        <path id="Path_7567" data-name="Path 7567" d="M2715.926,1630.98c.719.042,2.964-30.367,2.6-31.128-.308-.65-20.74-2.093-20.775-1.7-.734,8.006-2.465,22.575-2.785,30.336C2695.5,1628.578,2713.485,1630.84,2715.926,1630.98Z" transform="translate(-2694.969 -1594.909)" fill="#fcbf6e" fill-rule="evenodd"/>
        <path id="Path_7568" data-name="Path 7568" d="M2837.763,1664.1a101.316,101.316,0,0,1-8.759-13.886c.428-.567.992-1.132,1.015-1.443.052-.672-.365-.66-.748-1.443,2.591-2.652,11.878-11.943,11.126-10.386a18.66,18.66,0,0,0-1.613,1.563c-1.252,1.539-7.059,6.395-9.167,9.01.244.461.57.925.536,1.265a3.943,3.943,0,0,1-.807,1.275,55,55,0,0,0,4.208,7.3c.49.731,4.054,6.029,4.252,6.571C2837.9,1664.172,2837.955,1664.308,2837.763,1664.1Z" transform="translate(-2817.217 -1630.191)" fill="#9a612a" fill-rule="evenodd"/>
        <path id="Path_7569" data-name="Path 7569" d="M2706.007,1643.346c1.513-1.149,11.719-11.635,11.928-13.577a1.353,1.353,0,0,0-.225-.917c-1.472-2.224-9.841-14.456-9.359-12.69.568,2.083,7.957,9.846,9.1,13.282.422,1.265-5.146,7.072-6.083,8.03-.614.629-5.082,5.193-5.374,5.69C2705.862,1643.393,2705.782,1643.516,2706.007,1643.346Z" transform="translate(-2704.907 -1611.239)" fill="#9a612a" fill-rule="evenodd"/>
        <path id="Path_7570" data-name="Path 7570" d="M3021.028,1711.081c.577.033,2.373-24.3,2.084-24.907-.246-.519-16.594-1.675-16.624-1.362-.586,6.406-1.972,18.063-2.228,24.273C3004.689,1709.159,3019.077,1710.968,3021.028,1711.081Z" transform="translate(-2977.061 -1673.961)" fill="#fcbf6e" fill-rule="evenodd"/>
        <path id="Path_7571" data-name="Path 7571" d="M3112.679,1731.742a80.962,80.962,0,0,1-7.01-11.11c.343-.455.794-.905.813-1.154.042-.539-.292-.529-.6-1.156,2.072-2.121,9.5-9.555,8.9-8.31a14.919,14.919,0,0,0-1.291,1.252c-1,1.231-5.648,5.116-7.335,7.208.2.37.456.742.429,1.013a3.141,3.141,0,0,1-.645,1.02,43.814,43.814,0,0,0,3.367,5.838c.392.584,3.243,4.825,3.4,5.258C3112.787,1731.8,3112.832,1731.909,3112.679,1731.742Z" transform="translate(-3069.552 -1696.866)" fill="#9a612a" fill-rule="evenodd"/>
        <path id="Path_7572" data-name="Path 7572" d="M3007.258,1715.138c1.211-.919,9.378-9.31,9.544-10.863a1.086,1.086,0,0,0-.179-.734c-1.178-1.781-7.875-11.567-7.49-10.155.454,1.667,6.368,7.879,7.284,10.628.337,1.011-4.117,5.658-4.867,6.425-.493.5-4.067,4.154-4.3,4.553C3007.142,1715.175,3007.079,1715.275,3007.258,1715.138Z" transform="translate(-2979.691 -1681.704)" fill="#9a612a" fill-rule="evenodd"/>
      </g>
      <g id="Group_4473" data-name="Group 4473" transform="translate(681.968 810.274)">
        <path id="Path_7573" data-name="Path 7573" d="M867.54,3267.27c1.983-.069,6.193-1.56,9-.753,2.983.857,6.759-1.7,4.5,5.067-.017.049-7.077-.595-8.458-.29-.262.058-6.39.427-5.617-2.265C867.059,3268.693,867.359,3267.276,867.54,3267.27Z" transform="translate(-854.093 -3266.278)" fill="#e4ddca" fill-rule="evenodd"/>
        <path id="Path_7574" data-name="Path 7574" d="M1323.17,3288.966c1.337-.081,4.193-1.222,6.069-.683,1.995.573,4.576-1.335,2.949,3.589a48.6,48.6,0,0,0-5.688-.078c-.177.045-4.307.407-3.745-1.55C1322.825,3290,1323.049,3288.974,1323.17,3288.966Z" transform="translate(-1278.346 -3286.625)" fill="#e6e7e8" fill-rule="evenodd"/>
        <path id="Path_7575" data-name="Path 7575" d="M1257.332,3433.121c1.982-.068,6.192-1.56,9-.753,2.983.857,6.759-1.7,4.5,5.066-.017.049-1.177,2.116-7.522,2.012-.268,0-7.327-1.874-6.553-4.566C1256.85,3434.544,1257.151,3433.128,1257.332,3433.121Z" transform="translate(-1216.908 -3420.648)" fill="#e6e7e8" fill-rule="evenodd"/>
        <path id="Path_7576" data-name="Path 7576" d="M1125.085,3514.682c1.337-.08,4.193-1.222,6.069-.683,2,.574,4.158-.765,5.742,3.087.015.034.94,2.731-8.482.425-.177-.044-4.307.407-3.745-1.549C1124.739,3515.717,1124.963,3514.689,1125.085,3514.682Z" transform="translate(-1093.974 -3496.716)" fill="#efcec8" fill-rule="evenodd"/>
        <path id="Path_7577" data-name="Path 7577" d="M1311.395,3550.315c.971-.083,3.063-1.01,4.418-.622,1.44.414,3.344-1.1,2.088,2.737a33.068,33.068,0,0,0-4.13.026c-.129.037-3.135.379-2.7-1.144C1311.128,3551.122,1311.305,3550.322,1311.395,3550.315Z" transform="translate(-1267.481 -3529.985)" fill="#e6e7e8" fill-rule="evenodd"/>
        <path id="Path_7578" data-name="Path 7578" d="M1084.641,3450.874c1.068-.268,3.2-1.623,4.8-1.471,1.7.162,3.246-1.247,5.111,1.627.017.025,1.172,2.065-6.793,1.627C1087.54,3452.645,1081.8,3451.588,1084.641,3450.874Z" transform="translate(-1056.033 -3436.534)" fill="#e6e7e8" fill-rule="evenodd"/>
        <path id="Path_7579" data-name="Path 7579" d="M848.119,3426.715c1.984-.068,6.195-1.558,9-.752,2.985.857,6.759-1.706,4.5,5.066-.017.049-1.177,2.115-7.522,2.012-.268-.006-7.327-1.875-6.553-4.566C847.637,3428.138,847.938,3426.721,848.119,3426.715Z" transform="translate(-836.024 -3414.686)" fill="#e4ddca" fill-rule="evenodd"/>
        <path id="Path_7580" data-name="Path 7580" d="M1476.948,3311.865c.972-.083,3.063-1.01,4.419-.621,1.441.414,3.343-1.1,2.087,2.736a32.723,32.723,0,0,0-4.13.026c-.13.038-3.135.38-2.7-1.144C1476.681,3312.672,1476.859,3311.872,1476.948,3311.865Z" transform="translate(-1421.573 -3308.042)" fill="#efcec8" fill-rule="evenodd"/>
        <path id="Path_7581" data-name="Path 7581" d="M802.259,3360.864c1.264-.108,3.986-1.314,5.748-.808,1.874.537,4.349-1.436,2.715,3.559a43.232,43.232,0,0,0-5.372.033c-.168.049-4.078.494-3.509-1.488C801.912,3361.914,802.144,3360.873,802.259,3360.864Z" transform="translate(-793.49 -3353.448)" fill="#e6e7e8" fill-rule="evenodd"/>
        <path id="Path_7582" data-name="Path 7582" d="M1485.593,3402.252c1.337-.081,4.192-1.222,6.069-.683,1.995.574,4.158-.765,5.743,3.087.014.035.938,2.731-8.483.425-.177-.044-4.307.407-3.745-1.549C1485.247,3403.287,1485.472,3402.259,1485.593,3402.252Z" transform="translate(-1429.524 -3392.069)" fill="#e4ddca" fill-rule="evenodd"/>
        <path id="Path_7583" data-name="Path 7583" d="M1444.71,3522.625c1.336-.079,4.192-1.221,6.069-.682,2,.573,4.158-.765,5.743,3.086.014.035.94,2.73-8.482.425-.177-.043-4.307.407-3.746-1.549C1444.364,3523.661,1444.588,3522.634,1444.71,3522.625Z" transform="translate(-1391.47 -3504.11)" fill="#e6e7e8" fill-rule="evenodd"/>
        <path id="Path_7584" data-name="Path 7584" d="M1621.22,3481.243c.971-.082,3.064-1.01,4.419-.62,1.442.413,3.345-1.1,2.088,2.737a33.049,33.049,0,0,0-4.131.025c-.129.038-3.135.38-2.7-1.144A4.177,4.177,0,0,1,1621.22,3481.243Z" transform="translate(-1555.857 -3465.696)" fill="#efcec8" fill-rule="evenodd"/>
        <path id="Path_7585" data-name="Path 7585" d="M1619.134,3342.437c-.959-.174-2.954-1.294-4.34-1.034-1.473.276-3.225-1.414-2.336,2.528a33.213,33.213,0,0,1,4.11.415c.125.05,3.085.675,2.793-.886A4.14,4.14,0,0,0,1619.134,3342.437Z" transform="translate(-1547.818 -3336.08)" fill="#e6e7e8" fill-rule="evenodd"/>
        <path id="Path_7586" data-name="Path 7586" d="M1680.618,3412.286c1.067-.267,3.2-1.623,4.8-1.471,1.7.161,3.246-1.248,5.11,1.626.017.026,1.174,2.065-6.794,1.628C1683.518,3414.057,1677.781,3413,1680.618,3412.286Z" transform="translate(-1610.752 -3400.618)" fill="#e6e7e8" fill-rule="evenodd"/>
        <path id="Path_7587" data-name="Path 7587" d="M682.754,3425.5c1.069-.267,3.2-1.623,4.8-1.471,1.7.161,3.246-1.249,5.111,1.625.016.026,1.172,2.066-6.794,1.629C685.654,3427.268,679.918,3426.213,682.754,3425.5Z" transform="translate(-681.968 -3412.915)" fill="#e6e7e8" fill-rule="evenodd"/>
      </g>
      <g id="Group_4474" data-name="Group 4474" transform="translate(782.657 807.506)">
        <path id="Path_7588" data-name="Path 7588" d="M2321.987,3227.3c1.984-.07,6.195-1.56,9-.753,2.985.857,6.759-1.7,4.5,5.067-.016.05-7.077-.6-8.458-.289-.261.057-6.389.426-5.616-2.266C2321.505,3228.721,2321.806,3227.3,2321.987,3227.3Z" transform="translate(-2308.541 -3226.306)" fill="#e4ddca" fill-rule="evenodd"/>
        <path id="Path_7589" data-name="Path 7589" d="M2553.206,3240.629c1.983-.068,6.194-1.56,9-.754,2.985.858,6.758-1.7,4.5,5.067-.018.05-1.177,2.116-7.522,2.012-.268-.005-7.326-1.874-6.552-4.567C2552.725,3242.052,2553.024,3240.635,2553.206,3240.629Z" transform="translate(-2523.76 -3238.714)" fill="#e6e7e8" fill-rule="evenodd"/>
        <path id="Path_7590" data-name="Path 7590" d="M2777.611,3248.991c1.336-.079,4.192-1.221,6.068-.683,2,.574,4.576-1.334,2.949,3.59a48.657,48.657,0,0,0-5.688-.079c-.176.046-4.308.408-3.744-1.548C2777.265,3250.027,2777.488,3249,2777.611,3248.991Z" transform="translate(-2732.786 -3246.652)" fill="#e6e7e8" fill-rule="evenodd"/>
        <path id="Path_7591" data-name="Path 7591" d="M2420.953,3322.2c1.336-.081,4.192-1.222,6.069-.684,2,.574,4.157-.765,5.743,3.087.015.035.938,2.73-8.482.425-.178-.043-4.308.407-3.745-1.55C2420.607,3323.239,2420.832,3322.21,2420.953,3322.2Z" transform="translate(-2400.819 -3314.795)" fill="#efcec8" fill-rule="evenodd"/>
        <path id="Path_7592" data-name="Path 7592" d="M2415.115,3316.369c1.336-.08,4.192-1.222,6.069-.683,2,.573,4.157-.765,5.743,3.086.015.035.939,2.73-8.482.425-.177-.043-4.307.407-3.745-1.55C2414.77,3317.4,2414.994,3316.375,2415.115,3316.369Z" transform="translate(-2395.386 -3309.364)" fill="#efcec8" fill-rule="evenodd"/>
        <path id="Path_7593" data-name="Path 7593" d="M2724.991,3315.17c1.335-.081,3.022-.687,4.9-.148,2,.573,5.2-2.133,6.789,1.718.015.034-.106,4.1-9.528,1.793-.177-.044-6.628,1.41-6.065-.547A34.948,34.948,0,0,1,2724.991,3315.17Z" transform="translate(-2680.577 -3308.513)" fill="#e4ddca" fill-rule="evenodd"/>
        <path id="Path_7594" data-name="Path 7594" d="M2607.265,3357.827c.971-.082,3.064-1.011,4.419-.622,1.441.415,3.344-1.1,2.087,2.737a32.965,32.965,0,0,0-4.13.026c-.128.036-3.135.38-2.7-1.144C2607,3358.634,2607.176,3357.834,2607.265,3357.827Z" transform="translate(-2574.329 -3348.055)" fill="#e6e7e8" fill-rule="evenodd"/>
        <path id="Path_7595" data-name="Path 7595" d="M2711.763,3393.141c1.982-.069,6.193-1.56,9-.754,2.985.858,6.759-1.7,4.5,5.067-.016.05-1.177,2.117-7.522,2.013-.267-.005-7.326-1.875-6.552-4.568C2711.281,3394.565,2711.582,3393.148,2711.763,3393.141Z" transform="translate(-2671.339 -3380.668)" fill="#e6e7e8" fill-rule="evenodd"/>
        <path id="Path_7596" data-name="Path 7596" d="M2765.829,3510.343c.971-.083,3.063-1.01,4.419-.621,1.44.414,3.344-1.1,2.087,2.737a33.092,33.092,0,0,0-4.13.025c-.129.038-3.135.38-2.7-1.144C2765.563,3511.15,2765.74,3510.349,2765.829,3510.343Z" transform="translate(-2721.917 -3490.013)" fill="#e6e7e8" fill-rule="evenodd"/>
        <path id="Path_7597" data-name="Path 7597" d="M2539.075,3410.894c1.068-.267,3.2-1.623,4.8-1.471,1.7.16,3.246-1.248,5.111,1.625.018.026,1.173,2.066-6.793,1.629C2541.974,3412.664,2536.238,3411.608,2539.075,3410.894Z" transform="translate(-2510.468 -3396.554)" fill="#e6e7e8" fill-rule="evenodd"/>
        <path id="Path_7598" data-name="Path 7598" d="M2302.549,3386.733c1.983-.069,6.193-1.56,9-.753,2.986.857,6.76-1.7,4.5,5.066-.016.049-1.177,2.117-7.521,2.012-.269,0-7.327-1.875-6.554-4.567C2302.068,3388.156,2302.367,3386.739,2302.549,3386.733Z" transform="translate(-2290.454 -3374.704)" fill="#e4ddca" fill-rule="evenodd"/>
        <path id="Path_7599" data-name="Path 7599" d="M2931.381,3271.892c.97-.083,3.063-1.01,4.418-.621,1.44.414,3.344-1.1,2.087,2.737a33.168,33.168,0,0,0-4.13.025c-.13.038-3.135.381-2.7-1.144C2931.113,3272.7,2931.291,3271.9,2931.381,3271.892Z" transform="translate(-2876.006 -3268.069)" fill="#efcec8" fill-rule="evenodd"/>
        <path id="Path_7600" data-name="Path 7600" d="M2256.689,3320.89c1.263-.108,3.985-1.314,5.747-.807,1.875.538,4.35-1.436,2.716,3.56a42.967,42.967,0,0,0-5.373.032c-.168.05-4.078.494-3.509-1.488C2256.342,3321.94,2256.574,3320.9,2256.689,3320.89Z" transform="translate(-2247.92 -3313.476)" fill="#e6e7e8" fill-rule="evenodd"/>
        <path id="Path_7601" data-name="Path 7601" d="M2940.031,3362.272c1.336-.08,4.193-1.222,6.069-.684,2,.574,4.157-.764,5.743,3.087.014.035.939,2.731-8.482.425-.177-.043-4.307.406-3.745-1.549C2939.685,3363.308,2939.909,3362.28,2940.031,3362.272Z" transform="translate(-2883.963 -3352.09)" fill="#e4ddca" fill-rule="evenodd"/>
        <path id="Path_7602" data-name="Path 7602" d="M2899.156,3482.65c1.337-.08,4.192-1.222,6.069-.683,2,.573,4.157-.765,5.742,3.086.015.035.94,2.731-8.482.425-.176-.044-4.306.407-3.744-1.549C2898.811,3483.685,2899.034,3482.657,2899.156,3482.65Z" transform="translate(-2845.918 -3464.134)" fill="#e6e7e8" fill-rule="evenodd"/>
        <path id="Path_7603" data-name="Path 7603" d="M3075.65,3441.272c.972-.083,3.064-1.01,4.419-.621,1.441.414,3.343-1.1,2.087,2.737a32.993,32.993,0,0,0-4.13.025c-.129.038-3.135.38-2.7-1.144C3075.384,3442.079,3075.562,3441.28,3075.65,3441.272Z" transform="translate(-3010.288 -3425.724)" fill="#efcec8" fill-rule="evenodd"/>
        <path id="Path_7604" data-name="Path 7604" d="M3073.571,3302.475c-.958-.175-2.955-1.294-4.341-1.034-1.474.276-3.224-1.414-2.336,2.528a33.04,33.04,0,0,1,4.11.413c.124.051,3.085.674,2.793-.885A4.1,4.1,0,0,0,3073.571,3302.475Z" transform="translate(-3002.255 -3296.119)" fill="#e6e7e8" fill-rule="evenodd"/>
        <path id="Path_7605" data-name="Path 7605" d="M3135.057,3372.314c1.068-.268,3.2-1.624,4.8-1.471,1.7.161,3.247-1.248,5.112,1.625.016.025,1.171,2.066-6.795,1.628C3137.957,3374.083,3132.22,3373.028,3135.057,3372.314Z" transform="translate(-3065.191 -3360.645)" fill="#e6e7e8" fill-rule="evenodd"/>
        <path id="Path_7606" data-name="Path 7606" d="M2137.2,3385.531c1.067-.267,3.2-1.623,4.8-1.472,1.7.162,3.245-1.248,5.11,1.626.016.026,1.172,2.067-6.794,1.628C2140.1,3387.3,2134.362,3386.245,2137.2,3385.531Z" transform="translate(-2136.413 -3372.947)" fill="#e6e7e8" fill-rule="evenodd"/>
      </g>
      <path id="Path_7607" data-name="Path 7607" d="M1718.8,2201.754a45.037,45.037,0,0,1,3.556,4.612c2.344,3.444,11.863,2.524,14.969,6.894,3.931,5.53-1.639,15.673,1.6,18.924.844.845,5.789,4.388,9.428,2.692,3.224-1.5,2.525-3.864,2.2-4.981-.74-2.512-4.74-2.218-4.562-2.841C1751.368,2208.361,1747.763,2199.377,1718.8,2201.754Z" transform="translate(-965.056 -1464.827)" fill="#6b2c16" fill-rule="evenodd"/>
      <g id="Group_4475" data-name="Group 4475" transform="translate(795.924 743.42)">
        <path id="Path_7608" data-name="Path 7608" d="M2360.032,2371.1c3.488.525,12.758-.4,16.542-.563,4.681-.2,8.7-.138,12.811-.173l.2-.184-.005-.141c-2.44-2.66-4.962-5.318-8.008-8.158-1.79-1.669-15.312-15.947-14.24-16.461.644-.308,3.921,4.229,8.5,9.146,4.944,5.3,11,11.285,13.69,13.987-.012-.383-.02-.666-.018-.833.012-1.559.054-10.375-.362-17.852-.38-6.832-1.3-12.44.3-12.514.281-.012.575-.018.6-.166-.6,3.726.292,13.653.422,17.7.171,5.285.042,9.781.046,14.432,2.714-2.52,5.421-5.118,8.317-8.267,1.656-1.8,15.839-15.423,16.359-14.356.312.639-4.2,3.95-9.085,8.568-6.237,5.895-13.409,13.357-15.011,14.908l.15.164c2.676-.047,5.434-.153,8.476-.416,2.241-.193,20.308-.623,20,.424-.186.627-5.3.07-11.475.168-5.725.091-12.3.436-16.253.638,2.26,2.458,7.016,7.563,11.4,11.819,4.992,4.847,9.547,8.406,8.4,9.565-.2.2-.417.41-.333.537-2.119-3.2-9.626-10.01-12.515-12.95-3.1-3.151-5.674-6.043-8.276-8.9l-.142.007c.028,2.662.116,5.413.346,8.427.183,2.4.446,21.735-.671,21.391-.669-.2-.017-5.671-.055-12.279-.035-6.053-.325-12.994-.5-17.244-2.437,2.272-7.518,7.075-11.751,11.5-4.812,5.026-8.338,9.608-9.5,8.468-.206-.2-.413-.414-.54-.329,3.184-2.142,9.942-9.7,12.861-12.607,2.691-2.684,5.2-4.982,7.651-7.242-1.92.007-9.77.067-16.465.508-6.381.42-11.614,1.337-11.7-.16C2360.179,2371.393,2360.171,2371.119,2360.032,2371.1Z" transform="translate(-2357.819 -2334.652)" fill="#a88c8d" fill-rule="evenodd"/>
        <path id="Path_7609" data-name="Path 7609" d="M2333.716,2314.7h0c10.959-18.865,40.275-17.685,53.229-3.221,12.048,13.453,4.171,39.435-5.6,48.388-31.9,29.22-67.272-11.347-47.626-45.167Zm45.468,42.677c8.79-8.053,15.878-31.426,5.04-43.527-11.653-13.01-38.023-14.072-47.881,2.9h0C2318.67,2347.174,2350.49,2383.667,2379.184,2357.381Z" transform="translate(-2328.063 -2300.584)" fill="#c99962" fill-rule="evenodd"/>
      </g>
      <path id="Path_7610" data-name="Path 7610" d="M2269.375,2212.319c2.342-10.5,14.75-21.211,25.575-22.578,13.574-1.716,29.791,3.952,36.321,13.277,6.13-4.343-5.311-12.586-17.223-16.629a42.537,42.537,0,0,0-19.244-1.765A35.3,35.3,0,0,0,2270.8,2199c-11.361,16.035-2.614,18-1.431,13.477Z" transform="translate(-1473.478 -1448.855)" fill="#7ba957" fill-rule="evenodd"/>
      <g id="Group_4476" data-name="Group 4476" transform="translate(694.809 752.861)">
        <path id="Path_7611" data-name="Path 7611" d="M945.008,2523.587c-2.119-3.2-9.627-10.01-12.516-12.95-3.1-3.15-5.675-6.043-8.276-8.9l-.141.006c.026,2.662.116,5.414.346,8.426.182,2.4.445,21.735-.671,21.392-.67-.206-.016-5.67-.054-12.28-.034-6.052-.325-12.993-.5-17.244-2.437,2.273-7.518,7.074-11.751,11.5-4.812,5.027-8.336,9.608-9.5,8.467-.2-.2-.412-.414-.539-.328,3.184-2.143,9.942-9.7,12.859-12.607,2.693-2.684,5.2-4.982,7.653-7.242-1.919.008-9.769.066-16.466.507-6.382.421-11.614,1.337-11.7-.16-.016-.262-.023-.536-.162-.557,3.487.524,12.757-.4,16.542-.563,4.679-.2,8.7-.139,12.81-.174l.2-.183-.006-.141c-2.438-2.66-4.962-5.319-8.007-8.158-1.791-1.669-15.312-15.949-14.241-16.461.643-.307,3.922,4.23,8.5,9.146,4.944,5.3,11,11.287,13.689,13.988-.012-.383-.019-.666-.017-.834.012-1.56.055-10.376-.362-17.852-.379-6.832-1.3-12.44.3-12.514.281-.012.575-.018.6-.166-.6,3.726.29,13.653.421,17.7.17,5.285.04,9.781.045,14.433,2.715-2.521,5.423-5.119,8.318-8.269,1.656-1.8,15.839-15.424,16.359-14.356.312.64-4.2,3.951-9.085,8.568-6.235,5.894-13.407,13.355-15.012,14.908l.149.164c2.677-.045,5.435-.152,8.477-.415,2.24-.193,20.309-.624,20,.423-.187.627-5.3.07-11.477.168-5.724.09-12.3.435-16.251.639,2.259,2.458,7.016,7.563,11.4,11.819,4.992,4.847,9.548,8.405,8.4,9.565C945.139,2523.253,944.923,2523.459,945.008,2523.587Z" transform="translate(-891.78 -2465.57)" fill="#a88c8d" fill-rule="evenodd"/>
        <path id="Path_7612" data-name="Path 7612" d="M873.1,2451.07h0c10.959-18.865,40.275-17.684,53.229-3.221,12.048,13.454,4.17,39.435-5.6,48.387-31.9,29.221-67.271-11.347-47.626-45.167Zm45.468,42.676c8.792-8.053,15.878-31.425,5.04-43.526-11.653-13.011-38.024-14.072-47.881,2.9h0C858.058,2483.538,889.877,2520.032,918.571,2493.746Z" transform="translate(-867.451 -2436.95)" fill="#c99962" fill-rule="evenodd"/>
      </g>
      <path id="Path_7613" data-name="Path 7613" d="M808.753,2348.678c2.342-10.5,14.75-21.211,25.576-22.579,13.575-1.715,29.792,3.952,36.321,13.277,6.13-4.342-5.311-12.586-17.222-16.63a42.548,42.548,0,0,0-19.244-1.764,35.3,35.3,0,0,0-24.006,14.376c-11.362,16.037-2.615,18-1.431,13.478Z" transform="translate(-113.972 -1575.774)" fill="#7ba957" fill-rule="evenodd"/>
      <path id="Path_7614" data-name="Path 7614" d="M2762.822,2776.9c-4.334-.716-3.716,6.354.281,4.776C2764.819,2781,2765.845,2777.4,2762.822,2776.9Z" transform="translate(-1934.014 -2000.456)" fill="#7ba957" fill-rule="evenodd"/>
      <g id="Group_4477" data-name="Group 4477" transform="translate(769.745 714.514)">
        <path id="Path_7615" data-name="Path 7615" d="M1997.749,1886.381c-2.635,3.493-14.9,9.87-22.915,19.163-9.968,11.566-15.725,25.985-15.922,25.568-.091-.193-5.027,11.137-7.5,15.024-.711,1.114-1.415.023-1.5-.168-.2-.433,7.556-17.874,7.546-18.029.98-1.685,6.934-16.657,16.5-26.288,9.627-9.691,21.523-17.261,23.435-18.572C2000.231,1882.558,1997.984,1886.069,1997.749,1886.381Z" transform="translate(-1949.9 -1883.026)" fill="#9ecc7d" fill-rule="evenodd"/>
        <path id="Path_7616" data-name="Path 7616" d="M2002.907,2084.021c-1.325,1.758-8.029,4.719-14.734,9.4a101.189,101.189,0,0,0-17.2,15.551c-9.968,11.564-15.725,25.984-15.922,25.567a24.356,24.356,0,0,1-1.462-3.173c.98-1.684,6.934-16.657,16.5-26.288,14.1-14.2,20.3-17.455,32.4-24.107C2005.339,2080.448,2003.144,2083.709,2002.907,2084.021Z" transform="translate(-1953.337 -2067.215)" fill="#9ecc7d" fill-rule="evenodd"/>
      </g>
      <path id="Path_7617" data-name="Path 7617" d="M1770.484,2332.921c.78,6.6,9.853,33.187,9.329,32.985-.261-.1-3.547,1.636-3.775,1.427-.621-2.571-9.756-30.5-9.119-33.563a18.933,18.933,0,0,1,3.271-.789C1770.326,2332.984,1770.476,2332.849,1770.484,2332.921Z" transform="translate(-1009.813 -1587.242)" fill="#9ecc7d" fill-rule="evenodd"/>
      <path id="Path_7618" data-name="Path 7618" d="M1853.476,2701.724c-13.389-2.21-11.479,19.633.87,14.757C1859.648,2714.387,1862.818,2703.268,1853.476,2701.724Z" transform="translate(-1081.802 -1930.386)" fill="#7ba957" fill-rule="evenodd"/>
      <path id="Path_7619" data-name="Path 7619" d="M1941.392,2812.552a49.474,49.474,0,0,0,7.143,4.132,2.305,2.305,0,0,1,2.78-.727,24.755,24.755,0,0,1,9.122,5.022c1.745,1.715.48,3.227-1.012,4.744-.856.87-10.3-4-11.125-5.057a3.4,3.4,0,0,1-.383-2.026c-4.129-2.168-7.405-3.93-7.935-4.727a1.052,1.052,0,0,1,.074-1.106C1940.353,2812.424,1941.366,2812.532,1941.392,2812.552Z" transform="translate(-1170.805 -2033.661)" fill="#604344" fill-rule="evenodd"/>
      <path id="Path_7620" data-name="Path 7620" d="M2053.387,1594.88c.3-.141,9.908-.665,11.468-.305,3.058.707,9.341.269,7.151,5.306a7.865,7.865,0,0,1-3.774,3.159c-6.521,2.015-18.992,2.813-17.5-6.108C2050.828,1596.334,2052.8,1595.156,2053.387,1594.88Z" transform="translate(-1273.89 -899.915)" fill="#b17e43" fill-rule="evenodd"/>
      <path id="Path_7621" data-name="Path 7621" d="M1332.421,2101.58c.093,3.8,1.466,5.905,4.554,8.011,4.729,3.227,12.284.161,10.222-7.224C1343.521,2089.207,1332.3,2096.691,1332.421,2101.58Z" transform="translate(-605.423 -1365.801)" fill="#9a612a" fill-rule="evenodd"/>
      <path id="Path_7622" data-name="Path 7622" d="M1536.443,1467.349c-5.632,2.05-25.6,27.124-22.694,45.312-.362,14.947,7.164,14.76,19.636,26.11,5.311,7.8,13.928,20.643,19.727,26.46.844.846,5.8,4.83,9.444,3.132a5.408,5.408,0,0,0,2.954-6.066c-.74-2.511-6.782-1.92-6.981-2.537-1.621-5.06-19-27.118-6.54-34.025,10.32-5.72,12.5-20.728,9.232-27.729-2.259-4.838-8.014-16.372-6.544-21.341,2.144-7.243.065-4.176-10.262-8.351C1543,1467.743,1543.6,1464.744,1536.443,1467.349Z" transform="translate(-773.931 -780.636)" fill="#b5844b" fill-rule="evenodd"/>
      <path id="Path_7623" data-name="Path 7623" d="M868.668,939.066c-6.478-2.98-21.292.938-26.235,4.93-2.779,2.245-12.6,11.158-23.574,13.145-9.85,1.782-15.052,5.553-15.887,10.344-1.078,6.18,9.657,7.594,19.029,4.761,12.86-.407,29.625-14.545,37.452-23.051,8.1-8.8,11.147.875,10.419-8.9A11.17,11.17,0,0,0,868.668,939.066Z" transform="translate(-112.557 -288.925)" fill="#b5844b" fill-rule="evenodd"/>
      <path id="Path_7624" data-name="Path 7624" d="M1696.35,766.279c-8.37-.936-2.551-20.793-22.426-28.323-10.682-4.049-17.068-2.731-26.8,4.656-9.52,7.224-13.5,21.614-9.125,32.364a29.875,29.875,0,0,0,17.806,16.178c4.384,1.534,12.436,2.69,16.213,1.9C1690.905,789.131,1706.263,767.388,1696.35,766.279Z" transform="translate(-888.193 -100.615)" fill="#c99962" fill-rule="evenodd"/>
      <path id="Path_7625" data-name="Path 7625" d="M2085.115,1120.006c-.87.232-4.087,1.14-4.084.314a2.109,2.109,0,0,1,1.905-1.572C2084.7,1118.458,2086.845,1119.424,2085.115,1120.006Z" transform="translate(-1302.208 -457.094)" fill="#754527" fill-rule="evenodd"/>
      <path id="Path_7626" data-name="Path 7626" d="M2118.838,1369.509c-1.315,1.569-5.566,1.139-5.7-1.356-.091-1.736,2.161-2.729,3.707-2.395C2119.072,1366.239,2119.792,1368.371,2118.838,1369.509Z" transform="translate(-1332.093 -686.994)" fill="#f48d86" fill-rule="evenodd"/>
      <path id="Path_7627" data-name="Path 7627" d="M2098.128,1209.4a5.482,5.482,0,0,1-7.194,1.223,5.034,5.034,0,0,1-2.42-3.587,5.739,5.739,0,0,1,6.458-6.266C2099.764,1201.417,2100.16,1207.024,2098.128,1209.4Z" transform="translate(-1309.139 -533.445)" fill="#fff" fill-rule="evenodd"/>
      <path id="Path_7628" data-name="Path 7628" d="M2127.247,1221.712a4.279,4.279,0,0,1-6.146-5.168c.888-2.835,3.1-4.4,6.311-3.084C2131.03,1214.947,2129.477,1220.518,2127.247,1221.712Z" transform="translate(-1339.267 -544.858)" fill="#2d0000" fill-rule="evenodd"/>
      <path id="Path_7629" data-name="Path 7629" d="M2191.582,1253.538a1.723,1.723,0,0,1-2.158.505,1.662,1.662,0,0,1-1.123-1.427c-.025-1.383,1.083-2.631,2.3-2.324A1.972,1.972,0,0,1,2191.582,1253.538Z" transform="translate(-1402.052 -579.538)" fill="#fff" fill-rule="evenodd"/>
      <path id="Path_7630" data-name="Path 7630" d="M2486.944,1171.622a3.374,3.374,0,0,1-2.783-2.235,12.222,12.222,0,0,1-.709-5.195c.2-1.079,2.613-.4,3.656.3C2489.746,1166.246,2488.75,1170.655,2486.944,1171.622Z" transform="translate(-1676.706 -498.917)" fill="#3169b3" fill-rule="evenodd"/>
      <path id="Path_7631" data-name="Path 7631" d="M2253.206,1414.951a10.049,10.049,0,0,0,6.589.114,7.736,7.736,0,0,1-1.406,1.1c-4.4,1.572-9.858-2.308-7.752-3.562C2251.388,1412.373,2250.493,1413.869,2253.206,1414.951Z" transform="translate(-1459.639 -730.635)" fill="#2d0000" fill-rule="evenodd"/>
      <path id="Path_7632" data-name="Path 7632" d="M925.067,1132.922c-6.878-.892-16.211,4.33-21.349,12.329-1.737,2.7-8.064,11.643-19.742,13.159-9.447,1.226-16.028,6.4-14.89,10.929,1.467,5.835,14.132,7.845,26.3,3.606,11.179-3.9,21.665-13.24,25.24-23.014,1.31-3.583,5.542-9.676,8.058-12.689.636-.762-2.244-2.435-3-3.879A2.909,2.909,0,0,0,925.067,1132.922Z" transform="translate(-174.044 -470.245)" fill="#b17e43" fill-rule="evenodd"/>
      <path id="Path_7633" data-name="Path 7633" d="M1036.771,1228.78c-5.9.767-10.231,1.911-11.1,4.077-1.878,4.694,6.61,4.791,14.215,2.14,3.418-1.191,8.889-4.638,13.4-10.107,4.052-4.918,7.205-11.769,9.443-14.985,2.809-4.037,5.863-4.946,4.512-6.312-2.292-2.324-10.588,4.5-14.822,12.562C1047.879,1224.8,1039.906,1228.374,1036.771,1228.78Z" transform="translate(-319.664 -535.687)" fill="#f48d86" fill-rule="evenodd"/>
      <path id="Path_7634" data-name="Path 7634" d="M1815.479,763.585h0c-1.116.363-.377-.96.643-1.485a1.355,1.355,0,0,1,1.586.082c.318.424-1.691,1.19-2.229,1.4Zm14,1.263c-.626-.16.108-.557.736-.5a.748.748,0,0,1,.713.506c.022.291-1.136.054-1.45,0Zm3.135.263c-.546-.344.274-.5.854-.251a.745.745,0,0,1,.524.7c-.068.283-1.1-.3-1.378-.449Zm2.644.71h0c-.546-.344.273-.5.856-.252a.748.748,0,0,1,.524.7c-.067.284-1.1-.3-1.38-.447Zm2.37,1.124c.323.308,1.5,1.467,1.7,1.108a1.042,1.042,0,0,0-.453-1.136c-.695-.545-1.859-.638-1.246.027Zm2.25.173c-.613-.665.55-.572,1.247-.028a1.043,1.043,0,0,1,.451,1.137c-.194.358-1.375-.8-1.7-1.109Zm-2.895-1.862h0c.382.232,1.783,1.112,1.9.719a1.044,1.044,0,0,0-.685-1.013c-.8-.383-1.952-.225-1.212.294Zm-3-1.117h0c.406.186,1.9.9,1.966.5a1.044,1.044,0,0,0-.8-.928c-.834-.29-1.964,0-1.17.43Zm-3.133-.434h0c-.855-.292.212-.766,1.083-.619a1.044,1.044,0,0,1,.939.783c0,.409-1.591-.048-2.022-.164Zm-14.485,4.026h0c-.533.364-.348-.448.11-.884a.744.744,0,0,1,.85-.2c.234.174-.708.889-.96,1.085Zm1.806,0h0c-.6.246-.249-.511.288-.843a.747.747,0,0,1,.874-.023c.191.219-.877.725-1.162.866Zm2.666-1.669c-.643.053-.08-.562.533-.714a.746.746,0,0,1,.839.245c.116.268-1.056.423-1.372.469Zm2.542-1.019c.316-.046,1.488-.2,1.372-.47a.746.746,0,0,0-.839-.245c-.613.152-1.176.766-.533.714Zm2.571-.521h0c-.888-.165.1-.789.981-.77a1.046,1.046,0,0,1,1.044.637c.058.4-1.582.185-2.024.133Zm1.9-1.211c-.889-.165.1-.789.981-.77a1.045,1.045,0,0,1,1.044.637c.059.4-1.582.184-2.025.133Zm-3.433.245h0c.444-.043,2.094-.179,1.949-.562a1.042,1.042,0,0,0-1.156-.4c-.866.17-1.7.991-.794.961Zm-3.068.905h0c-.894.131-.163-.778.678-1.046a1.046,1.046,0,0,1,1.194.265c.187.363-1.436.687-1.872.781Zm-2.768,1.531h0c.416-.165,1.961-.754,1.717-1.081a1.044,1.044,0,0,0-1.221-.063c-.785.4-1.354,1.423-.5,1.144Zm11.038-3.889c-.812-.209.139-.724.957-.65a.966.966,0,0,1,.925.657c.029.376-1.475.07-1.882-.007Zm4.071.343h0c.364.2,1.7.95,1.791.581a.97.97,0,0,0-.681-.908c-.755-.319-1.819-.12-1.108.327Zm3.433.921c-.709-.447.355-.646,1.11-.326a.968.968,0,0,1,.681.908c-.088.369-1.427-.384-1.791-.581Zm3.077,1.459h0c-.8-.863.715-.743,1.619-.036a1.357,1.357,0,0,1,.588,1.475c-.253.467-1.787-1.039-2.207-1.439Zm2.921.225c.42.4,1.954,1.906,2.207,1.44a1.357,1.357,0,0,0-.587-1.476c-.9-.707-2.414-.826-1.62.036Zm-3.757-2.419h0c.5.3,2.315,1.444,2.463.935a1.357,1.357,0,0,0-.89-1.316c-1.033-.5-2.535-.292-1.573.381Zm-3.895-1.45h0c-1.031-.559.438-.935,1.52-.558a1.358,1.358,0,0,1,1.033,1.207c-.089.523-2.027-.406-2.554-.649Zm-4.066-.563h0c-1.11-.379.274-.994,1.407-.8a1.356,1.356,0,0,1,1.22,1.016c0,.532-2.067-.061-2.625-.213Zm-18.811,5.229c-.692.473-.452-.583.142-1.148a.969.969,0,0,1,1.1-.262c.3.227-.92,1.154-1.247,1.41Zm2.345,0c-.775.32-.322-.664.375-1.094a.971.971,0,0,1,1.134-.03c.25.285-1.138.942-1.509,1.125Zm3.463-2.167h0c.41-.06,1.932-.261,1.781-.609a.97.97,0,0,0-1.09-.318c-.8.2-1.528.994-.692.926Zm3.3-1.323h0c-.835.068-.1-.73.691-.927a.97.97,0,0,1,1.09.318c.151.347-1.371.549-1.781.609Zm3.337-.677h0c-1.154-.213.127-1.024,1.274-1a1.358,1.358,0,0,1,1.355.828c.076.525-2.054.239-2.629.172Zm2.474-1.572h0c-1.155-.215.126-1.024,1.273-1a1.356,1.356,0,0,1,1.355.829c.077.524-2.053.24-2.628.171Zm-4.459.318h0c.578-.056,2.72-.233,2.532-.729a1.358,1.358,0,0,0-1.5-.519c-1.126.221-2.2,1.287-1.031,1.248Zm-3.984,1.177c.567-.122,2.674-.542,2.431-1.014a1.354,1.354,0,0,0-1.55-.345c-1.094.349-2.042,1.529-.882,1.359h0Z" transform="translate(-1051.964 -122.396)" fill="#9a612a" fill-rule="evenodd"/>
      <g id="Group_4478" data-name="Group 4478" transform="translate(791.649 693.595)">
        <path id="Path_7635" data-name="Path 7635" d="M2621.715,1724.583c2.553,13.517,11,76.265,9.881,75.923a4.833,4.833,0,0,1-1.583-.864c-1.65-5.224-11.794-66.438-10.914-72.85.256-.412.782-1.052,1.163-1.07C2620.543,1725.71,2621.688,1724.437,2621.715,1724.583Z" transform="translate(-2594.625 -1714.623)" fill="#9ecc7d" fill-rule="evenodd"/>
        <path id="Path_7636" data-name="Path 7636" d="M2756.984,2771.061c-4.334-.716-3.716,6.354.281,4.776C2758.981,2775.159,2760.007,2771.561,2756.984,2771.061Z" transform="translate(-2720.23 -2688.617)" fill="#7ba957" fill-rule="evenodd"/>
        <path id="Path_7637" data-name="Path 7637" d="M2454.09,1603.672c7.286,7.6-10.488,12.926-12.261,15.13-.059,0-.967-1.628.145-2.213,1.688-.887,8.419-4.265,9.842-5.4,2.372-1.9,4.2-4.185-.2-7.463-1.574-1.175-9.177-1.55-11.317-1.087-.023,0-.515-.935,1.285-1.391C2443.7,1600.707,2450.629,1600.061,2454.09,1603.672Z" transform="translate(-2428.183 -1599.442)" fill="#a88c8d" fill-rule="evenodd"/>
        <path id="Path_7638" data-name="Path 7638" d="M2282.184,1582.409c1.058,4.591-12.064,5.039-14.213,4.579-2.228-.477-2.092-3.345-.325-4.286C2273.812,1579.42,2281.927,1581.291,2282.184,1582.409Z" transform="translate(-2266.309 -1580.856)" fill="#604344" fill-rule="evenodd"/>
        <path id="Path_7639" data-name="Path 7639" d="M2345.316,1785.163c2.344,4.086-10.08,8.327-12.271,8.51-2.27.192-2.974-2.593-1.556-4.007C2336.436,1784.735,2344.744,1784.167,2345.316,1785.163Z" transform="translate(-2326.294 -1770.637)" fill="#604344" fill-rule="evenodd"/>
        <path id="Path_7640" data-name="Path 7640" d="M2615.946,1837.584a5.934,5.934,0,0,0,.268,1.779c.92.153,3.4-.075,4.452-1-.177-1.09-.24-1.64-.24-1.64A30.042,30.042,0,0,0,2615.946,1837.584Z" transform="translate(-2591.741 -1819.006)" fill="#854013" fill-rule="evenodd"/>
      </g>
      <path id="Path_7641" data-name="Path 7641" d="M2680.495,1759.275c.094,0,3.645,22.688,4,24.995.859,5.532,50.684,10.885,40.839-32.08-.438,2.558-.657,3.774-4.324,6.188-4.232,2.786-12.443,4.19-18.094,5.194C2683.727,1766.981,2680.8,1760.363,2680.495,1759.275Z" transform="translate(-1861.061 -1049.794)" fill="#ac7251" fill-rule="evenodd"/>
      <g id="Group_4479" data-name="Group 4479" transform="translate(724.699 745.575)">
        <path id="Path_7642" data-name="Path 7642" d="M1353.289,2333.28c-5.914,7.84-32.771,42.412-33.125,41.659-.176-.375-1.557-1.207-1.586-1.665,1.968-3.38,28.314-38.95,32.124-41.564a7.6,7.6,0,0,1,2.213,1.334C1353.055,2333.187,1353.353,2333.2,1353.289,2333.28Z" transform="translate(-1317.236 -2331.708)" fill="#9ecc7d" fill-rule="evenodd"/>
        <path id="Path_7643" data-name="Path 7643" d="M1302.2,2913.263c-4.333-.716-3.716,6.354.282,4.776C1304.2,2917.361,1305.223,2913.762,1302.2,2913.263Z" transform="translate(-1299.207 -2872.956)" fill="#7ba957" fill-rule="evenodd"/>
      </g>
      <path id="Path_7644" data-name="Path 7644" d="M1490.762,2062.47c.995-.474,12.138,3.535,24.661,3.65,9.388.087,19.783-3.285,25.991-5.4,1.1,11-10.721,25.861-10.728,25.984-.494,7.891,7.913,1.514-11.644,9.159-11.119,4.346-3.117,2.34-15.067-8.3C1494.782,2079.381,1491.047,2076.434,1490.762,2062.47Z" transform="translate(-752.802 -1333.902)" fill="#ffd34b" fill-rule="evenodd"/>
      <path id="Path_7645" data-name="Path 7645" d="M1790.941,2459.029c-1.531-.083-21.273,7.121-21.247,7.208.095.31,1.838,4.068,2.067,4.015,6.882-1.6,12.981-4.688,19.428-6.783C1791.6,2463.336,1791.062,2459.036,1790.941,2459.029Z" transform="translate(-1012.425 -1704.639)" fill="#faad52" fill-rule="evenodd"/>
      <path id="Path_7646" data-name="Path 7646" d="M1785.1,2453.19c-1.531-.083-21.273,7.121-21.247,7.207.095.311,1.838,4.068,2.067,4.015,6.882-1.6,12.981-4.688,19.428-6.782C1785.757,2457.5,1785.224,2453.2,1785.1,2453.19Z" transform="translate(-1006.99 -1699.205)" fill="#faad52" fill-rule="evenodd"/>
      <path id="Path_7647" data-name="Path 7647" d="M1539.578,2033.335c-.636-.394-12.416,3.84-24.892,3.824-13.1-.016-26.078-4.335-26.088-4.289-.066.317-.343,4.45-.116,4.514,3.415.956,15.109,4.936,26.171,4.318,10.97-.612,22.055-3.23,25.118-4.774C1540.154,2036.735,1539.68,2033.4,1539.578,2033.335Z" transform="translate(-750.599 -1307.983)" fill="#faad52" fill-rule="evenodd"/>
      <path id="Path_7648" data-name="Path 7648" d="M1570.651,1805.108c.677,2.211,2.045,8.393,3.9,8.508,3.934.247,2.7.071,1.173-4.495-.321-.958-3.437-7.46-4.113-6.859A4.072,4.072,0,0,0,1570.651,1805.108Z" transform="translate(-827.127 -1093.304)" fill="#589cad" fill-rule="evenodd"/>
      <path id="Path_7649" data-name="Path 7649" d="M1951.9,1662.088c-.946,2.11-7.683,22.448-9.536,22.332-1.966-.122-3.131-.566-3.054-1.142s4.426-10.938,5.469-13.109c.312-.65,4.578-10.274,6.079-11.274C1951.3,1658.6,1952.323,1661.146,1951.9,1662.088Z" transform="translate(-1170.295 -959.876)" fill="#589cad" fill-rule="evenodd"/>
      <path id="Path_7650" data-name="Path 7650" d="M1832.91,1682.565a22.367,22.367,0,0,0,27.348,11.9c3.676-1.2,10.506-5.707,10.937-9.967.65-6.415-13.569,1.563-17.168,1.046-3.841-.553-4.532-.362-5.571-4.506-.694-2.771-4.067-7.39-7.092-8.285C1833.311,1670.366,1830.986,1678.246,1832.91,1682.565Z" transform="translate(-1070.671 -972.383)" fill="#b17e43" fill-rule="evenodd"/>
      <path id="Path_7651" data-name="Path 7651" d="M1586.317,1954.512c1.224.8,24.618,2.026,26.968,4.005,1.139.959-.95,4.734-1.5,6.891-.862,3.407-2.794,11.882-6.113,11.674-6.356-.4-11.526-2.235-17.453-3.026-4.461-.6-3.843-3.136-3.515-8.383.062-.984.887-11.024,1.608-11.161C1586.409,1954.495,1586.227,1954.453,1586.317,1954.512Z" transform="translate(-840.032 -1235.021)" fill="#589cad" fill-rule="evenodd"/>
      <path id="Path_7652" data-name="Path 7652" d="M1611.008,1953.793a18.872,18.872,0,0,0,6.394,10.446c.927.687,8.934,2.862,9.941,2.282,2.123-1.222,7.957-6.43,10.829-8.475C1636.544,1955.98,1610.885,1953.188,1611.008,1953.793Z" transform="translate(-864.724 -1234.302)" fill="#61aebf" fill-rule="evenodd"/>
      <g id="Group_4480" data-name="Group 4480" transform="translate(762.121 627.134)">
        <path id="Path_7653" data-name="Path 7653" d="M1995.368,772.879c-.47.884,10.052,2.487,15.291,2.148,1.662-.107,6.193-2.41,5.658-4.336-.313-.131-4.375-.637-4.39-.627-5.575,3.829-10.454,1.969-16.615,2.828C1995.268,772.9,1995.528,772.579,1995.368,772.879Z" transform="translate(-1984.457 -760.201)" fill="#9ecc7d" fill-rule="evenodd"/>
        <path id="Path_7654" data-name="Path 7654" d="M1838.57,639.762c1.09-.115,27.759,2.038,27.938-.824.057-.9-2.5-10.327-2.962-10.451-1.12-.3-15.792-.881-18.647-.894-3.06-.013-1.832.16-3.2,2.819A66.484,66.484,0,0,0,1838.57,639.762Z" transform="translate(-1838.567 -627.593)" fill="#589cad" fill-rule="evenodd"/>
      </g>
    </g>
  </g>
</svg>
