<svg xmlns="http://www.w3.org/2000/svg" width="22.073" height="22.073" viewBox="0 0 22.073 22.073">
  <g id="phone-call_5_" data-name="phone-call (5)" transform="translate(0 -0.001)">
    <g id="Group_3962" data-name="Group 3962" transform="translate(0 0.001)">
      <g id="Group_3961" data-name="Group 3961" transform="translate(0 0)">
        <path id="Path_6776" data-name="Path 6776" d="M248.862,22.815h.043a7.827,7.827,0,0,1,7.842,7.881.862.862,0,0,0,.858.866h0a.862.862,0,0,0,.862-.858,9.551,9.551,0,0,0-9.566-9.614h-.047a.862.862,0,0,0,0,1.724Z" transform="translate(-237.308 -20.181)" fill="#3169b3"/>
        <path id="Path_6777" data-name="Path 6777" d="M22.071,17.786a3.265,3.265,0,0,0-1-2.244,8.019,8.019,0,0,0-3.175-2.109,3.553,3.553,0,0,0-3.649,1.035l0,0-1.167,1.158A17.36,17.36,0,0,1,9.4,12.788l-.113-.113A17.469,17.469,0,0,1,6.443,9L7.6,7.833l0,0A3.553,3.553,0,0,0,8.64,4.179,8.019,8.019,0,0,0,6.531,1,3.281,3.281,0,0,0,1.977.84L1.953.862,1.919.894A7,7,0,0,0,0,6.018c.018,3.545,1.966,7.6,5.211,10.844l.008.008a21.042,21.042,0,0,0,2.059,1.792.862.862,0,1,0,1.049-1.368,19.28,19.28,0,0,1-1.9-1.651l-.008-.008C3.5,12.7,1.74,9.107,1.725,6.01a5.326,5.326,0,0,1,1.4-3.881l.007-.006A1.551,1.551,0,0,1,5.29,2.2C7.522,4.516,7.36,5.609,6.374,6.621l-1.6,1.61a.862.862,0,0,0-.176.958,17.422,17.422,0,0,0,3.467,4.7l.113.113a17.421,17.421,0,0,0,4.7,3.466.862.862,0,0,0,.958-.176l1.61-1.6c1.012-.987,2.1-1.148,4.42,1.084a1.551,1.551,0,0,1,.078,2.16l-.006.007a5.311,5.311,0,0,1-3.841,1.4h-.039a11.18,11.18,0,0,1-4.255-1.007.862.862,0,1,0-.683,1.583,12.72,12.72,0,0,0,4.929,1.148H16.1a6.98,6.98,0,0,0,5.076-1.919l.032-.034.022-.025A3.265,3.265,0,0,0,22.071,17.786Z" transform="translate(0 -0.001)"/>
        <path id="Path_6778" data-name="Path 6778" d="M295.514,113.256a4.739,4.739,0,0,0-2.239-1.288.862.862,0,1,0-.46,1.662,3.016,3.016,0,0,1,1.479.846,3.081,3.081,0,0,1,.837,1.452l.013.042a.862.862,0,1,0,1.653-.489l-.012-.04A4.746,4.746,0,0,0,295.514,113.256Z" transform="translate(-279.586 -107.11)" fill="#3169b3"/>
      </g>
    </g>
  </g>
</svg>
