<svg id="planet" xmlns="http://www.w3.org/2000/svg" width="21.854" height="21.854" viewBox="0 0 21.854 21.854">
  <path id="Path_6724" data-name="Path 6724" d="M29.462,39.636a10.075,10.075,0,0,1,1.891-19.555,10.073,10.073,0,1,0-1.948,20.043C29.424,39.961,29.44,39.8,29.462,39.636Z" transform="translate(-19.146 -19.146)" fill="#cee1f2"/>
  <path id="Path_6725" data-name="Path 6725" d="M10.969,11.78H8.09a22.114,22.114,0,0,0,1.048,5.38.854.854,0,1,1-1.63.508A23.649,23.649,0,0,1,6.381,11.78H4.268a.854.854,0,1,1,0-1.707H6.381A23.539,23.539,0,0,1,7.515,4.184a.854.854,0,0,1,1.629.511,22.011,22.011,0,0,0-1.054,5.379h2.879a.854.854,0,1,1,0,1.707Zm2.348-8.156a.854.854,0,0,0-.559,1.07,21.727,21.727,0,0,1,.976,4.889.854.854,0,0,0,.85.789l.066,0a.854.854,0,0,0,.787-.916,23.4,23.4,0,0,0-1.05-5.27.854.854,0,0,0-1.07-.559Zm-3.1,16.5a9.22,9.22,0,1,1,9.905-9.78.854.854,0,1,0,1.7-.107A10.927,10.927,0,0,0,3.2,3.2a10.927,10.927,0,0,0,6.894,18.622l.065,0a.854.854,0,0,0,.063-1.7Zm11.631-3.687a.854.854,0,0,1-.854.854h-.6a4.032,4.032,0,0,1-.559,1.345l.442.442a.854.854,0,0,1-1.207,1.207l-.442-.442a4.032,4.032,0,0,1-1.345.559V21a.854.854,0,0,1-1.707,0v-.6a4.032,4.032,0,0,1-1.345-.559l-.442.442a.854.854,0,0,1-1.207-1.207l.442-.442a4.032,4.032,0,0,1-.559-1.345h-.6a.854.854,0,0,1,0-1.707h.6a4.032,4.032,0,0,1,.559-1.345l-.442-.442a.854.854,0,0,1,1.207-1.207l.442.442a4.032,4.032,0,0,1,1.345-.559v-.6a.854.854,0,1,1,1.707,0v.6a4.032,4.032,0,0,1,1.345.559l.442-.442a.854.854,0,1,1,1.207,1.207l-.442.442a4.032,4.032,0,0,1,.559,1.345H21A.854.854,0,0,1,21.854,16.433Zm-3.073,0a2.35,2.35,0,0,0-2.348-2.348,4.3,4.3,0,0,0-.862.164s-1.485,1.189-1.485,2.183a2.348,2.348,0,0,0,4.7,0Z" transform="translate(0)" fill="#1e1f21"/>
  <circle id="Ellipse_168" data-name="Ellipse 168" cx="1.256" cy="1.256" r="1.256" transform="translate(15.342 14.949)" fill="#3169b3"/>
</svg>
