<svg xmlns="http://www.w3.org/2000/svg" width="762.447" height="1042.124" viewBox="0 0 762.447 1042.124">
  <g id="Group_2708" data-name="Group 2708" transform="translate(-7252.276 -1339.276)">
    <g id="featured" transform="translate(7305.5 2382)">
      <path id="Path_4238" data-name="Path 4238" d="M232.2-977.3c-1.1,1.6-10.8,19.9-21.7,40.8-31.6,60.8-36.4,69.5-41.3,73.9-1.2,1-13.2,5-27.9,9.2-32.9,9.5-91.2,27.3-93.5,28.5-2.5,1.3-2.3,4.3,1.3,22.7,2.3,11.8,18.9,90.3,22.4,105.8.6,2.8-2.1,7.2-37,60.4C18.4-611.5,4.2-589.6,2.9-587.2L.5-582.9l5,4.5c2.8,2.5,15.6,12.7,28.5,22.7,12.9,10.1,33.6,26.1,45.9,35.7,12.4,9.6,22.9,17.8,23.3,18.1,1.3.9,2.4,8.8,7.8,56.9,5.8,51.5,8.9,76.3,9.6,76.9.2.2,10.4-.1,22.5-.8,12.2-.7,22.3-1.1,22.5-.8.2.2-30.7,62.5-68.8,138.5C58.7-155.3,27.9-92.8,28.2-92.4c.8.7,28.1-8.5,93.4-31.4,20.4-7.2,38.3-13.4,39.7-13.7,2.8-.8.6-7.2,30.2,85.5,12.7,39.5,16.3,50,17.4,50,1.4,0,35.2-65.8,88.8-172.7C327.9-234.8,352.7-284,353-284s32.5,63.8,71.5,141.7C463.6-64.4,496-.6,496.5-.6c1,.1,10-26.6,34-100.7,8.6-26.6,12-35.7,13.1-35.7,2.4,0,32.4,10,71.9,24,43.9,15.5,61.2,21.3,62.6,20.8.6-.2-29.6-61.7-67.1-136.7-37.5-74.9-67.9-136.5-67.7-136.8.3-.2,8.9.1,19.1.8,11.3.7,19,.9,19.5.3.5-.5,2.6-13.3,4.6-28.4,12.4-94.4,13.5-101.3,15.8-103.9,1.2-1.3,17.3-13.6,35.7-27.4,36.6-27.4,59.7-45.2,64.7-50l3.3-3.1-2.7-4.5c-2.8-4.9-28.6-45.8-52.7-83.5C642.6-678,636-688.7,636-689c0-.4,5.1-22.1,11.4-48.1,16-66.4,18.7-79.8,16.4-81.6-1.5-1.2-44.7-15.5-91.9-30.3l-32.5-10.2-10.3-20.7c-5.6-11.3-19.1-37.8-29.9-58.9-19-37.2-19.7-38.3-22.1-37.7-4.1,1-51.4,20-87,34.9-17.8,7.5-33,13.6-33.7,13.6s-24-9.8-51.6-21.9C250-973.7,235.4-980,234.6-980A11.8,11.8,0,0,0,232.2-977.3ZM370.5-822.5c49.1,5.8,87.2,23.7,118.8,55.9,22.9,23.2,41.9,56.6,49.8,87.4,4.3,17,6.7,48.2,5,66.7-4,44.2-22.8,83.3-56,116.6-29,29.1-60.7,45.9-100.1,53.1-15.4,2.8-50.3,3.1-65.5.4-50.6-8.6-91.1-32.6-121.1-71.7C174.7-549,162-586.7,162-630.8c0-54.7,17.8-98,56-135.9,32.9-32.8,67.7-49.5,115.6-55.7C348.2-824.3,355.1-824.3,370.5-822.5Z"/>
    </g>
    <line id="Line_20" data-name="Line 20" x1="706" y2="805" transform="translate(7280.5 1367.5)" fill="none" stroke="#000" stroke-linecap="round" stroke-width="40"/>
  </g>
</svg>
