<svg id="settings_7_" data-name="settings (7)" xmlns="http://www.w3.org/2000/svg" width="22" height="22" viewBox="0 0 22 22">
  <g id="Group_3941" data-name="Group 3941" transform="translate(0 0)">
    <path id="Path_6747" data-name="Path 6747" d="M12.027,22H9.973a1.373,1.373,0,0,1-1.362-1.21l-.219-1.72a8.663,8.663,0,0,1-1.26-.522L5.763,19.613a1.367,1.367,0,0,1-1.82-.115L2.5,18.054a1.364,1.364,0,0,1-.112-1.814l1.064-1.37a8.463,8.463,0,0,1-.522-1.259l-1.723-.219A1.376,1.376,0,0,1,0,12.027V9.973A1.373,1.373,0,0,1,1.21,8.611l1.72-.219a8.662,8.662,0,0,1,.522-1.26L2.388,5.763A1.367,1.367,0,0,1,2.5,3.943L3.948,2.5a1.365,1.365,0,0,1,1.814-.112l1.37,1.065a8.631,8.631,0,0,1,1.26-.522l.219-1.723A1.373,1.373,0,0,1,9.973,0h2.053a1.373,1.373,0,0,1,1.362,1.21l.219,1.72a8.632,8.632,0,0,1,1.26.522l1.369-1.064a1.366,1.366,0,0,1,1.82.116L19.5,3.947a1.364,1.364,0,0,1,.112,1.814l-1.064,1.37a8.463,8.463,0,0,1,.522,1.259l1.723.219A1.374,1.374,0,0,1,22,9.973v2.053a1.373,1.373,0,0,1-1.21,1.362l-1.72.219a8.663,8.663,0,0,1-.522,1.259l1.064,1.37a1.365,1.365,0,0,1-.116,1.82L18.053,19.5a1.363,1.363,0,0,1-1.814.112l-1.37-1.064a8.463,8.463,0,0,1-1.259.522l-.219,1.723A1.374,1.374,0,0,1,12.027,22ZM7.086,17.545a.465.465,0,0,1,.224.058,7.694,7.694,0,0,0,1.626.675.458.458,0,0,1,.328.382l.257,2.017a.463.463,0,0,0,.453.407h2.053a.462.462,0,0,0,.452-.4l.258-2.02a.458.458,0,0,1,.328-.382A7.694,7.694,0,0,0,14.69,17.6a.457.457,0,0,1,.5.038l1.6,1.247a.451.451,0,0,0,.6-.031L18.852,17.4a.453.453,0,0,0,.036-.6l-1.247-1.6a.458.458,0,0,1-.038-.5,7.694,7.694,0,0,0,.675-1.626.458.458,0,0,1,.382-.328l2.017-.257a.465.465,0,0,0,.407-.454V9.973a.462.462,0,0,0-.4-.452l-2.02-.258a.458.458,0,0,1-.382-.328A7.694,7.694,0,0,0,17.6,7.31a.456.456,0,0,1,.038-.5l1.247-1.6a.449.449,0,0,0-.03-.6L17.406,3.149a.451.451,0,0,0-.6-.036L15.2,4.36a.459.459,0,0,1-.505.038,7.662,7.662,0,0,0-1.626-.675.458.458,0,0,1-.328-.382L12.48,1.325a.465.465,0,0,0-.454-.408H9.973a.462.462,0,0,0-.452.4l-.258,2.02a.46.46,0,0,1-.328.383A7.66,7.66,0,0,0,7.309,4.4.459.459,0,0,1,6.8,4.359L5.2,3.112a.449.449,0,0,0-.6.03L3.148,4.6a.453.453,0,0,0-.036.605l1.247,1.6a.458.458,0,0,1,.038.5,7.646,7.646,0,0,0-.675,1.626.458.458,0,0,1-.382.328l-2.017.257a.463.463,0,0,0-.407.453v2.053a.462.462,0,0,0,.4.452l2.02.258a.458.458,0,0,1,.382.328A7.694,7.694,0,0,0,4.4,14.691a.456.456,0,0,1-.038.5L3.111,16.8a.449.449,0,0,0,.03.6l1.453,1.453a.453.453,0,0,0,.605.036L6.8,17.64a.472.472,0,0,1,.282-.1Z" transform="translate(0 0)"/>
  </g>
  <g id="Group_3942" data-name="Group 3942" transform="translate(6.417 6.417)">
    <path id="Path_6748" data-name="Path 6748" d="M11.583,16.167a4.583,4.583,0,1,1,4.583-4.583A4.589,4.589,0,0,1,11.583,16.167Zm0-8.25a3.667,3.667,0,1,0,3.667,3.667A3.67,3.67,0,0,0,11.583,7.917Z" transform="translate(-7 -7)" fill="#3169b3" stroke="#3169b3" stroke-width="1"/>
  </g>
</svg>
