<svg xmlns="http://www.w3.org/2000/svg" width="116.114" height="112.197" viewBox="0 0 116.114 112.197">
  <g id="Group_5417" data-name="Group 5417" transform="translate(-188.42 -652.803)">
    <g id="surface1" transform="translate(194.419 653.899)">
      <path id="Path_7381" data-name="Path 7381" d="M2.079,29.874a4.375,4.375,0,0,0-.069.647V34.97a4.411,4.411,0,0,0,2.862,4.116v6.546a4.115,4.115,0,0,0,3.92,4.1V87.547a4.116,4.116,0,0,0-3.92,4.1V98.17a4.46,4.46,0,0,0-2.862,4.155v4.352a1.471,1.471,0,0,0,1.47,1.47h99.136a1.47,1.47,0,0,0,1.47-1.47v-4.352a4.459,4.459,0,0,0-2.861-4.155V91.6a4.116,4.116,0,0,0-3.92-4.1V49.729a4.116,4.116,0,0,0,3.92-4.1V39.087a4.411,4.411,0,0,0,2.861-4.116V30.55a4.274,4.274,0,0,0-.069-.647,1.463,1.463,0,0,0,1.186-2.675L53.725.171a1.47,1.47,0,0,0-1.372,0L.874,27.2a1.47,1.47,0,0,0,1.205,2.675Zm5.733,11.76V39.37H24.766v2.245Zm37.749,8.105V87.547a4.116,4.116,0,0,0-3.92,4.1V97.9H27.686V91.643a4.116,4.116,0,0,0-3.92-4.1V49.729a4.115,4.115,0,0,0,3.92-4.1V39.37H41.621v6.253a4.117,4.117,0,0,0,3.921,4.106Zm-.98-8.105V39.37H61.536v2.245Zm37.75,8.105V87.547a4.117,4.117,0,0,0-3.921,4.1V97.9H64.456V91.643a4.117,4.117,0,0,0-3.92-4.1V49.729a4.116,4.116,0,0,0,3.92-4.1V39.37H78.391v6.253a4.116,4.116,0,0,0,3.92,4.106Zm-.98-8.105V39.37H98.3v2.245ZM98.3,95.652V97.9H81.331V95.652Zm-36.769,0V97.9H44.562V95.652ZM47.012,46.819H45.738a1.175,1.175,0,0,1-1.176-1.176V44.574H61.515v1.069a1.175,1.175,0,0,1-1.176,1.176Zm10.594,2.94V87.527H48.482V49.758ZM47.012,90.468H60.34a1.175,1.175,0,0,1,1.176,1.176v1.068H44.562V91.643a1.175,1.175,0,0,1,1.176-1.176ZM24.746,95.652V97.9H7.792V95.652ZM7.792,45.672v-1.1H24.746v1.069a1.176,1.176,0,0,1-1.177,1.176H8.939a1.176,1.176,0,0,1-1.147-1.186Zm13.034,4.116v37.74H11.712V49.758ZM7.792,91.673A1.176,1.176,0,0,1,8.968,90.5h14.6a1.176,1.176,0,0,1,1.177,1.177v1.068H7.792Zm93.354,10.711v2.881H4.931v-2.881a1.519,1.519,0,0,1,1.519-1.52H99.628a1.519,1.519,0,0,1,1.519,1.49ZM98.285,91.673v1.068H81.331V91.673A1.176,1.176,0,0,1,82.507,90.5H97.139a1.176,1.176,0,0,1,1.147,1.147ZM85.251,87.557v-37.8h9.124V87.527ZM98.285,45.672a1.175,1.175,0,0,1-1.176,1.176H82.517a1.175,1.175,0,0,1-1.176-1.176v-1.1H98.295ZM53.039,3.111l43.776,23.01H9.263ZM4.931,30.55a1.47,1.47,0,0,1,1.47-1.47H99.677a1.47,1.47,0,0,1,1.47,1.47V35a1.47,1.47,0,0,1-1.47,1.47H6.4A1.47,1.47,0,0,1,4.931,35Zm0,0" transform="translate(-0.089 -0.001)" fill="#1d2128"/>
    </g>
    <path id="Path_7382" data-name="Path 7382" d="M58.236-.2l57.3,30.783L-.58,31.573Z" transform="translate(189 653)" fill="#3169b3"/>
    <g id="Rectangle_237" data-name="Rectangle 237" transform="translate(191.642 753.89)" fill="#3169b3" stroke="#3169b3" stroke-width="1">
      <rect width="111.101" height="11.11" rx="1" stroke="none"/>
      <rect x="0.5" y="0.5" width="110.101" height="10.11" rx="0.5" fill="none"/>
    </g>
  </g>
</svg>
