<svg xmlns="http://www.w3.org/2000/svg" width="21.839" height="21.944" viewBox="0 0 21.839 21.944">
  <g id="Group_3967" data-name="Group 3967" transform="translate(-28 -597)">
    <g id="Group_3958" data-name="Group 3958" transform="translate(28 597)">
      <path id="whatsapp_10_" data-name="whatsapp (10)" d="M18.907,3.189A10.876,10.876,0,0,0,1.792,16.309L.25,21.944l5.764-1.512a10.862,10.862,0,0,0,5.2,1.324h0A10.878,10.878,0,0,0,18.907,3.189Zm-7.692,16.73h0a9.027,9.027,0,0,1-4.6-1.26l-.33-.2-3.421.9.913-3.335-.215-.342a9.038,9.038,0,1,1,7.656,4.235Zm4.957-6.769c-.272-.136-1.607-.793-1.857-.884s-.43-.136-.611.136-.7.884-.86,1.065-.317.2-.589.068a7.421,7.421,0,0,1-2.185-1.349A8.2,8.2,0,0,1,8.559,10.3c-.158-.272,0-.405.119-.554a7.686,7.686,0,0,0,.679-.929.5.5,0,0,0-.023-.476c-.068-.136-.611-1.473-.837-2.017s-.445-.458-.611-.466-.34-.01-.521-.01a1,1,0,0,0-.725.34A3.047,3.047,0,0,0,5.69,8.458,5.285,5.285,0,0,0,6.8,11.269a12.111,12.111,0,0,0,4.641,4.1,15.552,15.552,0,0,0,1.549.572,3.725,3.725,0,0,0,1.711.108,2.8,2.8,0,0,0,1.834-1.292,2.27,2.27,0,0,0,.158-1.292c-.068-.113-.249-.181-.521-.317Zm0,0" transform="translate(-0.25)" fill="#1e1f21" fill-rule="evenodd"/>
      <circle id="Ellipse_171" data-name="Ellipse 171" cx="7" cy="7" r="7" transform="translate(3.888 3.902)" fill="#f8faff"/>
      <g id="call_1_" data-name="call (1)" transform="translate(5.263 5.262)">
        <g id="Group_3896" data-name="Group 3896" transform="translate(0)">
          <path id="Path_6657" data-name="Path 6657" d="M10.328,7.37a6.375,6.375,0,0,1-2-.319.915.915,0,0,0-.89.188l-1.263.953A6.977,6.977,0,0,1,3.036,5.056l.925-1.23a.908.908,0,0,0,.223-.92A6.385,6.385,0,0,1,3.864.9a.9.9,0,0,0-.9-.9H.9A.9.9,0,0,0,0,.9,10.339,10.339,0,0,0,10.328,11.229a.9.9,0,0,0,.9-.9V8.271A.9.9,0,0,0,10.328,7.37Z" transform="translate(0)" fill="#3169b3"/>
        </g>
      </g>
    </g>
  </g>
</svg>
