<svg id="line-chart" xmlns="http://www.w3.org/2000/svg" width="21.84" height="21.84" viewBox="0 0 21.84 21.84">
  <path id="Path_6744" data-name="Path 6744" d="M31.261,206.323a2.024,2.024,0,0,1-1.194.388,2.3,2.3,0,0,1-2.3-2.3v-3.5a2.3,2.3,0,0,1,2.3-2.3,2.024,2.024,0,0,1,1.194.388,2.3,2.3,0,0,0-1.024,1.915v3.5A2.3,2.3,0,0,0,31.261,206.323ZM38,204.408v-7.465a2.3,2.3,0,0,1,1.024-1.915,2.024,2.024,0,0,0-1.194-.388,2.3,2.3,0,0,0-2.3,2.3v7.465a2.3,2.3,0,0,0,2.3,2.3,2.024,2.024,0,0,0,1.194-.388A2.3,2.3,0,0,1,38,204.408Zm-15.527,0v-8.1a2.3,2.3,0,0,1,1.024-1.915A2.024,2.024,0,0,0,22.3,194a2.3,2.3,0,0,0-2.3,2.3v8.1a2.3,2.3,0,0,0,2.3,2.3,2.024,2.024,0,0,0,1.194-.388A2.3,2.3,0,0,1,22.474,204.408Z" transform="translate(-19.147 -185.725)" fill="#cee1f2"/>
  <path id="Path_6745" data-name="Path 6745" d="M3.157,188.418A3.16,3.16,0,0,1,0,185.261v-8.1a3.157,3.157,0,0,1,6.313,0v8.1A3.16,3.16,0,0,1,3.157,188.418Zm0-12.711a1.452,1.452,0,0,0-1.45,1.45v8.1a1.45,1.45,0,0,0,2.9,0v-8.1A1.452,1.452,0,0,0,3.157,175.706Zm7.763,12.711a3.16,3.16,0,0,1-3.157-3.157v-3.5a3.157,3.157,0,0,1,6.313,0v3.5A3.16,3.16,0,0,1,10.92,188.418Zm0-8.1a1.452,1.452,0,0,0-1.45,1.45v3.5a1.45,1.45,0,0,0,2.9,0v-3.5A1.452,1.452,0,0,0,10.92,180.313Zm7.763,8.1a3.16,3.16,0,0,1-3.157-3.157V177.8a3.157,3.157,0,1,1,6.313,0v7.465A3.16,3.16,0,0,1,18.683,188.418Zm0-12.072a1.452,1.452,0,0,0-1.45,1.45v7.465a1.45,1.45,0,0,0,2.9,0V177.8A1.452,1.452,0,0,0,18.683,176.346Z" transform="translate(0 -166.578)" fill="#1e1f21"/>
  <path id="Path_6746" data-name="Path 6746" d="M11.727,10.406a2.973,2.973,0,0,1-1.85-.642c-.015-.012-5.461-4.958-5.461-4.958A1.277,1.277,0,0,0,2.8,4.862L1.453,6.194a.853.853,0,0,1-1.2-1.213L1.646,3.605A2.979,2.979,0,0,1,5.5,3.483c.015.012,5.461,4.958,5.461,4.958a1.282,1.282,0,0,0,1.725-.163l.016-.018,4.729-4.967A.853.853,0,1,1,18.662,4.47L13.941,9.429a2.983,2.983,0,0,1-2.214.977ZM21.84,4.863v-2.3A2.562,2.562,0,0,0,19.281,0h-2.3a.853.853,0,1,0,0,1.706h2.3a.854.854,0,0,1,.853.853v2.3a.853.853,0,0,0,1.706,0Z" transform="translate(0)" fill="#3169b3"/>
</svg>
