<?xml version="1.0" standalone="no"?>
<!DOCTYPE svg PUBLIC "-//W3C//DTD SVG 20010904//EN"
 "http://www.w3.org/TR/2001/REC-SVG-20010904/DTD/svg10.dtd">
<svg version="1.0" xmlns="http://www.w3.org/2000/svg"
 width="424.000000pt" height="568.000000pt" viewBox="0 0 424.000000 568.000000"
 preserveAspectRatio="xMidYMid meet">
<metadata>
Created by potrace 1.15, written by Peter Selinger 2001-2017
</metadata>
<g transform="translate(0.000000,568.000000) scale(0.100000,-0.100000)"
fill="#000000" stroke="none">
<path d="M1350 5669 c-210 -34 -373 -239 -358 -449 8 -105 75 -171 183 -178
48 -3 70 0 102 17 68 34 113 105 113 178 0 12 9 27 19 33 26 13 1395 14 1420
0 12 -6 21 -26 25 -57 8 -59 33 -102 82 -139 34 -26 45 -29 114 -29 64 0 82 4
112 24 59 41 82 85 86 165 8 161 -90 322 -246 401 -85 42 -131 45 -882 44
-393 -1 -740 -5 -770 -10z"/>
<path d="M136 4995 c-57 -20 -87 -45 -114 -96 -34 -64 -28 -153 14 -205 17
-21 43 -47 58 -58 l27 -21 1972 -3 c1085 -1 1987 0 2005 3 45 8 107 67 128
120 35 94 -3 202 -89 247 l-42 23 -1960 2 c-1665 2 -1966 0 -1999 -12z"/>
<path d="M450 4399 c-50 -15 -97 -54 -120 -99 -16 -31 -20 -59 -20 -132 0 -51
27 -907 60 -1903 46 -1398 63 -1822 74 -1864 48 -176 186 -319 361 -374 l70
-22 1245 0 1245 0 70 22 c175 55 313 198 361 374 11 42 28 463 74 1864 33 996
60 1852 60 1903 0 73 -4 101 -20 132 -40 79 -142 124 -228 101 -48 -14 -106
-60 -129 -105 -20 -38 -12 153 -83 -2015 -55 -1694 -59 -1785 -77 -1809 -11
-14 -32 -35 -47 -46 -27 -21 -31 -21 -1226 -21 -1195 0 -1199 0 -1226 21 -15
11 -36 32 -47 46 -18 24 -22 117 -77 1814 -70 2140 -63 1972 -83 2009 -17 33
-60 77 -92 93 -32 16 -107 22 -145 11z"/>
<path d="M1568 4401 c-58 -19 -97 -52 -122 -104 l-26 -52 30 -1690 c17 -929
32 -1709 36 -1732 11 -88 101 -163 195 -163 87 1 166 58 190 138 14 49 -45
3435 -61 3477 -18 47 -50 85 -91 105 -46 24 -113 33 -151 21z"/>
<path d="M2556 4396 c-58 -22 -88 -47 -113 -97 l-23 -44 -31 -1709 c-24 -1295
-28 -1719 -20 -1747 24 -81 103 -138 190 -139 94 0 184 75 196 163 3 23 18
803 35 1732 l30 1690 -26 53 c-43 87 -149 131 -238 98z"/>
</g>
</svg>
