<svg xmlns="http://www.w3.org/2000/svg" width="197.835" height="221.113" viewBox="0 0 197.835 221.113">
  <g id="Group_5415" data-name="Group 5415" transform="translate(-787.169 -713.143)">
    <g id="Group_4105" data-name="Group 4105" transform="translate(803.839 732.755)">
      <g id="Group_4104" data-name="Group 4104" transform="translate(0 0)">
        <g id="Group_4103" data-name="Group 4103">
          <path id="Path_7446" data-name="Path 7446" d="M967.817,1317.993a85.959,85.959,0,1,1,85.958,85.958A85.959,85.959,0,0,1,967.817,1317.993Z" transform="translate(-967.817 -1232.034)" fill="#3169b3" fill-rule="evenodd"/>
        </g>
      </g>
    </g>
    <g id="Group_4447" data-name="Group 4447" transform="translate(824.649 902.82)">
      <g id="Group_4446" data-name="Group 4446" transform="translate(0 0)">
        <g id="Group_4445" data-name="Group 4445">
          <path id="Path_7554" data-name="Path 7554" d="M1221.434,3077.866l-28.118,28.5,25.561-30.811a1.726,1.726,0,1,1,2.657,2.2C1221.5,3077.793,1221.468,3077.832,1221.434,3077.866Z" transform="translate(-1193.316 -3074.927)" fill="#0f227a"/>
        </g>
      </g>
    </g>
    <g id="Group_4450" data-name="Group 4450" transform="translate(787.169 869.525)">
      <g id="Group_4449" data-name="Group 4449" transform="translate(0)">
        <g id="Group_4448" data-name="Group 4448">
          <path id="Path_7555" data-name="Path 7555" d="M840.917,2716.982l-53.748,61.875,51.1-64.081a1.725,1.725,0,0,1,2.7,2.151Z" transform="translate(-787.169 -2714.125)" fill="#0f227a"/>
        </g>
      </g>
    </g>
    <g id="Group_4453" data-name="Group 4453" transform="translate(790.323 835.122)">
      <g id="Group_4452" data-name="Group 4452" transform="translate(0)">
        <g id="Group_4451" data-name="Group 4451">
          <path id="Path_7556" data-name="Path 7556" d="M865.422,2344.261l-44.071,44.714,41.549-47.067a1.725,1.725,0,1,1,2.587,2.284C865.467,2344.214,865.442,2344.24,865.422,2344.261Z" transform="translate(-821.351 -2341.325)" fill="#0f227a"/>
        </g>
      </g>
    </g>
    <g id="Group_4456" data-name="Group 4456" transform="translate(913.952 824.213)">
      <g id="Group_4455" data-name="Group 4455">
        <g id="Group_4454" data-name="Group 4454">
          <path id="Path_7557" data-name="Path 7557" d="M2204.5,2225.965l-43.46,49.871,40.8-52.068a1.725,1.725,0,1,1,2.716,2.128C2204.541,2225.917,2204.519,2225.944,2204.5,2225.965Z" transform="translate(-2161.041 -2223.106)" fill="#0f227a"/>
        </g>
      </g>
    </g>
    <g id="Group_4459" data-name="Group 4459" transform="translate(923.631 826.843)">
      <g id="Group_4458" data-name="Group 4458" transform="translate(0 0)">
        <g id="Group_4457" data-name="Group 4457">
          <path id="Path_7558" data-name="Path 7558" d="M2286.447,2254.521l-20.522,21.7,17.884-23.921a1.728,1.728,0,0,1,2.767,2.069A1.817,1.817,0,0,1,2286.447,2254.521Z" transform="translate(-2265.925 -2251.606)" fill="#0f227a"/>
        </g>
      </g>
    </g>
    <g id="Group_4462" data-name="Group 4462" transform="translate(808.645 862.911)">
      <g id="Group_4461" data-name="Group 4461" transform="translate(0 0)">
        <g id="Group_4460" data-name="Group 4460">
          <path id="Path_7559" data-name="Path 7559" d="M1047.822,2645.368l-27.931,29.7,25.32-31.956a1.726,1.726,0,0,1,2.706,2.144C1047.887,2645.3,1047.854,2645.333,1047.822,2645.368Z" transform="translate(-1019.891 -2642.459)" fill="#0f227a"/>
        </g>
      </g>
    </g>
    <g id="Group_4465" data-name="Group 4465" transform="translate(831.65 904.932)">
      <g id="Group_4464" data-name="Group 4464" transform="translate(0 0)">
        <g id="Group_4463" data-name="Group 4463">
          <path id="Path_7560" data-name="Path 7560" d="M1279.584,3100.82l-10.4,9.745,7.757-11.958a1.737,1.737,0,1,1,2.915,1.891A1.837,1.837,0,0,1,1279.584,3100.82Z" transform="translate(-1269.182 -3097.814)" fill="#0f227a"/>
        </g>
      </g>
    </g>
    <g id="Group_4468" data-name="Group 4468" transform="translate(815.759 821.319)">
      <g id="Group_4467" data-name="Group 4467" transform="translate(0 0)">
        <g id="Group_4466" data-name="Group 4466">
          <path id="Path_7561" data-name="Path 7561" d="M1119.7,2194.755l-22.718,20.743,20.253-23.156a1.727,1.727,0,0,1,2.6,2.274A1.77,1.77,0,0,1,1119.7,2194.755Z" transform="translate(-1096.981 -2191.752)" fill="#0f227a"/>
        </g>
      </g>
    </g>
    <g id="Group_4444" data-name="Group 4444" transform="translate(834.89 713.143)">
      <g id="Group_4112" data-name="Group 4112" transform="translate(1.265 74.91)">
        <g id="Group_4108" data-name="Group 4108" transform="translate(0.195 0.175)">
          <g id="Group_4107" data-name="Group 4107">
            <g id="Group_4106" data-name="Group 4106">
              <path id="Path_7447" data-name="Path 7447" d="M1290.769,1652.334c13.251,4.2,29.85,6.721,40.054,1.7s25.81-17.7,33.673-6.724c9.351,13.052-19.176,44.468-58.375,46.017,0,0-62.823,79.795-82.109,62.457-10.237-9.2,8.121-26.532,8.121-26.532l-2.484-42.439s-10.532-.76-10.567-11.093C1219.034,1661.549,1236.963,1635.264,1290.769,1652.334Z" transform="translate(-1219.082 -1642.961)" fill="#ea5656" fill-rule="evenodd"/>
            </g>
          </g>
        </g>
        <g id="Group_4111" data-name="Group 4111">
          <g id="Group_4110" data-name="Group 4110">
            <g id="Group_4109" data-name="Group 4109">
              <path id="Path_7448" data-name="Path 7448" d="M1228.542,1756.372a10.067,10.067,0,0,1-6.966-2.515,9.144,9.144,0,0,1-3.168-6.926c-.105-8.668,10.285-18.926,11.219-19.829l-2.469-42.183c-1.376-.162-10.544-1.607-10.577-11.269-.02-5.966,3.108-14.655,11.948-21.148,9.307-6.835,27.27-12.8,59.994-2.423h0c7.932,2.516,27.7,7.72,39.908,1.708,1.944-.958,4.079-2.19,6.34-3.495,9.408-5.43,21.116-12.19,27.578-3.168,2.535,3.538,2.409,8.6-.354,14.25-3.638,7.438-11.306,15.07-21.038,20.938a78.16,78.16,0,0,1-37.044,11.134c-.924,1.167-13,16.349-27.738,31.584-20.511,21.2-36.116,32.4-46.381,33.287Q1229.154,1756.372,1228.542,1756.372Zm28.12-111.508c-13.432,0-22.269,3.815-27.9,7.953-8.722,6.406-11.808,14.961-11.788,20.831.034,10.035,10.282,10.891,10.385,10.9l.171.013.01.171,2.49,42.53-.066.063c-.113.106-11.271,10.746-11.163,19.6a8.766,8.766,0,0,0,3.039,6.64,10.068,10.068,0,0,0,7.923,2.361c24.27-2.087,73.408-64.167,73.9-64.794l.056-.07.09,0a77.762,77.762,0,0,0,36.948-11.082c9.67-5.83,17.283-13.4,20.889-20.775,2.7-5.516,2.835-10.435.388-13.851-6.257-8.734-17.795-2.073-27.066,3.279-2.266,1.308-4.407,2.544-6.363,3.507-12.337,6.074-32.222.844-40.2-1.686h0C1275.707,1646.422,1265.246,1644.864,1256.663,1644.864Z" transform="translate(-1216.581 -1640.717)" fill="#0f227a"/>
            </g>
          </g>
        </g>
      </g>
      <g id="Group_4115" data-name="Group 4115" transform="translate(0 73.634)">
        <g id="Group_4114" data-name="Group 4114">
          <g id="Group_4113" data-name="Group 4113">
            <path id="Path_7449" data-name="Path 7449" d="M1213.608,1742.583a11.277,11.277,0,0,1-7.8-2.839,10.362,10.362,0,0,1-3.588-7.851c-.1-8.561,8.923-18.092,11.188-20.346l-2.375-40.567c-4.257-.77-10.612-4.028-10.64-12.38-.021-6.277,3.242-15.4,12.464-22.171,9.543-7.01,27.895-13.152,61.125-2.609,16.215,5.144,30.782,5.809,38.967,1.779,1.907-.939,4.024-2.161,6.266-3.455,4.773-2.755,10.183-5.878,15.223-7.156,6.123-1.551,10.839-.089,14.016,4.347,2.818,3.934,2.731,9.454-.246,15.542-3.742,7.651-11.586,15.475-21.521,21.466a79.45,79.45,0,0,1-37.064,11.288c-5.174,6.508-50.6,62.825-74.644,64.893Q1214.279,1742.584,1213.608,1742.583Zm28.127-111.512c-13.093,0-21.682,3.7-27.15,7.712-8.349,6.132-11.29,14.5-11.272,19.807.03,8.824,8.841,9.612,9.216,9.642a1.465,1.465,0,0,1,1.349,1.371l2.484,42.439a1.461,1.461,0,0,1-.455,1.147c-.109.1-10.871,10.374-10.767,18.673a7.452,7.452,0,0,0,2.62,5.712,8.747,8.747,0,0,0,6.969,2.041c23.726-2.04,72.526-63.694,73.016-64.317a1.46,1.46,0,0,1,1.09-.555c26.5-1.047,49.665-16.66,56.75-31.149,2.483-5.078,2.66-9.538.5-12.558-5.589-7.8-16.117-1.724-25.4,3.638-2.285,1.319-4.443,2.564-6.436,3.546-12.749,6.276-33.018.961-41.14-1.615h0C1260.519,1632.612,1250.188,1631.071,1241.734,1631.071Z" transform="translate(-1200.392 -1624.387)" fill="#0f227a"/>
          </g>
        </g>
      </g>
      <g id="Group_4122" data-name="Group 4122" transform="translate(6.204 115.88)">
        <g id="Group_4118" data-name="Group 4118" transform="translate(0.187 0.191)">
          <g id="Group_4117" data-name="Group 4117">
            <g id="Group_4116" data-name="Group 4116">
              <path id="Path_7450" data-name="Path 7450" d="M1295.327,2167.528s-8.871-.822-12.163,7.662a12,12,0,0,0,2.765,13.555s-7.131,18.808,3.714,23.849,37.6-28.188,24.559-39.883" transform="translate(-1282.184 -2167.506)" fill="#ea5656" fill-rule="evenodd"/>
            </g>
          </g>
        </g>
        <g id="Group_4121" data-name="Group 4121">
          <g id="Group_4120" data-name="Group 4120">
            <g id="Group_4119" data-name="Group 4119">
              <path id="Path_7451" data-name="Path 7451" d="M1289.96,2211.062a6.108,6.108,0,0,1-2.606-.547c-10.414-4.841-4.457-22.3-3.86-23.969a12.3,12.3,0,0,1-2.718-13.683c3.307-8.522,12.274-7.793,12.363-7.786l-.036.389c-.087-.007-8.764-.7-11.963,7.538a11.883,11.883,0,0,0,2.708,13.335l.107.089-.049.13c-.071.187-6.942,18.7,3.614,23.6,5.7,2.649,15.761-5.625,21.818-14.81,5.413-8.208,8.92-19.02,2.529-24.751l.261-.291c6.577,5.9,3.04,16.913-2.463,25.256C1304.225,2203.812,1295.953,2211.061,1289.96,2211.062Z" transform="translate(-1279.79 -2165.059)" fill="#0f227a"/>
            </g>
          </g>
        </g>
      </g>
      <g id="Group_4125" data-name="Group 4125" transform="translate(4.948 114.596)">
        <g id="Group_4124" data-name="Group 4124">
          <g id="Group_4123" data-name="Group 4123">
            <path id="Path_7452" data-name="Path 7452" d="M1275.128,2197.185a7.327,7.327,0,0,1-3.125-.663c-10.606-4.93-6.137-20.727-4.789-24.769a13.9,13.9,0,0,1,11.223-23.076,1.46,1.46,0,0,1-.266,2.908c-.332-.029-7.833-.576-10.671,6.736-2.855,7.358,2.132,11.729,2.346,11.911a1.47,1.47,0,0,1,.423,1.633c-.066.175-6.522,17.6,2.964,22.008,4.462,2.075,13.727-4.5,20.229-14.359,5.123-7.768,8.533-17.918,2.74-23.113a1.46,1.46,0,0,1,1.949-2.175c7.175,6.434,3.541,18.111-2.252,26.9C1290.339,2189.555,1281.766,2197.184,1275.128,2197.185Z" transform="translate(-1263.717 -2148.635)" fill="#0f227a"/>
          </g>
        </g>
      </g>
      <g id="Group_4128" data-name="Group 4128" transform="translate(87.019 107.282)">
        <g id="Group_4127" data-name="Group 4127">
          <g id="Group_4126" data-name="Group 4126">
            <path id="Path_7453" data-name="Path 7453" d="M2315.538,2074.7a1.461,1.461,0,0,1-1.194-2.3c.084-.119,8.394-11.976,10.953-16.615a1.46,1.46,0,0,1,2.558,1.411c-2.635,4.776-10.774,16.39-11.12,16.881A1.458,1.458,0,0,1,2315.538,2074.7Z" transform="translate(-2314.079 -2055.026)" fill="#0f227a"/>
          </g>
        </g>
      </g>
      <g id="Group_4131" data-name="Group 4131" transform="translate(8.652 89.774)">
        <g id="Group_4130" data-name="Group 4130">
          <g id="Group_4129" data-name="Group 4129">
            <path id="Path_7454" data-name="Path 7454" d="M1326.3,1859.774c-2.842,0-8.16-.379-11.708-3.818-2.289-2.219-3.457-5.314-3.471-9.2-.024-6.592,4.748-12.406,12.157-14.814,6.76-2.2,13.231-.7,16.486,3.814,4.466,6.194,1.654,11.668-.8,14.091a10.2,10.2,0,0,1-3.171,6.83,11.508,11.508,0,0,1-7.762,3.066c-.1,0-.27,0-.5.009C1327.213,1859.763,1326.792,1859.774,1326.3,1859.774Zm3.027-25.911a16.719,16.719,0,0,0-5.146.858c-4.692,1.525-10.163,5.59-10.139,12.026.011,3.068.88,5.461,2.583,7.112,3.283,3.183,8.966,3.028,10.834,2.975.316-.008.552-.013.693-.007a8.649,8.649,0,0,0,5.647-2.279,7.353,7.353,0,0,0,2.28-5.4,1.461,1.461,0,0,1,.512-1.076c.537-.463,5.085-4.666.8-10.6C1335.7,1835.115,1332.762,1833.863,1329.323,1833.863Z" transform="translate(-1311.117 -1830.945)" fill="#0f227a"/>
          </g>
        </g>
      </g>
      <g id="Group_4134" data-name="Group 4134" transform="translate(1.802 155.686)">
        <g id="Group_4133" data-name="Group 4133">
          <g id="Group_4132" data-name="Group 4132">
            <path id="Path_7455" data-name="Path 7455" d="M1234.77,2710.651a11.158,11.158,0,0,1-7.731-2.819,10.36,10.36,0,0,1-3.587-7.851c-.1-8.561,8.923-18.094,11.189-20.35l-.211-3.555a1.461,1.461,0,0,1,1.059-1.491,1.69,1.69,0,0,1,.235-.058,1.419,1.419,0,0,1,.336-.018,27.237,27.237,0,0,1,10.012,3.138c4.913,2.587,11.524,7.871,15.12,18.358a1.808,1.808,0,0,1,.073.293,1.46,1.46,0,0,1-.514,1.486c-7.145,5.65-13.409,9.481-18.617,11.388A21.634,21.634,0,0,1,1234.77,2710.651Zm2.679-32.993.147,2.467a1.461,1.461,0,0,1-.455,1.148c-.109.1-10.873,10.377-10.768,18.677a7.45,7.45,0,0,0,2.62,5.711c5.208,4.682,15.01,1.475,29.142-9.536C1252.885,2681.925,1241.6,2678.463,1237.448,2677.657Zm23.778,18.513h0Zm0,0h0Zm-25.339-20.178h0Z" transform="translate(-1223.451 -2674.507)" fill="#0f227a"/>
          </g>
        </g>
      </g>
      <g id="Group_4137" data-name="Group 4137" transform="translate(8.651 124.171)">
        <g id="Group_4136" data-name="Group 4136">
          <g id="Group_4135" data-name="Group 4135">
            <path id="Path_7456" data-name="Path 7456" d="M1312.575,2285.815a1.46,1.46,0,0,1-1.353-2.007c.135-.335,3.361-8.244,7.9-12.264a1.46,1.46,0,0,1,1.937,2.186c-4.017,3.56-7.094,11.095-7.125,11.171A1.461,1.461,0,0,1,1312.575,2285.815Z" transform="translate(-1311.115 -2271.178)" fill="#0f227a"/>
          </g>
        </g>
      </g>
      <g id="Group_4140" data-name="Group 4140" transform="translate(6.296 130.998)">
        <g id="Group_4139" data-name="Group 4139">
          <g id="Group_4138" data-name="Group 4138">
            <path id="Path_7457" data-name="Path 7457" d="M1290.9,2390.67a7.148,7.148,0,0,1-3.047-.642c-10.64-4.947-6.111-20.835-4.78-24.813-.208-.232-.451-.517-.709-.85a1.461,1.461,0,0,1,0-1.787,15.428,15.428,0,0,1,3.709-3.512,1.458,1.458,0,0,1,.526-.213,21.221,21.221,0,0,1,2.886-.288c4.715-.194,16.472.615,23.693,12.221a1.46,1.46,0,0,1,.021,1.507C1307.523,2382.012,1297.944,2390.67,1290.9,2390.67Zm-5.474-27.21c.191.2.31.314.313.316a1.466,1.466,0,0,1,.376,1.592c-.066.175-6.517,17.6,2.969,22.013,4.707,2.189,14.816-5.427,21.133-15.792-6.191-9.248-15.526-10.312-20.617-10.1h0a21.229,21.229,0,0,0-2.176.193A11.954,11.954,0,0,0,1285.424,2363.46Zm4.115-3.436h0Z" transform="translate(-1280.971 -2358.543)" fill="#0f227a"/>
          </g>
        </g>
      </g>
      <g id="Group_4143" data-name="Group 4143" transform="translate(24.866 95.115)">
        <g id="Group_4142" data-name="Group 4142">
          <g id="Group_4141" data-name="Group 4141">
            <path id="Path_7458" data-name="Path 7458" d="M1564.353,1929.812c-6.435,0-21.572-7.614-22.6-12.563a18.108,18.108,0,0,1-.159-6.765c-3.525-1.584-14.876-6.572-21.85-8.306a1.46,1.46,0,1,1,.7-2.834c8.564,2.129,22.843,8.7,23.446,8.978a1.46,1.46,0,0,1,.775,1.783,14.151,14.151,0,0,0-.058,6.548c.248,1.187,3.366,3.892,8.656,6.567,4.77,2.411,9.646,3.94,11.6,3.641a12.593,12.593,0,0,0,7.165-4.206,1.46,1.46,0,0,1,1.651-.469l10.392,3.815a1.46,1.46,0,0,1-1.006,2.742l-9.465-3.474a15.255,15.255,0,0,1-8.29,4.478A6.235,6.235,0,0,1,1564.353,1929.812Z" transform="translate(-1518.631 -1899.3)" fill="#0f227a"/>
          </g>
        </g>
      </g>
      <g id="Group_4146" data-name="Group 4146" transform="translate(22.666 98.437)">
        <g id="Group_4145" data-name="Group 4145">
          <g id="Group_4144" data-name="Group 4144">
            <path id="Path_7459" data-name="Path 7459" d="M1502.883,1952.9c-.031,0-.062,0-.092,0a1.46,1.46,0,0,1-1.367-1.545c0-.068.175-3.779-2.07-5.576-1.5-1.2-3.861-1.358-7.013-.465a1.46,1.46,0,1,1-.8-2.81c4.124-1.17,7.372-.831,9.653,1.009,3.429,2.764,3.155,7.806,3.142,8.02A1.461,1.461,0,0,1,1502.883,1952.9Z" transform="translate(-1490.482 -1941.822)" fill="#0f227a"/>
          </g>
        </g>
      </g>
      <g id="Group_4149" data-name="Group 4149" transform="translate(125.445 81.945)">
        <g id="Group_4148" data-name="Group 4148">
          <g id="Group_4147" data-name="Group 4147">
            <path id="Path_7460" data-name="Path 7460" d="M2815.5,1745.787a21.257,21.257,0,0,1-8.862-2.307,1.46,1.46,0,1,1,1.391-2.568c1.85,1,6.912,2.781,9.906,1.543a3.259,3.259,0,0,0,1.979-2.25,2.671,2.671,0,0,0-.266-2.276c-1.475-2.458-6.4-3.929-8.173-4.288a1.46,1.46,0,0,1,.576-2.863c.781.157,7.7,1.647,10.1,5.644a5.624,5.624,0,0,1,.563,4.618,6.217,6.217,0,0,1-3.661,4.113A9.3,9.3,0,0,1,2815.5,1745.787Z" transform="translate(-2805.874 -1730.75)" fill="#0f227a"/>
          </g>
        </g>
      </g>
      <g id="Group_4156" data-name="Group 4156" transform="translate(1.265 74.91)">
        <g id="Group_4152" data-name="Group 4152" transform="translate(0.195 0.175)">
          <g id="Group_4151" data-name="Group 4151">
            <g id="Group_4150" data-name="Group 4150">
              <path id="Path_7461" data-name="Path 7461" d="M1290.769,1652.334c13.251,4.2,29.85,6.721,40.054,1.7s25.81-17.7,33.673-6.724c9.351,13.052-19.176,44.468-58.375,46.017,0,0-62.823,79.795-82.109,62.457-10.237-9.2,8.121-26.532,8.121-26.532l-2.484-42.439s-10.532-.76-10.567-11.093C1219.034,1661.549,1236.963,1635.264,1290.769,1652.334Z" transform="translate(-1219.082 -1642.961)" fill="#ea5656" fill-rule="evenodd"/>
            </g>
          </g>
        </g>
        <g id="Group_4155" data-name="Group 4155">
          <g id="Group_4154" data-name="Group 4154">
            <g id="Group_4153" data-name="Group 4153">
              <path id="Path_7462" data-name="Path 7462" d="M1228.542,1756.372a10.067,10.067,0,0,1-6.966-2.515,9.144,9.144,0,0,1-3.168-6.926c-.105-8.668,10.285-18.926,11.219-19.829l-2.469-42.183c-1.376-.162-10.544-1.607-10.577-11.269-.02-5.966,3.108-14.655,11.948-21.148,9.307-6.835,27.27-12.8,59.994-2.423h0c7.932,2.516,27.7,7.72,39.908,1.708,1.944-.958,4.079-2.19,6.34-3.495,9.408-5.43,21.116-12.19,27.578-3.168,2.535,3.538,2.409,8.6-.354,14.25-3.638,7.438-11.306,15.07-21.038,20.938a78.16,78.16,0,0,1-37.044,11.134c-.924,1.167-13,16.349-27.738,31.584-20.511,21.2-36.116,32.4-46.381,33.287Q1229.154,1756.372,1228.542,1756.372Zm28.12-111.508c-13.432,0-22.269,3.815-27.9,7.953-8.722,6.406-11.808,14.961-11.788,20.831.034,10.035,10.282,10.891,10.385,10.9l.171.013.01.171,2.49,42.53-.066.063c-.113.106-11.271,10.746-11.163,19.6a8.766,8.766,0,0,0,3.039,6.64,10.068,10.068,0,0,0,7.923,2.361c24.27-2.087,73.408-64.167,73.9-64.794l.056-.07.09,0a77.762,77.762,0,0,0,36.948-11.082c9.67-5.83,17.283-13.4,20.889-20.775,2.7-5.516,2.835-10.435.388-13.851-6.257-8.734-17.795-2.073-27.066,3.279-2.266,1.308-4.407,2.544-6.363,3.507-12.337,6.074-32.222.844-40.2-1.686h0C1275.707,1646.422,1265.246,1644.864,1256.663,1644.864Z" transform="translate(-1216.581 -1640.717)" fill="#0f227a"/>
            </g>
          </g>
        </g>
      </g>
      <g id="Group_4159" data-name="Group 4159" transform="translate(0 73.634)">
        <g id="Group_4158" data-name="Group 4158">
          <g id="Group_4157" data-name="Group 4157">
            <path id="Path_7463" data-name="Path 7463" d="M1213.608,1742.583a11.277,11.277,0,0,1-7.8-2.839,10.362,10.362,0,0,1-3.588-7.851c-.1-8.561,8.923-18.092,11.188-20.346l-2.375-40.567c-4.257-.77-10.612-4.028-10.64-12.38-.021-6.277,3.242-15.4,12.464-22.171,9.543-7.01,27.895-13.152,61.125-2.609,16.215,5.144,30.782,5.809,38.967,1.779,1.907-.939,4.024-2.161,6.266-3.455,4.773-2.755,10.183-5.878,15.223-7.156,6.123-1.551,10.839-.089,14.016,4.347,2.818,3.934,2.731,9.454-.246,15.542-3.742,7.651-11.586,15.475-21.521,21.466a79.45,79.45,0,0,1-37.064,11.288c-5.174,6.508-50.6,62.825-74.644,64.893Q1214.279,1742.584,1213.608,1742.583Zm28.127-111.512c-13.093,0-21.682,3.7-27.15,7.712-8.349,6.132-11.29,14.5-11.272,19.807.03,8.824,8.841,9.612,9.216,9.642a1.465,1.465,0,0,1,1.349,1.371l2.484,42.439a1.461,1.461,0,0,1-.455,1.147c-.109.1-10.871,10.374-10.767,18.673a7.452,7.452,0,0,0,2.62,5.712,8.747,8.747,0,0,0,6.969,2.041c23.726-2.04,72.526-63.694,73.016-64.317a1.46,1.46,0,0,1,1.09-.555c26.5-1.047,49.665-16.66,56.75-31.149,2.483-5.078,2.66-9.538.5-12.558-5.589-7.8-16.117-1.724-25.4,3.638-2.285,1.319-4.443,2.564-6.436,3.546-12.749,6.276-33.018.961-41.14-1.615h0C1260.519,1632.612,1250.188,1631.071,1241.734,1631.071Z" transform="translate(-1200.392 -1624.387)" fill="#0f227a"/>
          </g>
        </g>
      </g>
      <g id="Group_4166" data-name="Group 4166" transform="translate(6.204 115.88)">
        <g id="Group_4162" data-name="Group 4162" transform="translate(0.187 0.191)">
          <g id="Group_4161" data-name="Group 4161">
            <g id="Group_4160" data-name="Group 4160">
              <path id="Path_7464" data-name="Path 7464" d="M1295.327,2167.528s-8.871-.822-12.163,7.662a12,12,0,0,0,2.765,13.555s-7.131,18.808,3.714,23.849,37.6-28.188,24.559-39.883" transform="translate(-1282.184 -2167.506)" fill="#ea5656" fill-rule="evenodd"/>
            </g>
          </g>
        </g>
        <g id="Group_4165" data-name="Group 4165">
          <g id="Group_4164" data-name="Group 4164">
            <g id="Group_4163" data-name="Group 4163">
              <path id="Path_7465" data-name="Path 7465" d="M1289.96,2211.062a6.108,6.108,0,0,1-2.606-.547c-10.414-4.841-4.457-22.3-3.86-23.969a12.3,12.3,0,0,1-2.718-13.683c3.307-8.522,12.274-7.793,12.363-7.786l-.036.389c-.087-.007-8.764-.7-11.963,7.538a11.883,11.883,0,0,0,2.708,13.335l.107.089-.049.13c-.071.187-6.942,18.7,3.614,23.6,5.7,2.649,15.761-5.625,21.818-14.81,5.413-8.208,8.92-19.02,2.529-24.751l.261-.291c6.577,5.9,3.04,16.913-2.463,25.256C1304.225,2203.812,1295.953,2211.061,1289.96,2211.062Z" transform="translate(-1279.79 -2165.059)" fill="#0f227a"/>
            </g>
          </g>
        </g>
      </g>
      <g id="Group_4169" data-name="Group 4169" transform="translate(4.948 114.596)">
        <g id="Group_4168" data-name="Group 4168">
          <g id="Group_4167" data-name="Group 4167">
            <path id="Path_7466" data-name="Path 7466" d="M1275.128,2197.185a7.327,7.327,0,0,1-3.125-.663c-10.606-4.93-6.137-20.727-4.789-24.769a13.9,13.9,0,0,1,11.223-23.076,1.46,1.46,0,0,1-.266,2.908c-.332-.029-7.833-.576-10.671,6.736-2.855,7.358,2.132,11.729,2.346,11.911a1.47,1.47,0,0,1,.423,1.633c-.066.175-6.522,17.6,2.964,22.008,4.462,2.075,13.727-4.5,20.229-14.359,5.123-7.768,8.533-17.918,2.74-23.113a1.46,1.46,0,0,1,1.949-2.175c7.175,6.434,3.541,18.111-2.252,26.9C1290.339,2189.555,1281.766,2197.184,1275.128,2197.185Z" transform="translate(-1263.717 -2148.635)" fill="#0f227a"/>
          </g>
        </g>
      </g>
      <g id="Group_4172" data-name="Group 4172" transform="translate(87.019 107.282)">
        <g id="Group_4171" data-name="Group 4171">
          <g id="Group_4170" data-name="Group 4170">
            <path id="Path_7467" data-name="Path 7467" d="M2315.538,2074.7a1.461,1.461,0,0,1-1.194-2.3c.084-.119,8.394-11.976,10.953-16.615a1.46,1.46,0,0,1,2.558,1.411c-2.635,4.776-10.774,16.39-11.12,16.881A1.458,1.458,0,0,1,2315.538,2074.7Z" transform="translate(-2314.079 -2055.026)" fill="#0f227a"/>
          </g>
        </g>
      </g>
      <g id="Group_4175" data-name="Group 4175" transform="translate(8.652 89.774)">
        <g id="Group_4174" data-name="Group 4174">
          <g id="Group_4173" data-name="Group 4173">
            <path id="Path_7468" data-name="Path 7468" d="M1326.3,1859.774c-2.842,0-8.16-.379-11.708-3.818-2.289-2.219-3.457-5.314-3.471-9.2-.024-6.592,4.748-12.406,12.157-14.814,6.76-2.2,13.231-.7,16.486,3.814,4.466,6.194,1.654,11.668-.8,14.091a10.2,10.2,0,0,1-3.171,6.83,11.508,11.508,0,0,1-7.762,3.066c-.1,0-.27,0-.5.009C1327.213,1859.763,1326.792,1859.774,1326.3,1859.774Zm3.027-25.911a16.719,16.719,0,0,0-5.146.858c-4.692,1.525-10.163,5.59-10.139,12.026.011,3.068.88,5.461,2.583,7.112,3.283,3.183,8.966,3.028,10.834,2.975.316-.008.552-.013.693-.007a8.649,8.649,0,0,0,5.647-2.279,7.353,7.353,0,0,0,2.28-5.4,1.461,1.461,0,0,1,.512-1.076c.537-.463,5.085-4.666.8-10.6C1335.7,1835.115,1332.762,1833.863,1329.323,1833.863Z" transform="translate(-1311.117 -1830.945)" fill="#0f227a"/>
          </g>
        </g>
      </g>
      <g id="Group_4178" data-name="Group 4178" transform="translate(1.802 155.686)">
        <g id="Group_4177" data-name="Group 4177">
          <g id="Group_4176" data-name="Group 4176">
            <path id="Path_7469" data-name="Path 7469" d="M1234.77,2710.651a11.158,11.158,0,0,1-7.731-2.819,10.36,10.36,0,0,1-3.587-7.851c-.1-8.561,8.923-18.094,11.189-20.35l-.211-3.555a1.461,1.461,0,0,1,1.059-1.491,1.69,1.69,0,0,1,.235-.058,1.419,1.419,0,0,1,.336-.018,27.237,27.237,0,0,1,10.012,3.138c4.913,2.587,11.524,7.871,15.12,18.358a1.808,1.808,0,0,1,.073.293,1.46,1.46,0,0,1-.514,1.486c-7.145,5.65-13.409,9.481-18.617,11.388A21.634,21.634,0,0,1,1234.77,2710.651Zm2.679-32.993.147,2.467a1.461,1.461,0,0,1-.455,1.148c-.109.1-10.873,10.377-10.768,18.677a7.45,7.45,0,0,0,2.62,5.711c5.208,4.682,15.01,1.475,29.142-9.536C1252.885,2681.925,1241.6,2678.463,1237.448,2677.657Zm23.778,18.513h0Zm0,0h0Zm-25.339-20.178h0Z" transform="translate(-1223.451 -2674.507)" fill="#0f227a"/>
          </g>
        </g>
      </g>
      <g id="Group_4181" data-name="Group 4181" transform="translate(8.651 124.171)">
        <g id="Group_4180" data-name="Group 4180">
          <g id="Group_4179" data-name="Group 4179">
            <path id="Path_7470" data-name="Path 7470" d="M1312.575,2285.815a1.46,1.46,0,0,1-1.353-2.007c.135-.335,3.361-8.244,7.9-12.264a1.46,1.46,0,0,1,1.937,2.186c-4.017,3.56-7.094,11.095-7.125,11.171A1.461,1.461,0,0,1,1312.575,2285.815Z" transform="translate(-1311.115 -2271.178)" fill="#0f227a"/>
          </g>
        </g>
      </g>
      <g id="Group_4184" data-name="Group 4184" transform="translate(6.296 130.998)">
        <g id="Group_4183" data-name="Group 4183">
          <g id="Group_4182" data-name="Group 4182">
            <path id="Path_7471" data-name="Path 7471" d="M1290.9,2390.67a7.148,7.148,0,0,1-3.047-.642c-10.64-4.947-6.111-20.835-4.78-24.813-.208-.232-.451-.517-.709-.85a1.461,1.461,0,0,1,0-1.787,15.428,15.428,0,0,1,3.709-3.512,1.458,1.458,0,0,1,.526-.213,21.221,21.221,0,0,1,2.886-.288c4.715-.194,16.472.615,23.693,12.221a1.46,1.46,0,0,1,.021,1.507C1307.523,2382.012,1297.944,2390.67,1290.9,2390.67Zm-5.474-27.21c.191.2.31.314.313.316a1.466,1.466,0,0,1,.376,1.592c-.066.175-6.517,17.6,2.969,22.013,4.707,2.189,14.816-5.427,21.133-15.792-6.191-9.248-15.526-10.312-20.617-10.1h0a21.229,21.229,0,0,0-2.176.193A11.954,11.954,0,0,0,1285.424,2363.46Zm4.115-3.436h0Z" transform="translate(-1280.971 -2358.543)" fill="#0f227a"/>
          </g>
        </g>
      </g>
      <g id="Group_4187" data-name="Group 4187" transform="translate(24.866 95.115)">
        <g id="Group_4186" data-name="Group 4186">
          <g id="Group_4185" data-name="Group 4185">
            <path id="Path_7472" data-name="Path 7472" d="M1564.353,1929.812c-6.435,0-21.572-7.614-22.6-12.563a18.108,18.108,0,0,1-.159-6.765c-3.525-1.584-14.876-6.572-21.85-8.306a1.46,1.46,0,1,1,.7-2.834c8.564,2.129,22.843,8.7,23.446,8.978a1.46,1.46,0,0,1,.775,1.783,14.151,14.151,0,0,0-.058,6.548c.248,1.187,3.366,3.892,8.656,6.567,4.77,2.411,9.646,3.94,11.6,3.641a12.593,12.593,0,0,0,7.165-4.206,1.46,1.46,0,0,1,1.651-.469l10.392,3.815a1.46,1.46,0,0,1-1.006,2.742l-9.465-3.474a15.255,15.255,0,0,1-8.29,4.478A6.235,6.235,0,0,1,1564.353,1929.812Z" transform="translate(-1518.631 -1899.3)" fill="#0f227a"/>
          </g>
        </g>
      </g>
      <g id="Group_4190" data-name="Group 4190" transform="translate(22.666 98.437)">
        <g id="Group_4189" data-name="Group 4189">
          <g id="Group_4188" data-name="Group 4188">
            <path id="Path_7473" data-name="Path 7473" d="M1502.883,1952.9c-.031,0-.062,0-.092,0a1.46,1.46,0,0,1-1.367-1.545c0-.068.175-3.779-2.07-5.576-1.5-1.2-3.861-1.358-7.013-.465a1.46,1.46,0,1,1-.8-2.81c4.124-1.17,7.372-.831,9.653,1.009,3.429,2.764,3.155,7.806,3.142,8.02A1.461,1.461,0,0,1,1502.883,1952.9Z" transform="translate(-1490.482 -1941.822)" fill="#0f227a"/>
          </g>
        </g>
      </g>
      <g id="Group_4193" data-name="Group 4193" transform="translate(125.445 81.945)">
        <g id="Group_4192" data-name="Group 4192">
          <g id="Group_4191" data-name="Group 4191">
            <path id="Path_7474" data-name="Path 7474" d="M2815.5,1745.787a21.257,21.257,0,0,1-8.862-2.307,1.46,1.46,0,1,1,1.391-2.568c1.85,1,6.912,2.781,9.906,1.543a3.259,3.259,0,0,0,1.979-2.25,2.671,2.671,0,0,0-.266-2.276c-1.475-2.458-6.4-3.929-8.173-4.288a1.46,1.46,0,0,1,.576-2.863c.781.157,7.7,1.647,10.1,5.644a5.624,5.624,0,0,1,.563,4.618,6.217,6.217,0,0,1-3.661,4.113A9.3,9.3,0,0,1,2815.5,1745.787Z" transform="translate(-2805.874 -1730.75)" fill="#0f227a"/>
          </g>
        </g>
      </g>
      <g id="Group_4196" data-name="Group 4196" transform="translate(1.46 75.085)">
        <g id="Group_4195" data-name="Group 4195">
          <g id="Group_4194" data-name="Group 4194">
            <path id="Path_7475" data-name="Path 7475" d="M1290.769,1652.334c13.251,4.2,29.85,6.721,40.054,1.7s25.81-17.7,33.673-6.724c9.351,13.052-19.176,44.468-58.375,46.017,0,0-62.823,79.795-82.109,62.457-10.237-9.2,8.121-26.532,8.121-26.532l-2.484-42.439s-10.532-.76-10.567-11.093C1219.034,1661.549,1236.963,1635.264,1290.769,1652.334Z" transform="translate(-1219.082 -1642.961)" fill="#e8c49c" fill-rule="evenodd"/>
          </g>
        </g>
      </g>
      <g id="Group_4199" data-name="Group 4199" transform="translate(115.415 75.831)">
        <g id="Group_4198" data-name="Group 4198">
          <g id="Group_4197" data-name="Group 4197">
            <path id="Path_7476" data-name="Path 7476" d="M2677.5,1666.174s1.563,21.878,21.487,17.971l8.986-12.892,2.618-7.308-.411-5.481-3.477-4.736-4.981-1.227A78.745,78.745,0,0,0,2677.5,1666.174Z" transform="translate(-2677.5 -1652.5)" fill="#fff"/>
          </g>
        </g>
      </g>
      <g id="Group_4202" data-name="Group 4202" transform="translate(3.262 107.054)" opacity="0.2" style="isolation: isolate">
        <g id="Group_4201" data-name="Group 4201">
          <g id="Group_4200" data-name="Group 4200">
            <path id="Path_7477" data-name="Path 7477" d="M1332.875,2055.427c-18.283,23.909-73.269,85.5-90.735,70.688a8.883,8.883,0,0,0,3.057,6.845c19.285,17.337,82.1-62.448,82.1-62.448,1.385-.055,9.735-16.587,11.092-16.714C1339.112,2051.536,1336.21,2051.066,1332.875,2055.427Z" transform="translate(-1242.14 -2052.11)" fill="#0f227a" fill-rule="evenodd"/>
          </g>
        </g>
      </g>
      <g id="Group_4205" data-name="Group 4205" transform="translate(1.682 93.858)" opacity="0.2" style="isolation: isolate">
        <g id="Group_4204" data-name="Group 4204">
          <g id="Group_4203" data-name="Group 4203">
            <path id="Path_7478" data-name="Path 7478" d="M1226.681,1883.214a24.611,24.611,0,0,0-4.768,13.7c.032,9.4,8.4,10.807,9.97,11,10.713-3.756,18.709-16.9,18.709-16.9C1222.8,1907.525,1225.459,1888.622,1226.681,1883.214Z" transform="translate(-1221.913 -1883.214)" fill="#0f227a" fill-rule="evenodd"/>
          </g>
        </g>
      </g>
      <g id="Group_4208" data-name="Group 4208" transform="translate(3.262 157.146)">
        <g id="Group_4207" data-name="Group 4207">
          <g id="Group_4206" data-name="Group 4206">
            <path id="Path_7479" data-name="Path 7479" d="M1253.193,2693.2c-.027,0-.052.018-.079.022l.251,4.221s-18.359,17.333-8.123,26.535c6.771,6.087,18.927.094,31.829-10.108-.018-.054-.016-.105-.034-.16C1270.375,2694.289,1253.193,2693.2,1253.193,2693.2Z" transform="translate(-1242.138 -2693.2)" fill="#18dde6" fill-rule="evenodd"/>
          </g>
        </g>
      </g>
      <g id="Group_4211" data-name="Group 4211" transform="translate(15.431 159.433)" opacity="0.6" style="isolation: isolate">
        <g id="Group_4210" data-name="Group 4210">
          <g id="Group_4209" data-name="Group 4209">
            <path id="Path_7480" data-name="Path 7480" d="M1398.288,2722.692s16.388,7.6,16.689,15.95c.108,2.986-3.812,8.08-12.246,13.339,0,0,14.01-7.572,18.226-11.244,0,0-9.657-23.848-23.078-17.047" transform="translate(-1397.88 -2722.469)" fill="#fdfdfd" fill-rule="evenodd"/>
          </g>
        </g>
      </g>
      <g id="Group_4214" data-name="Group 4214" transform="translate(3.327 171.215)" opacity="0.2" style="isolation: isolate">
        <g id="Group_4213" data-name="Group 4213">
          <g id="Group_4212" data-name="Group 4212">
            <path id="Path_7481" data-name="Path 7481" d="M1274.879,2873.249c-13.31,10.082-25.284,15.438-31.908,9.9,0,.194-.012.389,0,.582.014.222.029.442.057.661a9.043,9.043,0,0,0,.308,1.392c.057.195.111.389.182.581a8.53,8.53,0,0,0,.787,1.575c.054.086.09.177.148.262a9.912,9.912,0,0,0,1.563,1.768c.12.108.253.186.376.286a9.35,9.35,0,0,0,1.22.855c.23.132.468.242.707.354a9.443,9.443,0,0,0,1.323.49c.2.06.4.136.6.183a11.341,11.341,0,0,0,2.1.263c.116,0,.237,0,.354,0a15.219,15.219,0,0,0,1.928-.126c.253-.031.507-.06.765-.1.223-.037.457-.1.684-.148a24.411,24.411,0,0,0,3.171-.889c.224-.078.447-.144.673-.229a49.127,49.127,0,0,0,8.465-4.3c2.422-1.506,4.925-3.308,7.461-5.236q.989-.753,1.985-1.541a.975.975,0,0,0-.023-.126A35.478,35.478,0,0,0,1274.879,2873.249Z" transform="translate(-1242.965 -2873.249)" fill="#0f227a" fill-rule="evenodd"/>
          </g>
        </g>
      </g>
      <g id="Group_4217" data-name="Group 4217" transform="translate(30.361 96.572)" opacity="0.6" style="isolation: isolate">
        <g id="Group_4216" data-name="Group 4216">
          <g id="Group_4215" data-name="Group 4215">
            <path id="Path_7482" data-name="Path 7482" d="M1648.754,1944.726s-9.469-6.234-12.632-3.807-3.011,4.023-6.1,4.333-19.722-5.607-21.443-10.653.615-3.74-.106-7.159-11.366-7.948-18.624-9.488c0,0-2.162,1.289.268,1.99,8.564,2.471,15.4,6.064,15.807,8.1.332,1.68-1.2,3.771-.023,7.3,1.5,4.484,18.687,13.535,23.7,12.722,5.536-.9,5.328-3.9,7.675-4.692,1.386-.465,1.989-.454,10.1,2.709" transform="translate(-1588.966 -1917.951)" fill="#fdfdfd" fill-rule="evenodd"/>
          </g>
        </g>
      </g>
      <g id="Group_4220" data-name="Group 4220" transform="translate(131.133 75.007)" opacity="0.6" style="isolation: isolate">
        <g id="Group_4219" data-name="Group 4219">
          <g id="Group_4218" data-name="Group 4218">
            <path id="Path_7483" data-name="Path 7483" d="M2885.183,1641.989a22.537,22.537,0,0,0-6.514,1.6c19.855.438,14.009,18.9,14.009,18.9.1-.036.189-.088.285-.126,3.6-6.16,4.356-11.993,1.449-16.051A9.834,9.834,0,0,0,2885.183,1641.989Z" transform="translate(-2878.669 -1641.959)" fill="#fdfdfd" fill-rule="evenodd"/>
          </g>
        </g>
      </g>
      <g id="Group_4223" data-name="Group 4223" transform="translate(0 73.634)">
        <g id="Group_4222" data-name="Group 4222">
          <g id="Group_4221" data-name="Group 4221">
            <path id="Path_7484" data-name="Path 7484" d="M1213.608,1742.583a11.277,11.277,0,0,1-7.8-2.839,10.362,10.362,0,0,1-3.588-7.851c-.1-8.561,8.923-18.092,11.188-20.346l-2.375-40.567c-4.257-.77-10.612-4.028-10.64-12.38-.021-6.277,3.242-15.4,12.464-22.171,9.543-7.01,27.895-13.152,61.125-2.609,16.215,5.144,30.782,5.809,38.967,1.779,1.907-.939,4.024-2.161,6.266-3.455,4.773-2.755,10.183-5.878,15.223-7.156,6.123-1.551,10.839-.089,14.016,4.347,2.818,3.934,2.731,9.454-.246,15.542-3.742,7.651-11.586,15.475-21.521,21.466a79.45,79.45,0,0,1-37.064,11.288c-5.174,6.508-50.6,62.825-74.644,64.893Q1214.279,1742.584,1213.608,1742.583Zm28.127-111.512c-13.093,0-21.682,3.7-27.15,7.712-8.349,6.132-11.29,14.5-11.272,19.807.03,8.824,8.841,9.612,9.216,9.642a1.465,1.465,0,0,1,1.349,1.371l2.484,42.439a1.461,1.461,0,0,1-.455,1.147c-.109.1-10.871,10.374-10.767,18.673a7.452,7.452,0,0,0,2.62,5.712,8.747,8.747,0,0,0,6.969,2.041c23.726-2.04,72.526-63.694,73.016-64.317a1.46,1.46,0,0,1,1.09-.555c26.5-1.047,49.665-16.66,56.75-31.149,2.483-5.078,2.66-9.538.5-12.558-5.589-7.8-16.117-1.724-25.4,3.638-2.285,1.319-4.443,2.564-6.436,3.546-12.749,6.276-33.018.961-41.14-1.615h0C1260.519,1632.612,1250.188,1631.071,1241.734,1631.071Z" transform="translate(-1200.392 -1624.387)" fill="#0f227a"/>
          </g>
        </g>
      </g>
      <g id="Group_4226" data-name="Group 4226" transform="translate(87.088 108.561)">
        <g id="Group_4225" data-name="Group 4225">
          <g id="Group_4224" data-name="Group 4224">
            <path id="Path_7485" data-name="Path 7485" d="M2315.167,2087.48a49.474,49.474,0,0,1,2.743-4.181c.966-1.359,2-2.671,3.027-3.989s2.07-2.624,3.117-3.929l3.161-3.912,0,0a.211.211,0,0,1,.363.2,44.372,44.372,0,0,1-2.063,4.65q-1.144,2.261-2.394,4.454c-.836,1.459-1.677,2.916-2.6,4.315a42.275,42.275,0,0,1-2.965,4.068,1.467,1.467,0,0,1-2.394-1.673Z" transform="translate(-2314.971 -2071.388)" fill="#0f227a"/>
          </g>
        </g>
      </g>
      <g id="Group_4229" data-name="Group 4229" transform="translate(1.802 155.686)">
        <g id="Group_4228" data-name="Group 4228">
          <g id="Group_4227" data-name="Group 4227">
            <path id="Path_7486" data-name="Path 7486" d="M1234.77,2710.651a11.158,11.158,0,0,1-7.731-2.819,10.36,10.36,0,0,1-3.587-7.851c-.1-8.561,8.923-18.094,11.189-20.35l-.211-3.555a1.461,1.461,0,0,1,1.059-1.491,1.69,1.69,0,0,1,.235-.058,1.419,1.419,0,0,1,.336-.018,27.237,27.237,0,0,1,10.012,3.138c4.913,2.587,11.524,7.871,15.12,18.358a1.808,1.808,0,0,1,.073.293,1.46,1.46,0,0,1-.514,1.486c-7.145,5.65-13.409,9.481-18.617,11.388A21.634,21.634,0,0,1,1234.77,2710.651Zm2.679-32.993.147,2.467a1.461,1.461,0,0,1-.455,1.148c-.109.1-10.873,10.377-10.768,18.677a7.45,7.45,0,0,0,2.62,5.711c5.208,4.682,15.01,1.475,29.142-9.536C1252.885,2681.925,1241.6,2678.463,1237.448,2677.657Zm23.778,18.513h0Zm0,0h0Zm-25.339-20.178h0Z" transform="translate(-1223.451 -2674.507)" fill="#0f227a"/>
          </g>
        </g>
      </g>
      <g id="Group_4232" data-name="Group 4232" transform="translate(25.414 95.661)">
        <g id="Group_4231" data-name="Group 4231">
          <g id="Group_4230" data-name="Group 4230">
            <path id="Path_7487" data-name="Path 7487" d="M1570.822,1935.716c-6.084,0-21.1-7.444-22.075-12.128a7.388,7.388,0,0,1,.417-4.692,1.883,1.883,0,0,0-.172-2.276c-2.923-4.192-10.331-5.8-17.495-7.351-1.721-.373-3.5-.759-5.163-1.172a.912.912,0,1,1,.44-1.771c1.637.407,3.324.772,5.11,1.159,7.508,1.627,15.272,3.31,18.605,8.091a3.637,3.637,0,0,1,.377,3.977,5.576,5.576,0,0,0-.333,3.662c.734,3.515,16.148,11.375,20.872,10.637a4.725,4.725,0,0,0,3.546-2.113,5.438,5.438,0,0,1,4.526-2.444c4.181-.275,10.736,3.578,11.013,3.742a.913.913,0,0,1-.929,1.571c-.063-.037-6.346-3.724-9.968-3.492a3.688,3.688,0,0,0-3.214,1.76,6.515,6.515,0,0,1-4.695,2.78A5.708,5.708,0,0,1,1570.822,1935.716Z" transform="translate(-1525.642 -1906.299)" fill="#0f227a"/>
          </g>
        </g>
      </g>
      <g id="Group_4235" data-name="Group 4235" transform="translate(123.351 82.487)" opacity="0.6" style="isolation: isolate">
        <g id="Group_4234" data-name="Group 4234">
          <g id="Group_4233" data-name="Group 4233">
            <path id="Path_7488" data-name="Path 7488" d="M2796.673,1747.268s-5.235-6.408-17.595-6.747l2.05-2.829S2797.425,1738.471,2796.673,1747.268Z" transform="translate(-2779.078 -1737.692)" fill="#fdfdfd" fill-rule="evenodd"/>
          </g>
        </g>
      </g>
      <g id="Group_4239" data-name="Group 4239" transform="translate(125.086 89.36)">
        <g id="Group_4238" data-name="Group 4238" opacity="0.2" style="isolation: isolate">
          <g id="Group_4237" data-name="Group 4237">
            <g id="Group_4236" data-name="Group 4236">
              <path id="Path_7489" data-name="Path 7489" d="M2804.454,1826.017a2.534,2.534,0,0,0-2.75.453,2.448,2.448,0,0,0-.432.535,7.079,7.079,0,0,0,3.255,4.46q.243-.3.48-.615a19.318,19.318,0,0,0,2.154.558c3.517.714,10.109,1.136,10.109-5.758C2817.27,1825.649,2816.168,1831.194,2804.454,1826.017Z" transform="translate(-2801.272 -1825.649)" fill="#0f227a"/>
            </g>
          </g>
        </g>
      </g>
      <g id="Group_4242" data-name="Group 4242" transform="translate(126.728 82.961)">
        <g id="Group_4241" data-name="Group 4241">
          <g id="Group_4240" data-name="Group 4240">
            <path id="Path_7490" data-name="Path 7490" d="M2826.945,1743.963a8.672,8.672,0,0,1,4.047.074,12.682,12.682,0,0,1,3.772,1.649,8.837,8.837,0,0,1,1.711,1.434,6.571,6.571,0,0,1,1.3,2.067,5.6,5.6,0,0,1,.351,2.551c-.027.209-.049.422-.089.625l-.152.6a8.038,8.038,0,0,1-.434,1.106,6.491,6.491,0,0,1-1.467,1.972,6.851,6.851,0,0,1-2.073,1.274,9.324,9.324,0,0,1-4.362.546,12.322,12.322,0,0,1-3.935-1.08,9.487,9.487,0,0,1-3.265-2.374.261.261,0,0,1,.22-.429h.012c1.324.11,2.54.264,3.739.406s2.352.286,3.465.333a9.362,9.362,0,0,0,3.087-.253,2.946,2.946,0,0,0,1.926-1.658,3.617,3.617,0,0,0,.234-.655l.066-.323c.014-.106.013-.208.026-.311a2.477,2.477,0,0,0-.239-1.138,5.911,5.911,0,0,0-1.927-2.062,28.121,28.121,0,0,0-2.938-1.77,22.616,22.616,0,0,1-3.174-2.1l-.011-.009a.268.268,0,0,1,.107-.468Z" transform="translate(-2822.291 -1743.757)" fill="#0f227a"/>
          </g>
        </g>
      </g>
      <g id="Group_4245" data-name="Group 4245" transform="translate(31.515 77.471)" opacity="0.2" style="isolation: isolate">
        <g id="Group_4244" data-name="Group 4244">
          <g id="Group_4243" data-name="Group 4243">
            <path id="Path_7491" data-name="Path 7491" d="M1702.6,1673.5c-5.7,2.5-11.538,6.381-16.234,8.693-10.2,5.024-26.8,2.5-40.054-1.7-18.018-5.716-31.931-6.51-42.575-4.586a54.42,54.42,0,0,0,98.862-2.407Z" transform="translate(-1603.733 -1673.497)" fill="#0f227a" fill-rule="evenodd"/>
          </g>
        </g>
      </g>
      <g id="Group_4248" data-name="Group 4248" transform="translate(115.584 54.144)">
        <g id="Group_4247" data-name="Group 4247">
          <g id="Group_4246" data-name="Group 4246">
            <path id="Path_7492" data-name="Path 7492" d="M2680.869,1386.965c2.9-8.45,10.132-13.626,16.153-11.56s8.551,10.592,5.652,19.042-10.132,13.626-16.152,11.56S2677.969,1395.415,2680.869,1386.965Z" transform="translate(-2679.667 -1374.951)" fill="#18dde6" fill-rule="evenodd"/>
          </g>
        </g>
      </g>
      <g id="Group_4255" data-name="Group 4255" transform="translate(115.394 63.832)" opacity="0.2" style="isolation: isolate">
        <g id="Group_4251" data-name="Group 4251" transform="translate(0.19 1.066)">
          <g id="Group_4250" data-name="Group 4250">
            <g id="Group_4249" data-name="Group 4249">
              <path id="Path_7493" data-name="Path 7493" d="M2681.248,1512.59c-.117.3-.271.57-.376.879-2.9,8.45-.374,16.974,5.647,19.04s13.254-3.106,16.154-11.556a21.582,21.582,0,0,0,1.164-6.777c-3.092,7.906-9.977,12.669-15.778,10.678C2683.677,1523.35,2681.186,1518.417,2681.248,1512.59Z" transform="translate(-2679.67 -1512.59)" fill="#1d386a" fill-rule="evenodd"/>
            </g>
          </g>
        </g>
        <g id="Group_4254" data-name="Group 4254">
          <g id="Group_4253" data-name="Group 4253">
            <g id="Group_4252" data-name="Group 4252">
              <path id="Path_7494" data-name="Path 7494" d="M2687.041,1520.579a8.667,8.667,0,0,1-2.826-.468c-6.11-2.1-8.7-10.75-5.769-19.288a5.282,5.282,0,0,1,.218-.518c.056-.121.112-.242.161-.368l.388-1-.011,1.069c-.064,5.922,2.558,10.663,6.679,12.077,5.639,1.932,12.459-2.707,15.532-10.564l.388-.994-.011,1.067a21.767,21.767,0,0,1-1.174,6.838,20,20,0,0,1-6.978,9.817A11.422,11.422,0,0,1,2687.041,1520.579Zm-8.216-19.652-.008.022c-2.86,8.335-.382,16.765,5.526,18.792,2.851.977,6.072.336,9.07-1.809a19.612,19.612,0,0,0,6.836-9.626,21.322,21.322,0,0,0,1.115-5.65c-3.321,7.445-10.016,11.72-15.608,9.8C2681.691,1511.061,2679.029,1506.588,2678.825,1500.927Z" transform="translate(-2677.24 -1498.941)" fill="#0f227a"/>
            </g>
          </g>
        </g>
      </g>
      <g id="Group_4258" data-name="Group 4258" transform="translate(126.297 53.794)" opacity="0.6" style="isolation: isolate">
        <g id="Group_4257" data-name="Group 4257">
          <g id="Group_4256" data-name="Group 4256">
            <path id="Path_7495" data-name="Path 7495" d="M2821.643,1370.477a10.138,10.138,0,0,0-4.871,1.072c11.949,4.542,13.344,13.69,13.519,15.823,1.623-7.537-.938-14.6-6.343-16.451A8.415,8.415,0,0,0,2821.643,1370.477Z" transform="translate(-2816.772 -1370.466)" fill="#fdfdfd" fill-rule="evenodd"/>
          </g>
        </g>
      </g>
      <g id="Group_4261" data-name="Group 4261" transform="translate(114.137 52.691)">
        <g id="Group_4260" data-name="Group 4260">
          <g id="Group_4259" data-name="Group 4259">
            <path id="Path_7496" data-name="Path 7496" d="M2672.151,1390.773a9.767,9.767,0,0,1-3.182-.526c-6.773-2.324-9.715-11.7-6.559-20.9h0c3.156-9.2,11.233-14.791,18.008-12.467s9.715,11.7,6.559,20.9C2684.3,1385.569,2678.1,1390.773,2672.151,1390.773Zm-6.978-20.476c-2.634,7.675-.506,15.386,4.744,17.187a7.064,7.064,0,0,0,2.3.38c4.7,0,9.737-4.451,12-11.032,2.633-7.675.505-15.385-4.744-17.187s-11.663,2.978-14.3,10.653Z" transform="translate(-2661.143 -1356.357)" fill="#0f227a"/>
          </g>
        </g>
      </g>
      <g id="Group_4264" data-name="Group 4264" transform="translate(30.8 1.893)">
        <g id="Group_4263" data-name="Group 4263">
          <g id="Group_4262" data-name="Group 4262">
            <path id="Path_7497" data-name="Path 7497" d="M1594.585,755.986c0-27.485,23.485-49.766,52.456-49.766S1699.5,728.5,1699.5,755.986s-23.485,49.765-52.456,49.765S1594.585,783.47,1594.585,755.986Z" transform="translate(-1594.585 -706.22)" fill="#e8c49c" fill-rule="evenodd"/>
          </g>
        </g>
      </g>
      <g id="Group_4267" data-name="Group 4267" transform="translate(43.728 1.892)" opacity="0.6" style="isolation: isolate">
        <g id="Group_4266" data-name="Group 4266">
          <g id="Group_4265" data-name="Group 4265">
            <path id="Path_7498" data-name="Path 7498" d="M1799.707,706.206a53.5,53.5,0,0,0-39.677,17.283,59.321,59.321,0,0,1,55.934-10.119,51.632,51.632,0,0,1,7.039,2.944c-.417.995,1.372,3.139,4.141,4.905,2.635,1.681,5.2,2.41,6.069,1.791,14.272,12.182,18.243,29.3,18.949,32.958C1852.161,728.483,1828.677,706.206,1799.707,706.206Z" transform="translate(-1760.029 -706.206)" fill="#fdfdfd" fill-rule="evenodd"/>
          </g>
        </g>
      </g>
      <g id="Group_4274" data-name="Group 4274" transform="translate(80.42 0.603)" opacity="0.6" style="isolation: isolate">
        <g id="Group_4270" data-name="Group 4270" transform="translate(0.195 0.189)">
          <g id="Group_4269" data-name="Group 4269">
            <g id="Group_4268" data-name="Group 4268">
              <path id="Path_7499" data-name="Path 7499" d="M2234.768,692.143c-.833,0-1.64.089-2.464.125-.1,1.019-.171,2.048-.171,3.092,0,.312.037.614.046.924a60,60,0,0,1,18.846,3.023,51.671,51.671,0,0,1,7.039,2.943c-.417.995,1.372,3.139,4.141,4.906,2.636,1.681,5.2,2.41,6.069,1.791a55.3,55.3,0,0,1,12.994,16.6c.864-.358,1.74-.7,2.567-1.118-.465-1.173-.964-2.327-1.518-3.457,0,0-.009-.007-.011-.011s-.006-.023-.012-.034a49.5,49.5,0,0,0-6.115-9.491c-.738-.9-1.516-1.783-2.315-2.635-.146-.155-.3-.3-.445-.456-.791-.821-1.6-1.627-2.441-2.4-.008-.007-.015-.016-.023-.023-.048-.043-.1-.082-.148-.126a52.085,52.085,0,0,0-4.814-3.81c-.428-.3-.84-.623-1.278-.913-.649-.431-1.326-.829-2-1.232-.6-.358-1.2-.714-1.813-1.049q-1.075-.589-2.179-1.129c-.637-.311-1.288-.6-1.939-.89s-1.326-.6-2.008-.867c-1.322-.518-2.664-.987-4.038-1.4-.495-.15-1-.262-1.506-.4-1.038-.282-2.085-.554-3.149-.776-.592-.124-1.191-.226-1.791-.331-1-.173-2-.325-3.012-.445-.55-.065-1.1-.134-1.654-.182C2238.028,692.232,2236.405,692.143,2234.768,692.143Z" transform="translate(-2232.132 -692.143)" fill="#fdfdfd" fill-rule="evenodd"/>
            </g>
          </g>
        </g>
        <g id="Group_4273" data-name="Group 4273">
          <g id="Group_4272" data-name="Group 4272">
            <g id="Group_4271" data-name="Group 4271">
              <path id="Path_7500" data-name="Path 7500" d="M2278.871,723.56l-.083-.158a55.225,55.225,0,0,0-12.841-16.45c-1.052.533-3.583-.226-6.154-1.866-2.72-1.735-4.491-3.816-4.27-4.968a50.779,50.779,0,0,0-6.866-2.86,60.3,60.3,0,0,0-18.785-3.014h-.19l-.006-.19c0-.13-.012-.259-.021-.388-.013-.18-.024-.359-.024-.542,0-.934.055-1.922.172-3.111l.016-.169.169-.008c.3-.013.6-.034.9-.055a41.752,41.752,0,0,1,6.444.158c.464.04.923.1,1.382.15l.278.033c.956.112,1.945.258,3.023.446l.158.027c.539.094,1.1.191,1.639.3,1.125.235,2.229.525,3.16.778.193.053.388.1.583.151.312.079.623.157.929.25,1.342.406,2.705.88,4.053,1.408.528.208,1.049.44,1.554.665l.461.205c.624.274,1.291.573,1.947.893.749.367,1.485.748,2.187,1.133.624.341,1.244.708,1.82,1.054l.31.186c.561.336,1.141.684,1.695,1.051.272.18.534.372.8.564.161.118.323.237.486.352a52.087,52.087,0,0,1,4.833,3.826c.022.02.045.039.067.057s.055.045.082.069c.766.7,1.544,1.463,2.473,2.428l.179.183c.09.091.179.182.267.275.838.893,1.62,1.782,2.325,2.645a49.762,49.762,0,0,1,6.138,9.529l.022.044c.525,1.074,1.024,2.209,1.524,3.473l.066.165-.158.081c-.677.345-1.4.639-2.092.924Zm-12.893-17.1.116.1a55.489,55.489,0,0,1,12.958,16.5l.325-.134c.634-.259,1.286-.526,1.9-.83-.468-1.172-.935-2.232-1.425-3.236l0,0-.048-.1a49.405,49.405,0,0,0-6.083-9.434c-.7-.856-1.475-1.739-2.307-2.625-.085-.09-.173-.179-.26-.268l-.182-.186c-.923-.959-1.7-1.717-2.433-2.387-.044-.042-.066-.06-.088-.078s-.056-.046-.083-.07a51.646,51.646,0,0,0-4.8-3.8c-.165-.116-.329-.236-.492-.356-.257-.188-.514-.376-.78-.553-.546-.362-1.123-.708-1.68-1.042l-.31-.186c-.573-.343-1.188-.708-1.807-1.046-.7-.382-1.428-.761-2.171-1.125-.649-.318-1.312-.614-1.932-.887l-.463-.206c-.5-.223-1.018-.454-1.538-.658-1.338-.524-2.691-.995-4.023-1.4-.3-.091-.605-.168-.911-.245-.2-.05-.394-.1-.59-.153-.925-.252-2.022-.54-3.137-.773-.537-.112-1.091-.209-1.626-.3l-.158-.028c-1.071-.187-2.052-.331-3-.443l-.279-.033c-.455-.055-.91-.109-1.37-.149a41.2,41.2,0,0,0-6.384-.158c-.248.017-.5.034-.745.047-.1,1.1-.154,2.029-.154,2.9,0,.174.012.344.024.515,0,.071.01.142.014.213a60.5,60.5,0,0,1,18.72,3.033,51.521,51.521,0,0,1,7.065,2.954l.164.081-.071.169c-.33.786,1.132,2.794,4.066,4.665,2.764,1.763,5.146,2.3,5.851,1.8Z" transform="translate(-2229.631 -689.719)" fill="#0f227a"/>
            </g>
          </g>
        </g>
      </g>
      <g id="Group_4281" data-name="Group 4281" transform="translate(80.57 1.697)">
        <g id="Group_4277" data-name="Group 4277" transform="translate(0.195 0.195)">
          <g id="Group_4276" data-name="Group 4276">
            <g id="Group_4275" data-name="Group 4275">
              <path id="Path_7501" data-name="Path 7501" d="M2236.684,706.22c-.832,0-1.642.078-2.464.114-.1,1.022-.171,2.056-.171,3.1,0,18.234,15.7,33.015,35.057,33.015a36.629,36.629,0,0,0,16.645-3.947C2278.283,719.655,2259.161,706.22,2236.684,706.22Z" transform="translate(-2234.048 -706.22)" fill="#ea5656" fill-rule="evenodd"/>
            </g>
          </g>
        </g>
        <g id="Group_4280" data-name="Group 4280">
          <g id="Group_4279" data-name="Group 4279">
            <g id="Group_4278" data-name="Group 4278">
              <path id="Path_7502" data-name="Path 7502" d="M2266.8,740.344c-19.438,0-35.252-14.9-35.252-33.21,0-.945.055-1.938.172-3.122l.016-.169.169-.008c.286-.012.569-.03.853-.048.527-.032,1.071-.066,1.62-.066a54.126,54.126,0,0,1,30.271,9.107,50.39,50.39,0,0,1,18.976,23.3l.066.166-.158.081A37.041,37.041,0,0,1,2266.8,740.344Zm-34.708-36.126c-.1,1.1-.154,2.029-.154,2.916,0,18.1,15.639,32.819,34.862,32.819a36.664,36.664,0,0,0,16.4-3.845c-7.666-19.145-27.26-32-48.818-32-.536,0-1.074.034-1.6.066C2232.553,704.192,2232.323,704.206,2232.093,704.217Z" transform="translate(-2231.548 -703.721)" fill="#0f227a"/>
            </g>
          </g>
        </g>
      </g>
      <g id="Group_4284" data-name="Group 4284" transform="translate(31.515 37.598)" opacity="0.2" style="isolation: isolate">
        <g id="Group_4283" data-name="Group 4283">
          <g id="Group_4282" data-name="Group 4282">
            <path id="Path_7503" data-name="Path 7503" d="M1606.106,1163.181a47.464,47.464,0,0,0-2.373,14.842c0,27.485,23.484,49.762,52.454,49.762,21.741,0,40.392-12.546,48.347-30.426-10.094,12.223-25.7,24.8-45.947,23.752-34.949-1.807-52.584-27.075-52.584-55.968C1606,1164.479,1606.08,1163.839,1606.106,1163.181Z" transform="translate(-1603.733 -1163.181)" fill="#0f227a" fill-rule="evenodd"/>
          </g>
        </g>
      </g>
      <g id="Group_4287" data-name="Group 4287" transform="translate(29.34 0.433)">
        <g id="Group_4286" data-name="Group 4286">
          <g id="Group_4285" data-name="Group 4285">
            <path id="Path_7504" data-name="Path 7504" d="M1629.812,789.985c-29.729,0-53.916-22.98-53.916-51.226s24.187-51.226,53.916-51.226,53.916,22.98,53.916,51.226S1659.541,789.985,1629.812,789.985Zm0-99.531c-28.119,0-51,21.67-51,48.305s22.876,48.305,51,48.305,51-21.67,51-48.305S1657.931,690.454,1629.812,690.454Z" transform="translate(-1575.896 -687.534)" fill="#0f227a"/>
          </g>
        </g>
      </g>
      <g id="Group_4290" data-name="Group 4290" transform="translate(48.797 18.929)">
        <g id="Group_4289" data-name="Group 4289">
          <g id="Group_4288" data-name="Group 4288">
            <path id="Path_7505" data-name="Path 7505" d="M1825.467,952.3c3.578-18.207,23.834-31.5,44.271-27.248s37.433,22.212,33.481,42.058c-4.154,20.858-26.641,30.866-47.078,26.612S1821.89,970.507,1825.467,952.3Z" transform="translate(-1824.903 -924.255)" fill="#fff" fill-rule="evenodd"/>
          </g>
        </g>
      </g>
      <g id="Group_4297" data-name="Group 4297" transform="translate(48.337 35.545)" opacity="0.2" style="isolation: isolate">
        <g id="Group_4293" data-name="Group 4293" transform="translate(0.203 1.731)">
          <g id="Group_4292" data-name="Group 4292">
            <g id="Group_4291" data-name="Group 4291">
              <path id="Path_7506" data-name="Path 7506" d="M1825.88,1159.074a31.147,31.147,0,0,0-3.7,9.7c-3.578,18.207,10.239,37.168,30.676,41.422,19.16,3.988,40.121-4.557,46.089-22.827-8.155,14.115-26.464,20.4-43.4,16.873-20.437-4.254-34.254-23.216-30.677-41.423A30.07,30.07,0,0,1,1825.88,1159.074Z" transform="translate(-1821.62 -1159.074)" fill="#1d386a" fill-rule="evenodd"/>
            </g>
          </g>
        </g>
        <g id="Group_4296" data-name="Group 4296">
          <g id="Group_4295" data-name="Group 4295">
            <g id="Group_4294" data-name="Group 4294">
              <path id="Path_7507" data-name="Path 7507" d="M1859.9,1190.933a46.508,46.508,0,0,1-9.472-.977,40.525,40.525,0,0,1-24.461-15.554c-5.852-7.942-8.114-17.21-6.367-26.1a31.314,31.314,0,0,1,3.719-9.758l.953-1.633-.6,1.793a29.784,29.784,0,0,0-1,3.718c-3.565,18.143,10.414,37.008,30.525,41.194,17.6,3.664,35.363-3.236,43.187-16.779l.936-1.619-.581,1.778c-2.825,8.648-9.288,15.707-18.2,19.877A44.082,44.082,0,0,1,1859.9,1190.933Zm-37.153-50.521a30.622,30.622,0,0,0-2.764,7.969c-3.565,18.143,10.414,37.008,30.525,41.194a47.231,47.231,0,0,0,9.622,1c16.1,0,30.3-8.467,35.61-21.945-8.342,12.629-25.557,18.925-42.62,15.373a40.524,40.524,0,0,1-24.461-15.554c-5.852-7.942-8.114-17.21-6.367-26.1C1822.42,1141.712,1822.57,1141.07,1822.75,1140.411Z" transform="translate(-1819.027 -1136.914)" fill="#0f227a"/>
            </g>
          </g>
        </g>
      </g>
      <g id="Group_4300" data-name="Group 4300" transform="translate(47.328 17.48)">
        <g id="Group_4299" data-name="Group 4299">
          <g id="Group_4298" data-name="Group 4298">
            <path id="Path_7508" data-name="Path 7508" d="M1848.125,979.042a47.153,47.153,0,0,1-9.6-.982,41.783,41.783,0,0,1-25.22-16.042c-6.064-8.231-8.4-17.852-6.589-27.091h0c1.736-8.835,7.433-17.022,15.63-22.459a40.42,40.42,0,0,1,30.372-5.936,48.23,48.23,0,0,1,26.707,15.672c7.041,8.372,9.85,18.352,7.909,28.1a33.5,33.5,0,0,1-14.808,21.733A44.57,44.57,0,0,1,1848.125,979.042ZM1809.58,935.49c-3.434,17.478,10.093,35.664,29.538,39.711,11.112,2.313,23,.22,31.793-5.6a30.643,30.643,0,0,0,13.555-19.868c3.969-19.934-13.7-36.461-32.347-40.343a37.479,37.479,0,0,0-28.162,5.51c-7.551,5.01-12.792,12.514-14.379,20.589Z" transform="translate(-1806.115 -905.715)" fill="#0f227a"/>
          </g>
        </g>
      </g>
      <g id="Group_4303" data-name="Group 4303" transform="translate(25.154 19.727)">
        <g id="Group_4302" data-name="Group 4302">
          <g id="Group_4301" data-name="Group 4301">
            <path id="Path_7509" data-name="Path 7509" d="M1523.526,946.477c2.9-8.45,10.131-13.626,16.153-11.559s8.551,10.591,5.651,19.042-10.132,13.626-16.153,11.56S1520.626,954.928,1523.526,946.477Z" transform="translate(-1522.324 -934.463)" fill="#18dde6" fill-rule="evenodd"/>
          </g>
        </g>
      </g>
      <g id="Group_4306" data-name="Group 4306" transform="translate(25.525 20.203)" opacity="0.6" style="isolation: isolate">
        <g id="Group_4305" data-name="Group 4305">
          <g id="Group_4304" data-name="Group 4304">
            <path id="Path_7510" data-name="Path 7510" d="M1541.75,940.567c-5.457-.278-11.312,4.607-13.849,12a22.651,22.651,0,0,0-.833,3.16c3.006-8.16,10.056-13.114,15.96-11.089,5.257,1.8,7.848,8.531,6.491,15.834.054-.146.132-.273.182-.422,2.9-8.45.374-16.974-5.647-19.04A8.392,8.392,0,0,0,1541.75,940.567Z" transform="translate(-1527.068 -940.556)" fill="#fdfdfd" fill-rule="evenodd"/>
          </g>
        </g>
      </g>
      <g id="Group_4309" data-name="Group 4309" transform="translate(25.154 23.796)">
        <g id="Group_4308" data-name="Group 4308">
          <g id="Group_4307" data-name="Group 4307">
            <path id="Path_7511" data-name="Path 7511" d="M1523.688,993.765c2.172-5.466,6.171-8.472,8.932-6.714s3.238,7.614,1.066,13.08-6.171,8.472-8.932,6.714S1521.516,999.231,1523.688,993.765Z" transform="translate(-1522.325 -986.549)" fill="#fff" fill-rule="evenodd"/>
          </g>
        </g>
      </g>
      <g id="Group_4312" data-name="Group 4312" transform="translate(24.87 29.005)" opacity="0.2" style="isolation: isolate">
        <g id="Group_4311" data-name="Group 4311">
          <g id="Group_4310" data-name="Group 4310">
            <path id="Path_7512" data-name="Path 7512" d="M1521.045,1053.213a22.531,22.531,0,0,0-1.164,2.738c-2.9,8.45-.374,16.974,5.647,19.04s13.254-3.117,16.154-11.568a22.137,22.137,0,0,0,.924-3.9c-3.379,6.785-9.654,10.661-14.99,8.83C1522.53,1066.606,1519.982,1060.236,1521.045,1053.213Z" transform="translate(-1518.679 -1053.213)" fill="#0f227a" fill-rule="evenodd"/>
          </g>
        </g>
      </g>
      <g id="Group_4315" data-name="Group 4315" transform="translate(23.707 18.261)">
        <g id="Group_4314" data-name="Group 4314">
          <g id="Group_4313" data-name="Group 4313">
            <path id="Path_7513" data-name="Path 7513" d="M1514.806,950.138a9.763,9.763,0,0,1-3.181-.526c-6.773-2.324-9.715-11.7-6.559-20.9h0a21.281,21.281,0,0,1,7.437-10.437c3.445-2.466,7.2-3.187,10.571-2.03s5.891,4.03,7.1,8.092a21.279,21.279,0,0,1-.538,12.8C1526.959,944.933,1520.756,950.138,1514.806,950.138Zm-6.978-20.476c-2.634,7.676-.506,15.386,4.744,17.187a7.061,7.061,0,0,0,2.3.38c4.7,0,9.737-4.451,12-11.032a18.348,18.348,0,0,0,.5-11.026c-.929-3.131-2.792-5.32-5.245-6.161s-5.267-.258-7.923,1.642a18.347,18.347,0,0,0-6.375,9.01Z" transform="translate(-1503.799 -915.709)" fill="#0f227a"/>
          </g>
        </g>
      </g>
      <g id="Group_4318" data-name="Group 4318" transform="translate(80.765 1.893)">
        <g id="Group_4317" data-name="Group 4317">
          <g id="Group_4316" data-name="Group 4316">
            <path id="Path_7514" data-name="Path 7514" d="M2236.684,706.22c-.832,0-1.642.078-2.464.114-.1,1.022-.171,2.056-.171,3.1a32.573,32.573,0,0,0,16.07,27.758,36.988,36.988,0,0,0,35.632,1.31C2278.283,719.655,2259.161,706.22,2236.684,706.22Z" transform="translate(-2234.048 -706.22)" fill="#18dde6" fill-rule="evenodd"/>
          </g>
        </g>
      </g>
      <g id="Group_4321" data-name="Group 4321" transform="translate(80.765 1.893)" opacity="0.6" style="isolation: isolate">
        <g id="Group_4320" data-name="Group 4320">
          <g id="Group_4319" data-name="Group 4319">
            <path id="Path_7515" data-name="Path 7515" d="M2236.684,706.22c-.834,0-1.64.089-2.464.126-.1,1.019-.171,2.048-.171,3.092,0,.312.037.614.046.924a60.009,60.009,0,0,1,18.846,3.023,51.665,51.665,0,0,1,7.039,2.943c-.417.995,1.372,3.139,4.141,4.905,2.636,1.681,5.2,2.41,6.069,1.791a55.3,55.3,0,0,1,12.994,16.6c.864-.358,1.74-.7,2.567-1.118-.465-1.174-.964-2.327-1.518-3.457,0,0-.009-.007-.011-.011s-.006-.024-.011-.034a49.5,49.5,0,0,0-6.115-9.492c-.737-.9-1.516-1.783-2.316-2.635-.146-.155-.3-.3-.445-.456-.79-.821-1.6-1.626-2.441-2.4l-.023-.023c-.048-.043-.1-.082-.148-.125a52.107,52.107,0,0,0-4.814-3.81c-.427-.3-.839-.623-1.278-.913-.649-.431-1.326-.829-2-1.232-.6-.358-1.2-.714-1.814-1.05q-1.074-.59-2.179-1.129c-.637-.311-1.288-.6-1.939-.89s-1.327-.6-2.008-.867c-1.322-.518-2.664-.987-4.038-1.4-.5-.15-1-.263-1.506-.4-1.038-.282-2.085-.554-3.148-.776-.593-.124-1.192-.226-1.792-.331-1-.173-2-.326-3.012-.445-.55-.065-1.1-.134-1.654-.183C2239.944,706.309,2238.321,706.22,2236.684,706.22Z" transform="translate(-2234.048 -706.22)" fill="#fdfdfd" fill-rule="evenodd"/>
          </g>
        </g>
      </g>
      <g id="Group_4324" data-name="Group 4324" transform="translate(23.704 22.334)">
        <g id="Group_4323" data-name="Group 4323">
          <g id="Group_4322" data-name="Group 4322">
            <path id="Path_7516" data-name="Path 7516" d="M1509.35,991.552a4.593,4.593,0,0,1-2.5-.733c-3.374-2.148-4.094-8.672-1.638-14.851h0c1.608-4.045,4.194-6.986,6.919-7.867a4.768,4.768,0,0,1,4.154.461c3.375,2.148,4.094,8.672,1.638,14.851-1.607,4.045-4.193,6.986-6.919,7.867A5.37,5.37,0,0,1,1509.35,991.552Zm-1.422-14.506c-2.055,5.171-1.39,10.111.493,11.31a1.9,1.9,0,0,0,1.687.145c1.849-.6,3.853-3.019,5.1-6.167,2.055-5.171,1.39-10.11-.493-11.309a1.894,1.894,0,0,0-1.687-.145c-1.849.6-3.852,3.019-5.1,6.167Z" transform="translate(-1503.758 -967.829)" fill="#0f227a"/>
          </g>
        </g>
      </g>
      <g id="Group_4327" data-name="Group 4327" transform="translate(79.305 0.433)">
        <g id="Group_4326" data-name="Group 4326">
          <g id="Group_4325" data-name="Group 4325">
            <path id="Path_7517" data-name="Path 7517" d="M2251.876,726.686c-20.135,0-36.517-15.465-36.517-34.475,0-.988.057-2.02.178-3.247a1.461,1.461,0,0,1,1.389-1.315c.278-.012.554-.029.831-.047.546-.034,1.111-.069,1.7-.069a55.388,55.388,0,0,1,30.975,9.321,51.653,51.653,0,0,1,19.448,23.887,1.46,1.46,0,0,1-.7,1.839A38.311,38.311,0,0,1,2251.876,726.686Zm-33.536-36.193c-.041.613-.06,1.175-.06,1.718,0,17.4,15.072,31.554,33.6,31.554a35.5,35.5,0,0,0,14.769-3.2c-7.773-18.066-26.558-30.11-47.191-30.11C2219.086,690.454,2218.718,690.471,2218.34,690.493Z" transform="translate(-2215.359 -687.534)" fill="#0f227a"/>
          </g>
        </g>
      </g>
      <g id="Group_4334" data-name="Group 4334" transform="translate(78.543 38.13)">
        <g id="Group_4330" data-name="Group 4330">
          <g id="Group_4329" data-name="Group 4329">
            <g id="Group_4328" data-name="Group 4328">
              <path id="Path_7518" data-name="Path 7518" d="M2206.073,1175.09c1.129-3.487,3.945-5.7,6.29-4.94s3.329,4.2,2.2,7.69-3.946,5.7-6.291,4.94S2204.943,1178.577,2206.073,1175.09Z" transform="translate(-2205.604 -1170)" fill="#0f227a" fill-rule="evenodd"/>
            </g>
          </g>
        </g>
        <g id="Group_4333" data-name="Group 4333" transform="translate(4.323 2.994)">
          <g id="Group_4332" data-name="Group 4332">
            <g id="Group_4331" data-name="Group 4331">
              <path id="Path_7519" data-name="Path 7519" d="M2261.078,1209.97c.366-1.13,1.278-1.846,2.037-1.6s1.078,1.361.712,2.49-1.278,1.846-2.037,1.6S2260.713,1211.1,2261.078,1209.97Z" transform="translate(-2260.927 -1208.322)" fill="#fdfefd" fill-rule="evenodd"/>
            </g>
          </g>
        </g>
      </g>
      <g id="Group_4348" data-name="Group 4348" transform="translate(78.339 53.409)">
        <g id="Group_4337" data-name="Group 4337" transform="translate(1.46 1.457)">
          <g id="Group_4336" data-name="Group 4336">
            <g id="Group_4335" data-name="Group 4335">
              <path id="Path_7520" data-name="Path 7520" d="M2225.921,1384.5c3.462-1.7,17.792,3.689,18.856,7.776s-6.766,13.41-17.028,9.512C2218.75,1398.371,2221.194,1386.817,2225.921,1384.5Z" transform="translate(-2221.685 -1384.18)" fill="#0f227a" fill-rule="evenodd"/>
            </g>
          </g>
        </g>
        <g id="Group_4344" data-name="Group 4344" transform="translate(1.26 5.967)">
          <g id="Group_4340" data-name="Group 4340" transform="translate(0.2 0.195)">
            <g id="Group_4339" data-name="Group 4339">
              <g id="Group_4338" data-name="Group 4338">
                <path id="Path_7521" data-name="Path 7521" d="M2223.749,1444.409a9.965,9.965,0,0,0-1.346.148c-1.589,4.386-.832,10.439,5.293,12.766a13.253,13.253,0,0,0,7,.741,13.405,13.405,0,0,0,.125-1.357C2234.825,1449.914,2229.867,1444.409,2223.749,1444.409Z" transform="translate(-2221.685 -1444.409)" fill="#d7557a" fill-rule="evenodd"/>
              </g>
            </g>
          </g>
          <g id="Group_4343" data-name="Group 4343">
            <g id="Group_4342" data-name="Group 4342">
              <g id="Group_4341" data-name="Group 4341">
                <path id="Path_7522" data-name="Path 7522" d="M2230.2,1456.136a13.839,13.839,0,0,1-4.934-.934c-6.114-2.323-7.089-8.375-5.408-13.015l.04-.111.118-.016.316-.046a7.063,7.063,0,0,1,1.056-.1c6.215,0,11.272,5.6,11.272,12.493a7.791,7.791,0,0,1-.079.973c-.017.134-.033.268-.047.4l-.015.148-.147.025A12.981,12.981,0,0,1,2230.2,1456.136Zm-10.013-13.706c-1.563,4.451-.6,10.2,5.218,12.406a13.1,13.1,0,0,0,6.757.756c.01-.088.021-.176.032-.264a7.43,7.43,0,0,0,.076-.925c0-6.674-4.882-12.1-10.882-12.1a6.59,6.59,0,0,0-1,.1Z" transform="translate(-2219.13 -1441.909)" fill="#0f227a"/>
              </g>
            </g>
          </g>
        </g>
        <g id="Group_4347" data-name="Group 4347">
          <g id="Group_4346" data-name="Group 4346">
            <g id="Group_4345" data-name="Group 4345">
              <path id="Path_7523" data-name="Path 7523" d="M2215.41,1386.977a15.2,15.2,0,0,1-5.4-1.01,10.423,10.423,0,0,1-6.993-9.6c-.2-4.4,1.963-8.856,5.04-10.363h0c3.058-1.5,10.08.959,13.367,2.467,3.065,1.407,6.863,3.633,7.544,6.252.638,2.448-.9,5.855-3.824,8.479A14.479,14.479,0,0,1,2215.41,1386.977Zm-6.073-18.352c-2.027.993-3.555,4.405-3.407,7.606a7.54,7.54,0,0,0,5.113,7.006,11.574,11.574,0,0,0,12.148-2.21c2.232-2,3.251-4.4,2.948-5.569-.229-.88-2.184-2.612-5.936-4.333-4.858-2.23-9.625-3.107-10.865-2.5Z" transform="translate(-2202.999 -1365.536)" fill="#0f227a"/>
            </g>
          </g>
        </g>
      </g>
      <g id="Group_4351" data-name="Group 4351" transform="translate(39.716 38.774)">
        <g id="Group_4350" data-name="Group 4350">
          <g id="Group_4349" data-name="Group 4349">
            <path id="Path_7524" data-name="Path 7524" d="M1738.1,1202.687h-.03c-.412-.009-10.135-.232-14.578-2.345-8.4-3.993-14.461-19.461-14.715-20.117a1.46,1.46,0,1,1,2.723-1.054c.058.15,5.9,15.04,13.246,18.534,3.878,1.844,13.29,2.06,13.384,2.062a1.46,1.46,0,0,1-.03,2.92Z" transform="translate(-1708.682 -1178.238)" fill="#0f227a"/>
          </g>
        </g>
      </g>
      <g id="Group_4358" data-name="Group 4358" transform="translate(63.988 56.912)">
        <g id="Group_4354" data-name="Group 4354" transform="translate(0.195 0.195)">
          <g id="Group_4353" data-name="Group 4353">
            <g id="Group_4352" data-name="Group 4352">
              <path id="Path_7525" data-name="Path 7525" d="M2027.1,1412.892l7.112.811a4.734,4.734,0,0,1,4.168,5.241h0a4.734,4.734,0,0,1-5.241,4.168l-7.111-.81a4.736,4.736,0,0,1-4.168-5.241h0A4.735,4.735,0,0,1,2027.1,1412.892Z" transform="translate(-2021.824 -1412.861)" fill="#ecb35b" fill-rule="evenodd"/>
            </g>
          </g>
        </g>
        <g id="Group_4357" data-name="Group 4357">
          <g id="Group_4356" data-name="Group 4356">
            <g id="Group_4355" data-name="Group 4355">
              <path id="Path_7526" data-name="Path 7526" d="M2031.378,1421.041a5.033,5.033,0,0,1-.568-.032l-7.111-.81a4.931,4.931,0,0,1,1.117-9.8l7.112.811a4.931,4.931,0,0,1-.549,9.829Zm-7.125-10.282a4.54,4.54,0,0,0-.511,9.05l7.111.81a4.539,4.539,0,1,0,1.029-9.02l-7.112-.811A4.545,4.545,0,0,0,2024.254,1410.759Z" transform="translate(-2019.327 -1410.369)" fill="#0f227a"/>
            </g>
          </g>
        </g>
      </g>
      <g id="Group_4361" data-name="Group 4361" transform="translate(64.183 57.106)">
        <g id="Group_4360" data-name="Group 4360">
          <g id="Group_4359" data-name="Group 4359">
            <path id="Path_7527" data-name="Path 7527" d="M2027.1,1412.892l7.112.811a4.734,4.734,0,0,1,4.168,5.241h0a4.734,4.734,0,0,1-5.241,4.168l-7.111-.81a4.736,4.736,0,0,1-4.168-5.241h0A4.735,4.735,0,0,1,2027.1,1412.892Z" transform="translate(-2021.824 -1412.861)" fill="#18dde6" fill-rule="evenodd"/>
          </g>
        </g>
      </g>
      <g id="Group_4364" data-name="Group 4364" transform="translate(64.39 57.106)" opacity="0.6" style="isolation: isolate">
        <g id="Group_4363" data-name="Group 4363">
          <g id="Group_4362" data-name="Group 4362">
            <path id="Path_7528" data-name="Path 7528" d="M2028.76,1412.879a4.727,4.727,0,0,0-4.278,4.175c-.016.143,0,.281,0,.422a4.676,4.676,0,0,1,4.278-1.94l7.107.81a4.718,4.718,0,0,1,4.164,4.826,4.606,4.606,0,0,0,.97-2.236,4.728,4.728,0,0,0-4.164-5.236l-7.119-.81A4.755,4.755,0,0,0,2028.76,1412.879Z" transform="translate(-2024.475 -1412.86)" fill="#fdfdfd" fill-rule="evenodd"/>
          </g>
        </g>
      </g>
      <g id="Group_4367" data-name="Group 4367" transform="translate(64.041 58.812)" opacity="0.2" style="isolation: isolate">
        <g id="Group_4366" data-name="Group 4366">
          <g id="Group_4365" data-name="Group 4365">
            <path id="Path_7529" data-name="Path 7529" d="M2021.206,1434.692a4.6,4.6,0,0,0-1.175,2.487,4.738,4.738,0,0,0,4.164,5.248l7.107.81a4.747,4.747,0,0,0,5.248-4.175,4.618,4.618,0,0,0-.32-2.179,4.327,4.327,0,0,1-4.6,3.057l-6.594-.753A4.354,4.354,0,0,1,2021.206,1434.692Z" transform="translate(-2020 -1434.692)" fill="#0f227a" fill-rule="evenodd"/>
          </g>
        </g>
      </g>
      <g id="Group_4370" data-name="Group 4370" transform="translate(62.723 55.646)">
        <g id="Group_4369" data-name="Group 4369">
          <g id="Group_4368" data-name="Group 4368">
            <path id="Path_7530" data-name="Path 7530" d="M2016.455,1407.37a6.4,6.4,0,0,1-.714-.041l-7.111-.81a6.2,6.2,0,1,1,1.4-12.311h0l7.112.811a6.2,6.2,0,0,1-.69,12.351Zm-7.126-10.282a3.275,3.275,0,0,0-.368,6.529l7.111.811a3.275,3.275,0,0,0,.742-6.507l-7.112-.811A3.263,3.263,0,0,0,2009.329,1397.089Z" transform="translate(-2003.136 -1394.168)" fill="#0f227a"/>
          </g>
        </g>
      </g>
      <g id="Group_4373" data-name="Group 4373" transform="translate(88.242 94.56)" opacity="0.2" style="isolation: isolate">
        <g id="Group_4372" data-name="Group 4372">
          <g id="Group_4371" data-name="Group 4371">
            <path id="Path_7531" data-name="Path 7531" d="M2387.5,1892.208c-.893.719-28.88,24.432-52,23.477l-5.755,8.146C2357.858,1922.72,2380.4,1906.254,2387.5,1892.208Z" transform="translate(-2329.737 -1892.208)" fill="#0f227a" fill-rule="evenodd"/>
          </g>
        </g>
      </g>
      <g id="Group_4376" data-name="Group 4376" transform="translate(6.391 116.071)">
        <g id="Group_4375" data-name="Group 4375">
          <g id="Group_4374" data-name="Group 4374">
            <path id="Path_7532" data-name="Path 7532" d="M1295.327,2167.528s-8.871-.822-12.163,7.662a12,12,0,0,0,2.765,13.555s-7.131,18.808,3.714,23.849,37.6-28.188,24.559-39.883" transform="translate(-1282.184 -2167.506)" fill="#e8c49c" fill-rule="evenodd"/>
          </g>
        </g>
      </g>
      <g id="Group_4383" data-name="Group 4383" transform="translate(7.633 122.727)" opacity="0.2" style="isolation: isolate">
        <g id="Group_4379" data-name="Group 4379" transform="translate(0.175 0.934)">
          <g id="Group_4378" data-name="Group 4378">
            <g id="Group_4377" data-name="Group 4377">
              <path id="Path_7533" data-name="Path 7533" d="M1332.886,2264.641c.8,5.791-12.7,30.376-22.976,28.988-11.584-1.565-2.35-24.288-2.35-24.288l-4.986,9.218c-.291.784-6.822,18.649,3.787,23.581C1316.542,2306.872,1340.741,2277.887,1332.886,2264.641Z" transform="translate(-1300.32 -2264.641)" fill="#1d386a" fill-rule="evenodd"/>
            </g>
          </g>
        </g>
        <g id="Group_4382" data-name="Group 4382">
          <g id="Group_4381" data-name="Group 4381">
            <g id="Group_4380" data-name="Group 4380">
              <path id="Path_7534" data-name="Path 7534" d="M1306.73,2291.815a5.906,5.906,0,0,1-2.514-.52c-10.738-4.991-4.173-23.059-3.888-23.825l5-9.243.353.167c-.06.147-5.943,14.806-2.251,21.176a5.742,5.742,0,0,0,4.446,2.845c2.889.388,6.361-1.355,10.039-5.046,6.97-6.994,13.275-19.7,12.717-23.721l-.133-.961.495.834c4.622,7.794-1.557,20.5-9.254,29.01C1316.394,2288.437,1310.826,2291.815,1306.73,2291.815Zm-2.346-31.028-3.7,6.844c-.268.728-6.716,18.469,3.7,23.311a5.588,5.588,0,0,0,2.376.49c3.967,0,9.421-3.337,14.691-9.162,7.59-8.391,13.156-20.451,9.6-27.823-.243,4.813-6.249,16.57-12.855,23.2-3.768,3.781-7.354,5.565-10.369,5.158a6.113,6.113,0,0,1-4.732-3.037C1300.215,2274.806,1302.842,2265.333,1304.385,2260.787Z" transform="translate(-1298.082 -2252.686)" fill="#0f227a"/>
            </g>
          </g>
        </g>
      </g>
      <g id="Group_4386" data-name="Group 4386" transform="translate(8.276 128.577)" opacity="0.2" style="isolation: isolate">
        <g id="Group_4385" data-name="Group 4385">
          <g id="Group_4384" data-name="Group 4384">
            <path id="Path_7535" data-name="Path 7535" d="M1340.809,2327.565c-1.6,6.633-1.6,8.99-5.941,16.115-7.807,12.808-19.211,8.855-22.442,3.5l.73,12.389a57.96,57.96,0,0,0-6.845,8.271,2.659,2.659,0,0,1,.582-.057C1335.911,2370.3,1340.809,2327.565,1340.809,2327.565Z" transform="translate(-1306.311 -2327.565)" fill="#0f227a" fill-rule="evenodd"/>
          </g>
        </g>
      </g>
      <g id="Group_4389" data-name="Group 4389" transform="translate(6.539 120.736)" opacity="0.2" style="isolation: isolate">
        <g id="Group_4388" data-name="Group 4388">
          <g id="Group_4387" data-name="Group 4387">
            <path id="Path_7536" data-name="Path 7536" d="M1286.914,2227.208s-1.958,7.373,6.2,6.981c0,0-5.742,8.025-6.525,12.788l-.261-4.828S1280.911,2235.234,1286.914,2227.208Z" transform="translate(-1284.085 -2227.208)" fill="#0f227a" fill-rule="evenodd"/>
          </g>
        </g>
      </g>
      <g id="Group_4392" data-name="Group 4392" transform="translate(4.944 114.611)">
        <g id="Group_4391" data-name="Group 4391">
          <g id="Group_4390" data-name="Group 4390">
            <path id="Path_7537" data-name="Path 7537" d="M1278.124,2151.758c-.07-.005-.233-.013-.359-.014s-.273,0-.411,0c-.277.006-.558.025-.838.051a12.686,12.686,0,0,0-1.665.272,11.022,11.022,0,0,0-3.085,1.211,9.974,9.974,0,0,0-4.189,4.93,11.74,11.74,0,0,0-.83,6.547,10.223,10.223,0,0,0,1.1,3.094,11.266,11.266,0,0,0,.9,1.392c.173.214.341.433.526.63.089.1.182.2.274.292.047.048.092.094.136.133l.109.1.046.042a1.486,1.486,0,0,1,.382,1.594c-.263.721-.52,1.535-.744,2.32s-.43,1.594-.609,2.4a36.155,36.155,0,0,0-.761,4.853,23.175,23.175,0,0,0,.076,4.792,12.12,12.12,0,0,0,1.371,4.314,7.836,7.836,0,0,0,3.033,3.012l.484.258a1.22,1.22,0,0,0,.228.105l.214.087c.146.052.3.086.449.133.16.023.314.061.476.079a6.534,6.534,0,0,0,2.072-.131,14.2,14.2,0,0,0,4.257-1.789,29.648,29.648,0,0,0,3.93-2.866,48.115,48.115,0,0,0,6.717-7.254,52.27,52.27,0,0,0,5.209-8.405,33.331,33.331,0,0,0,1.84-4.54,23.979,23.979,0,0,0,.641-2.34,23.594,23.594,0,0,0,.374-2.375,13.006,13.006,0,0,0-.362-4.7,10.052,10.052,0,0,0-2.312-4.141l-.007-.008a.489.489,0,0,1,.657-.717,10.311,10.311,0,0,1,3.307,4.284,12.641,12.641,0,0,1,.77,2.649,16.687,16.687,0,0,1,.227,2.731,22.46,22.46,0,0,1-.719,5.349,34.129,34.129,0,0,1-1.75,5.035,44.459,44.459,0,0,1-5.406,9.053,47.8,47.8,0,0,1-7.26,7.651,32.591,32.591,0,0,1-4.36,3.119,17.581,17.581,0,0,1-5.153,2.121,9.426,9.426,0,0,1-3.014.173c-.261-.03-.524-.086-.785-.132-.26-.073-.522-.138-.777-.229l-.38-.152a2.54,2.54,0,0,1-.353-.162l-.646-.342a10.782,10.782,0,0,1-4.136-4.107,15.01,15.01,0,0,1-1.731-5.373,26.05,26.05,0,0,1-.093-5.423,39.072,39.072,0,0,1,.822-5.252q.288-1.291.651-2.562c.246-.856.5-1.671.821-2.552l.428,1.637c-.1-.088-.167-.15-.238-.216s-.138-.132-.2-.2c-.128-.13-.256-.26-.371-.394-.243-.262-.46-.539-.68-.815a14.188,14.188,0,0,1-1.144-1.767,13.149,13.149,0,0,1-1.415-3.97c-.074-.345-.093-.7-.14-1.05-.018-.176-.044-.351-.054-.527l-.006-.528c0-.352-.023-.707.012-1.055l.106-1.045a7.81,7.81,0,0,1,.183-1.027c.077-.338.137-.682.23-1.014l.322-.979a9.441,9.441,0,0,1,.354-.97,13.563,13.563,0,0,1,2.164-3.595,12.433,12.433,0,0,1,3.245-2.732,13.946,13.946,0,0,1,3.9-1.535,15.6,15.6,0,0,1,2.05-.334c.345-.033.691-.056,1.042-.064.175,0,.351-.006.53,0s.339.007.582.026a1.46,1.46,0,1,1-.231,2.911Z" transform="translate(-1263.669 -2148.822)" fill="#0f227a"/>
          </g>
        </g>
      </g>
      <g id="Group_4395" data-name="Group 4395" transform="translate(7.774 132.457)">
        <g id="Group_4394" data-name="Group 4394">
          <g id="Group_4393" data-name="Group 4393">
            <path id="Path_7538" data-name="Path 7538" d="M1306.977,2377.241a19.892,19.892,0,0,0-2.669.262,13.956,13.956,0,0,0-3.354,3.183,12.091,12.091,0,0,0,1.232,1.38s-7.126,18.813,3.719,23.854c6.094,2.833,17.209-6.423,23.467-17.146C1322.663,2377.992,1311.931,2377.04,1306.977,2377.241Z" transform="translate(-1299.888 -2377.219)" fill="#18dde6" fill-rule="evenodd"/>
          </g>
        </g>
      </g>
      <g id="Group_4398" data-name="Group 4398" transform="translate(7.774 132.728)" opacity="0.2" style="isolation: isolate">
        <g id="Group_4397" data-name="Group 4397">
          <g id="Group_4396" data-name="Group 4396">
            <path id="Path_7539" data-name="Path 7539" d="M1305.684,2380.687c-.323.039-.761.07-.89.091l-2.647,4.883a40.03,40.03,0,0,0-2.2,10.244c-.343,5.181.684,10.87,5.989,13.336a5.3,5.3,0,0,0,.867.308c.043.012.082.035.125.045.007,0,.016,0,.023,0,.182.043.37.065.559.091s.406.05.616.057a8.3,8.3,0,0,0,1.917-.182c.229-.046.461-.107.7-.171.309-.083.629-.208.947-.319a17.007,17.007,0,0,0,2.384-1.061c.152-.082.3-.164.456-.251a27.442,27.442,0,0,0,3.023-2,48.606,48.606,0,0,0,11.785-13.667,24.871,24.871,0,0,0-3.479-4.346c-4.647,7.177-10.934,13.717-16.371,12.982C1301.054,2399.592,1303.646,2387.324,1305.684,2380.687Z" transform="translate(-1299.886 -2380.687)" fill="#0f227a" fill-rule="evenodd"/>
          </g>
        </g>
      </g>
      <g id="Group_4401" data-name="Group 4401" transform="translate(11.745 132.834)" opacity="0.6" style="isolation: isolate">
        <g id="Group_4400" data-name="Group 4400">
          <g id="Group_4399" data-name="Group 4399">
            <path id="Path_7540" data-name="Path 7540" d="M1350.7,2383.135s13.41.257,19.771,7.3c2.47,2.734,2.991,5.661,1.84,8.389l3.793-4.987S1365.993,2377.788,1350.7,2383.135Z" transform="translate(-1350.701 -2382.044)" fill="#fdfdfd" fill-rule="evenodd"/>
          </g>
        </g>
      </g>
      <g id="Group_4404" data-name="Group 4404" transform="translate(8.706 125.449)">
        <g id="Group_4403" data-name="Group 4403">
          <g id="Group_4402" data-name="Group 4402">
            <path id="Path_7541" data-name="Path 7541" d="M1311.868,2298.877a12.269,12.269,0,0,1,.623-1.727q.175-.417.381-.82c.131-.271.268-.54.418-.8a24.012,24.012,0,0,1,1.989-3.029,25.284,25.284,0,0,1,2.406-2.74,14.679,14.679,0,0,1,2.91-2.209.213.213,0,0,1,.28.306l0,.006c-.666.98-1.259,1.957-1.808,2.958s-1.047,2.026-1.536,3.05-.922,2.077-1.414,3.1-.977,2.061-1.536,3l-.026.043a1.47,1.47,0,0,1-2.682-1.137Z" transform="translate(-1311.817 -2287.525)" fill="#0f227a"/>
          </g>
        </g>
      </g>
      <g id="Group_4407" data-name="Group 4407" transform="translate(6.296 130.998)">
        <g id="Group_4406" data-name="Group 4406">
          <g id="Group_4405" data-name="Group 4405">
            <path id="Path_7542" data-name="Path 7542" d="M1290.9,2390.67a7.148,7.148,0,0,1-3.047-.642c-10.64-4.947-6.111-20.835-4.78-24.813-.208-.232-.451-.517-.709-.85a1.461,1.461,0,0,1,0-1.787,15.428,15.428,0,0,1,3.709-3.512,1.458,1.458,0,0,1,.526-.213,21.221,21.221,0,0,1,2.886-.288c4.715-.194,16.472.615,23.693,12.221a1.46,1.46,0,0,1,.021,1.507C1307.523,2382.012,1297.944,2390.67,1290.9,2390.67Zm-5.474-27.21c.191.2.31.314.313.316a1.466,1.466,0,0,1,.376,1.592c-.066.175-6.517,17.6,2.969,22.013,4.707,2.189,14.816-5.427,21.133-15.792-6.191-9.248-15.526-10.312-20.617-10.1h0a21.229,21.229,0,0,0-2.176.193A11.954,11.954,0,0,0,1285.424,2363.46Zm4.115-3.436h0Z" transform="translate(-1280.971 -2358.543)" fill="#0f227a"/>
          </g>
        </g>
      </g>
      <g id="Group_4410" data-name="Group 4410" transform="translate(10.112 91.249)">
        <g id="Group_4409" data-name="Group 4409">
          <g id="Group_4408" data-name="Group 4408">
            <path id="Path_7543" data-name="Path 7543" d="M1354.764,1866.584a9.079,9.079,0,0,0,1.041-12.567c-6.451-8.946-26.046-2.645-26,10.141.047,13,14.018,11.473,15.511,11.533C1348.056,1875.8,1354.592,1873.695,1354.764,1866.584Z" transform="translate(-1329.806 -1849.825)" fill="#fff" fill-rule="evenodd"/>
          </g>
        </g>
      </g>
      <g id="Group_4413" data-name="Group 4413" transform="translate(23.954 98.967)">
        <g id="Group_4412" data-name="Group 4412">
          <g id="Group_4411" data-name="Group 4411">
            <path id="Path_7544" data-name="Path 7544" d="M1516.613,1957.6l-.105-.819c-.035-.29-.092-.577-.137-.863a12.868,12.868,0,0,0-.422-1.641,5.671,5.671,0,0,0-1.673-2.61,5.5,5.5,0,0,0-1.407-.821,8.506,8.506,0,0,0-1.744-.436,18.081,18.081,0,0,0-3.937-.051h0a.213.213,0,0,1-.11-.4,12.131,12.131,0,0,1,4.053-1.288,8.91,8.91,0,0,1,1.121-.064,7.577,7.577,0,0,1,1.156.079,7.064,7.064,0,0,1,2.3.771,6.916,6.916,0,0,1,1.945,1.586,7.707,7.707,0,0,1,1.258,2.107,9.306,9.306,0,0,1,.6,2.275,9.867,9.867,0,0,1,.088,1.151c0,.193,0,.386-.012.58s-.026.369-.06.627a1.459,1.459,0,0,1-2.892-.006Z" transform="translate(-1506.958 -1948.608)" fill="#0f227a"/>
          </g>
        </g>
      </g>
      <g id="Group_4416" data-name="Group 4416" transform="translate(8.652 89.774)">
        <g id="Group_4415" data-name="Group 4415">
          <g id="Group_4414" data-name="Group 4414">
            <path id="Path_7545" data-name="Path 7545" d="M1326.3,1859.774c-2.842,0-8.16-.379-11.708-3.818-2.289-2.219-3.457-5.314-3.471-9.2-.024-6.592,4.748-12.406,12.157-14.814,6.76-2.2,13.231-.7,16.486,3.814,4.466,6.194,1.654,11.668-.8,14.091a10.2,10.2,0,0,1-3.171,6.83,11.508,11.508,0,0,1-7.762,3.066c-.1,0-.27,0-.5.009C1327.213,1859.763,1326.792,1859.774,1326.3,1859.774Zm3.027-25.911a16.719,16.719,0,0,0-5.146.858c-4.692,1.525-10.163,5.59-10.139,12.026.011,3.068.88,5.461,2.583,7.112,3.283,3.183,8.966,3.028,10.834,2.975.316-.008.552-.013.693-.007a8.649,8.649,0,0,0,5.647-2.279,7.353,7.353,0,0,0,2.28-5.4,1.461,1.461,0,0,1,.512-1.076c.537-.463,5.085-4.666.8-10.6C1335.7,1835.115,1332.762,1833.863,1329.323,1833.863Z" transform="translate(-1311.117 -1830.945)" fill="#0f227a"/>
          </g>
        </g>
      </g>
      <g id="Group_4419" data-name="Group 4419" transform="translate(10.196 95.528)" opacity="0.2" style="isolation: isolate">
        <g id="Group_4418" data-name="Group 4418">
          <g id="Group_4417" data-name="Group 4417">
            <path id="Path_7546" data-name="Path 7546" d="M1356.972,1904.589s.971,6.674-4.21,4.8c0,0,.064,11.734-9.583,11.659-8.151-.063-11.431-4.358-12.3-5.75.712,11.974,13.991,10.563,15.447,10.621,2.738.109,9.275-1.993,9.446-9.1a9.079,9.079,0,0,0,1.278-12.207Z" transform="translate(-1330.882 -1904.589)" fill="#0f227a" fill-rule="evenodd"/>
          </g>
        </g>
      </g>
      <g id="Group_4426" data-name="Group 4426" transform="translate(80.718 0)" opacity="0.2" style="isolation: isolate">
        <g id="Group_4422" data-name="Group 4422" transform="translate(0.196 1.893)">
          <g id="Group_4421" data-name="Group 4421">
            <g id="Group_4420" data-name="Group 4420">
              <path id="Path_7547" data-name="Path 7547" d="M2235.98,706.22s7.3,42.7,50.612,29.538l.711,2.682s-6.92,4.872-17.757,4.012C2254.813,741.283,2235.036,731.8,2235.98,706.22Z" transform="translate(-2235.948 -706.22)" fill="#1d386a" fill-rule="evenodd"/>
            </g>
          </g>
        </g>
        <g id="Group_4425" data-name="Group 4425">
          <g id="Group_4424" data-name="Group 4424">
            <g id="Group_4423" data-name="Group 4423">
              <path id="Path_7548" data-name="Path 7548" d="M2269.763,720.417c-.823,0-1.67-.032-2.544-.1a40.5,40.5,0,0,1-22.775-9.01c-7.709-6.606-11.4-15.833-10.972-27.424l.069-1.886.318,1.86c.031.183,3.3,18.44,17.494,27.2,8.763,5.412,19.823,6.145,32.869,2.18l.194-.059.8,3.009-.111.079A28.769,28.769,0,0,1,2269.763,720.417Zm-35.932-34.882c-.051,23.383,17.811,33.153,33.419,34.392a29.2,29.2,0,0,0,17.516-3.9l-.623-2.351c-13.076,3.935-24.177,3.166-33-2.282C2239.3,704.077,2234.992,690.241,2233.831,685.535Z" transform="translate(-2233.44 -681.997)" fill="#0f227a"/>
            </g>
          </g>
        </g>
      </g>
      <g id="Group_4433" data-name="Group 4433" transform="translate(29.123 200.46)" opacity="0.6" style="isolation: isolate">
        <g id="Group_4429" data-name="Group 4429">
          <g id="Group_4428" data-name="Group 4428">
            <g id="Group_4427" data-name="Group 4427">
              <path id="Path_7549" data-name="Path 7549" d="M1573.117,3247.546" transform="translate(-1573.117 -3247.546)" fill="#fdfdfd" fill-rule="evenodd"/>
            </g>
          </g>
        </g>
        <g id="Group_4432" data-name="Group 4432">
          <g id="Group_4431" data-name="Group 4431">
            <g id="Group_4430" data-name="Group 4430">
              <path id="Path_7550" data-name="Path 7550" d="M1573.117,3247.546" transform="translate(-1573.117 -3247.546)" fill="none" stroke="#0f227a" stroke-miterlimit="10" stroke-width="5"/>
            </g>
          </g>
        </g>
      </g>
      <g id="Group_4440" data-name="Group 4440" transform="translate(105.89 47.507)">
        <g id="Group_4436" data-name="Group 4436">
          <g id="Group_4435" data-name="Group 4435">
            <g id="Group_4434" data-name="Group 4434">
              <path id="Path_7551" data-name="Path 7551" d="M2556.073,1295.089c1.129-3.487,3.945-5.7,6.29-4.94s3.33,4.2,2.2,7.69-3.946,5.7-6.29,4.94S2554.943,1298.577,2556.073,1295.089Z" transform="translate(-2555.605 -1290)" fill="#0f227a" fill-rule="evenodd"/>
            </g>
          </g>
        </g>
        <g id="Group_4439" data-name="Group 4439" transform="translate(4.323 2.994)">
          <g id="Group_4438" data-name="Group 4438">
            <g id="Group_4437" data-name="Group 4437">
              <path id="Path_7552" data-name="Path 7552" d="M2611.079,1329.97c.366-1.13,1.278-1.846,2.037-1.6s1.079,1.361.713,2.49-1.278,1.846-2.037,1.6S2610.713,1331.1,2611.079,1329.97Z" transform="translate(-2610.927 -1328.322)" fill="#fdfefd" fill-rule="evenodd"/>
            </g>
          </g>
        </g>
      </g>
      <g id="Group_4443" data-name="Group 4443" transform="translate(113.954 89.607)">
        <g id="Group_4442" data-name="Group 4442">
          <g id="Group_4441" data-name="Group 4441">
            <path id="Path_7553" data-name="Path 7553" d="M2676.974,1848.306a17.316,17.316,0,0,1-11.7-3.979c-6.061-5.231-6.451-13.638-6.465-13.994a1.46,1.46,0,0,1,2.918-.114c0,.1.38,7.533,5.472,11.911,3.054,2.626,7.242,3.671,12.445,3.1a1.46,1.46,0,1,1,.316,2.9A27.587,27.587,0,0,1,2676.974,1848.306Z" transform="translate(-2658.812 -1828.818)" fill="#0f227a"/>
          </g>
        </g>
      </g>
    </g>
  </g>
</svg>
