<svg xmlns="http://www.w3.org/2000/svg" width="197.151" height="196.793" viewBox="0 0 197.151 196.793">
  <g id="Group_5414" data-name="Group 5414" transform="translate(-96.67 -120.125)">
    <g id="Group_4470" data-name="Group 4470" transform="translate(-707.169 -595.338)">
      <g id="Group_4105" data-name="Group 4105" transform="translate(803.839 732.755)">
        <g id="Group_4104" data-name="Group 4104" transform="translate(0 0)">
          <g id="Group_4103" data-name="Group 4103">
            <path id="Path_7446" data-name="Path 7446" d="M967.817,1317.993a85.959,85.959,0,1,1,85.958,85.958A85.959,85.959,0,0,1,967.817,1317.993Z" transform="translate(-967.817 -1232.034)" fill="#3169b3" fill-rule="evenodd"/>
          </g>
        </g>
      </g>
      <g id="Group_4447" data-name="Group 4447" transform="translate(841.649 880.82)">
        <g id="Group_4446" data-name="Group 4446" transform="translate(0 0)">
          <g id="Group_4445" data-name="Group 4445">
            <path id="Path_7554" data-name="Path 7554" d="M1221.434,3077.866l-28.118,28.5,25.561-30.811a1.726,1.726,0,1,1,2.657,2.2C1221.5,3077.793,1221.468,3077.832,1221.434,3077.866Z" transform="translate(-1193.316 -3074.927)" fill="#0f227a"/>
          </g>
        </g>
      </g>
      <g id="Group_4450" data-name="Group 4450" transform="translate(804.169 847.525)">
        <g id="Group_4449" data-name="Group 4449" transform="translate(0)">
          <g id="Group_4448" data-name="Group 4448">
            <path id="Path_7555" data-name="Path 7555" d="M840.917,2716.982l-53.748,61.875,51.1-64.081a1.725,1.725,0,0,1,2.7,2.151Z" transform="translate(-787.169 -2714.125)" fill="#0f227a"/>
          </g>
        </g>
      </g>
      <g id="Group_4453" data-name="Group 4453" transform="translate(807.323 813.122)">
        <g id="Group_4452" data-name="Group 4452" transform="translate(0)">
          <g id="Group_4451" data-name="Group 4451">
            <path id="Path_7556" data-name="Path 7556" d="M865.422,2344.261l-44.071,44.714,41.549-47.067a1.725,1.725,0,1,1,2.587,2.284C865.467,2344.214,865.442,2344.24,865.422,2344.261Z" transform="translate(-821.351 -2341.325)" fill="#0f227a"/>
          </g>
        </g>
      </g>
      <g id="Group_4456" data-name="Group 4456" transform="translate(913.952 824.213)">
        <g id="Group_4455" data-name="Group 4455">
          <g id="Group_4454" data-name="Group 4454">
            <path id="Path_7557" data-name="Path 7557" d="M2204.5,2225.965l-43.46,49.871,40.8-52.068a1.725,1.725,0,1,1,2.716,2.128C2204.541,2225.917,2204.519,2225.944,2204.5,2225.965Z" transform="translate(-2161.041 -2223.106)" fill="#124487"/>
          </g>
        </g>
      </g>
      <g id="Group_4459" data-name="Group 4459" transform="translate(923.631 826.843)">
        <g id="Group_4458" data-name="Group 4458" transform="translate(0 0)">
          <g id="Group_4457" data-name="Group 4457">
            <path id="Path_7558" data-name="Path 7558" d="M2286.447,2254.521l-20.522,21.7,17.884-23.921a1.728,1.728,0,0,1,2.767,2.069A1.817,1.817,0,0,1,2286.447,2254.521Z" transform="translate(-2265.925 -2251.606)" fill="#124487"/>
          </g>
        </g>
      </g>
      <g id="Group_4462" data-name="Group 4462" transform="translate(825.645 840.911)">
        <g id="Group_4461" data-name="Group 4461" transform="translate(0 0)">
          <g id="Group_4460" data-name="Group 4460">
            <path id="Path_7559" data-name="Path 7559" d="M1047.822,2645.368l-27.931,29.7,25.32-31.956a1.726,1.726,0,0,1,2.706,2.144C1047.887,2645.3,1047.854,2645.333,1047.822,2645.368Z" transform="translate(-1019.891 -2642.459)" fill="#0f227a"/>
          </g>
        </g>
      </g>
      <g id="Group_4465" data-name="Group 4465" transform="translate(848.65 882.932)">
        <g id="Group_4464" data-name="Group 4464" transform="translate(0 0)">
          <g id="Group_4463" data-name="Group 4463">
            <path id="Path_7560" data-name="Path 7560" d="M1279.584,3100.82l-10.4,9.745,7.757-11.958a1.737,1.737,0,1,1,2.915,1.891A1.837,1.837,0,0,1,1279.584,3100.82Z" transform="translate(-1269.182 -3097.814)" fill="#0f227a"/>
          </g>
        </g>
      </g>
      <g id="Group_4468" data-name="Group 4468" transform="translate(832.759 799.319)">
        <g id="Group_4467" data-name="Group 4467" transform="translate(0 0)">
          <g id="Group_4466" data-name="Group 4466">
            <path id="Path_7561" data-name="Path 7561" d="M1119.7,2194.755l-22.718,20.743,20.253-23.156a1.727,1.727,0,0,1,2.6,2.274A1.77,1.77,0,0,1,1119.7,2194.755Z" transform="translate(-1096.981 -2191.752)" fill="#0f227a"/>
          </g>
        </g>
      </g>
    </g>
    <g id="Group_5404" data-name="Group 5404" transform="translate(-7.451 -14.482)">
      <g id="Padlock" transform="translate(119.121 145.448)">
        <g id="Group_4786" data-name="Group 4786" transform="translate(0)">
          <g id="Group_4782" data-name="Group 4782" transform="translate(6.527)">
            <g id="Group_4773" data-name="Group 4773">
              <g id="Group_4766" data-name="Group 4766">
                <path id="Path_7723" data-name="Path 7723" d="M62.589,73.063A14.761,14.761,0,0,0,54.531,92.3l9.15,22.347,4.106-1.681-9.15-22.347A10.308,10.308,0,0,1,77.715,82.8l4.106-1.681A14.761,14.761,0,0,0,62.589,73.063Z" transform="translate(-53.432 -71.964)" fill="#d4a776"/>
              </g>
              <g id="Group_4770" data-name="Group 4770" transform="translate(1.436 19.621)">
                <g id="Group_4769" data-name="Group 4769" transform="translate(0 0)">
                  <g id="Group_4768" data-name="Group 4768">
                    <rect id="Rectangle_246" data-name="Rectangle 246" width="39.74" height="25.496" rx="5.811" transform="translate(0 15.059) rotate(-22.268)" fill="#e8c49c"/>
                  </g>
                </g>
              </g>
              <g id="Group_4772" data-name="Group 4772" transform="translate(20.074 32.551)" opacity="0.5">
                <g id="Group_4771" data-name="Group 4771">
                  <path id="Path_7725" data-name="Path 7725" d="M108.971,153.716a3.322,3.322,0,1,0-2.707,4.546l1.882,4.6,1.677-.687-1.882-4.6A3.312,3.312,0,0,0,108.971,153.716Z" transform="translate(-102.574 -151.652)"/>
                </g>
              </g>
            </g>
            <g id="Group_4777" data-name="Group 4777" transform="translate(4.942 37.658)">
              <g id="Group_4776" data-name="Group 4776">
                <g id="Group_4775" data-name="Group 4775">
                  <g id="Group_4774" data-name="Group 4774">
                    <path id="Path_7726" data-name="Path 7726" d="M72.731,181.73c-.085.034-1.764-3.872-3.751-8.725s-3.53-8.816-3.446-8.851,1.764,3.872,3.752,8.726S72.815,181.7,72.731,181.73Z" transform="translate(-65.531 -164.153)" fill="#fafafa"/>
                  </g>
                </g>
              </g>
            </g>
            <g id="Group_4781" data-name="Group 4781" transform="translate(18.756 32.171)">
              <g id="Group_4780" data-name="Group 4780">
                <g id="Group_4779" data-name="Group 4779">
                  <g id="Group_4778" data-name="Group 4778">
                    <path id="Path_7727" data-name="Path 7727" d="M103.195,159.35a1.023,1.023,0,0,1-.444-.057,4.057,4.057,0,0,1-1.123-.483,4.655,4.655,0,0,1-1.116-7.091,4.061,4.061,0,0,1,.92-.8c.246-.151.4-.208.405-.191a10.47,10.47,0,0,0-1.144,1.143,4.6,4.6,0,0,0,1.062,6.748A10.339,10.339,0,0,0,103.195,159.35Z" transform="translate(-99.348 -150.721)" fill="#fafafa"/>
                  </g>
                </g>
              </g>
            </g>
          </g>
          <g id="Group_4783" data-name="Group 4783" transform="translate(4.816 53.461)">
            <path id="Path_7728" data-name="Path 7728" d="M43.038,180.869l.2-.579.381.48a2.566,2.566,0,0,0,1.177.833l.579.2-.48.38a2.568,2.568,0,0,0-.833,1.177l-.2.579-.38-.48a2.565,2.565,0,0,0-1.177-.833l-.579-.2.48-.38A2.566,2.566,0,0,0,43.038,180.869Z" transform="translate(-41.726 -180.29)" fill="#ff725e"/>
          </g>
          <g id="Group_4784" data-name="Group 4784" transform="translate(21.683 21.704)">
            <path id="Path_7729" data-name="Path 7729" d="M91.3,125.432l.115-.336.221.279a1.487,1.487,0,0,0,.683.484l.336.116-.279.221a1.489,1.489,0,0,0-.483.683l-.116.337-.221-.279a1.488,1.488,0,0,0-.684-.484l-.336-.116.279-.221A1.489,1.489,0,0,0,91.3,125.432Z" transform="translate(-90.534 -125.096)" fill="#ff725e"/>
          </g>
          <g id="Group_4785" data-name="Group 4785" transform="translate(0 33.116)">
            <path id="Path_7730" data-name="Path 7730" d="M32.141,131.457l.334-.973.639.806a4.311,4.311,0,0,0,1.978,1.4l.973.334-.806.639a4.31,4.31,0,0,0-1.4,1.978l-.334.973-.639-.806a4.307,4.307,0,0,0-1.978-1.4l-.973-.334.806-.639A4.308,4.308,0,0,0,32.141,131.457Z" transform="translate(-29.936 -130.484)" fill="#ff725e"/>
          </g>
        </g>
      </g>
      <g id="Device" transform="translate(157.461 134.607)">
        <g id="Group_4837" data-name="Group 4837" transform="translate(0)">
          <g id="Group_4806" data-name="Group 4806">
            <g id="Group_4792" data-name="Group 4792">
              <g id="Group_4791" data-name="Group 4791">
                <g id="Group_4788" data-name="Group 4788">
                  <g id="Group_4787" data-name="Group 4787">
                    <path id="Path_7731" data-name="Path 7731" d="M204.737,222.9l-60.3-.036a13.134,13.134,0,0,1-13.127-13.137l.029-151.168a13.135,13.135,0,0,1,13.143-13.132l60.3.036A13.135,13.135,0,0,1,217.909,58.6l-.029,151.168A13.135,13.135,0,0,1,204.737,222.9Z" transform="translate(-131.312 -45.426)" fill="#263238"/>
                  </g>
                </g>
                <g id="Group_4790" data-name="Group 4790" transform="translate(3.995 5.347)">
                  <g id="Group_4789" data-name="Group 4789">
                    <path id="Path_7732" data-name="Path 7732" d="M210.5,58.551l-11.691-.007a2.9,2.9,0,0,0-2.839,2.966v2.12a2.9,2.9,0,0,1-2.839,2.966l-22.788-.013a2.906,2.906,0,0,1-2.838-2.969v-2.12a2.907,2.907,0,0,0-2.839-2.969l-4.111,0-10.232-.006a9.2,9.2,0,0,0-9.2,9.2l-.029,147.551a9.2,9.2,0,0,0,9.193,9.2l60.178.035a9.2,9.2,0,0,0,9.2-9.2L219.7,67.752A9.2,9.2,0,0,0,210.5,58.551Z" transform="translate(-141.093 -58.516)" fill="#fff"/>
                  </g>
                </g>
              </g>
            </g>
            <g id="Group_4796" data-name="Group 4796" transform="translate(35.398 158.802)">
              <g id="Group_4793" data-name="Group 4793" transform="translate(0 0.107)">
                <path id="Path_7733" data-name="Path 7733" d="M220.28,435.595a1.155,1.155,0,1,1-1.165-1.146A1.155,1.155,0,0,1,220.28,435.595Z" transform="translate(-217.97 -434.449)" fill="#263238"/>
              </g>
              <g id="Group_4794" data-name="Group 4794" transform="translate(6.473 0.054)">
                <path id="Path_7734" data-name="Path 7734" d="M236.126,435.464a1.155,1.155,0,1,1-1.165-1.146A1.155,1.155,0,0,1,236.126,435.464Z" transform="translate(-233.816 -434.318)" fill="#263238"/>
              </g>
              <g id="Group_4795" data-name="Group 4795" transform="translate(12.945)">
                <path id="Path_7735" data-name="Path 7735" d="M251.972,435.333a1.155,1.155,0,1,1-1.165-1.146A1.155,1.155,0,0,1,251.972,435.333Z" transform="translate(-249.661 -434.187)" fill="#263238"/>
              </g>
            </g>
            <g id="Group_4803" data-name="Group 4803" transform="translate(66.965 20.24)">
              <g id="Group_4798" data-name="Group 4798">
                <g id="Group_4797" data-name="Group 4797">
                  <path id="Path_7736" data-name="Path 7736" d="M302.04,95.016c0,.035-1.52.076-3.395.092s-3.4,0-3.4-.036,1.52-.076,3.4-.092S302.04,94.981,302.04,95.016Z" transform="translate(-295.248 -94.974)" fill="#263238"/>
                </g>
              </g>
              <g id="Group_4800" data-name="Group 4800" transform="translate(0.014 1.738)">
                <g id="Group_4799" data-name="Group 4799">
                  <path id="Path_7737" data-name="Path 7737" d="M302.075,99.27c0,.035-1.52.076-3.4.092s-3.4,0-3.4-.036,1.52-.076,3.4-.092S302.075,99.235,302.075,99.27Z" transform="translate(-295.283 -99.229)" fill="#263238"/>
                </g>
              </g>
              <g id="Group_4802" data-name="Group 4802" transform="translate(0.029 3.475)">
                <g id="Group_4801" data-name="Group 4801">
                  <path id="Path_7738" data-name="Path 7738" d="M302.111,103.524c0,.035-1.52.076-3.4.092s-3.4,0-3.4-.036,1.52-.076,3.4-.092S302.11,103.489,302.111,103.524Z" transform="translate(-295.319 -103.483)" fill="#263238"/>
                </g>
              </g>
            </g>
            <g id="Group_4805" data-name="Group 4805" transform="translate(11.917 20.062)">
              <g id="Group_4804" data-name="Group 4804">
                <path id="Path_7739" data-name="Path 7739" d="M160.552,100.219a1.125,1.125,0,0,1,.14-.009l.393-.012,1.451-.032-.036.036c0-.321-.011-.672-.016-1.051,0-.2-.016-.381,0-.6a.551.551,0,0,1,.481-.442c.232,0,.44-.015.692,0a.557.557,0,0,1,.47.554c.005.49.011,1,.017,1.534l-.06-.059,1.83-.018-.062.063c-.007-.736-.013-1.5-.02-2.279q0-.292,0-.581a.468.468,0,0,0-.074-.239,1.442,1.442,0,0,0-.185-.2l-.8-.788L164,95.327l-.374-.369c-.128-.123-.23-.253-.382-.284a.5.5,0,0,0-.426.081c-.112.1-.229.227-.341.336l-.656.663c-.413.429-.842.82-1.156,1.193a1.3,1.3,0,0,0-.092.686q0,.341,0,.645,0,.6,0,1.039c0,.268,0,.488-.006.663,0,.153-.007.239-.007.239s-.007-.073-.011-.221c0-.173-.01-.389-.017-.654q-.009-.445-.022-1.047c0-.206-.007-.425-.011-.656q0-.175-.005-.359a.75.75,0,0,1,.1-.38c.337-.412.742-.781,1.158-1.221l.652-.667c.117-.115.214-.23.353-.349a.615.615,0,0,1,.524-.1.983.983,0,0,1,.436.312l.375.368.774.759.8.787a1.533,1.533,0,0,1,.2.22.591.591,0,0,1,.095.3l0,.583c.006.781.012,1.543.018,2.28v.063h-.062l-1.829.012h-.06v-.06c0-.531-.006-1.044-.009-1.534a.448.448,0,0,0-.375-.45c-.213-.011-.459,0-.665,0a.455.455,0,0,0-.4.361c-.018.186,0,.4-.008.586,0,.379,0,.731,0,1.052v.036h-.036l-1.473-.008-.384-.005A.919.919,0,0,1,160.552,100.219Z" transform="translate(-160.485 -94.54)" fill="#263238"/>
              </g>
            </g>
          </g>
          <g id="Group_4809" data-name="Group 4809" transform="translate(9.931 69.966)">
            <g id="Group_4808" data-name="Group 4808">
              <path id="Path_7748" data-name="Path 7748" d="M223.187,216.816c0,.059-15.126.106-33.78.106s-33.783-.047-33.783-.106,15.122-.107,33.783-.107S223.187,216.757,223.187,216.816Z" transform="translate(-155.624 -216.709)" fill="#e0e0e0"/>
            </g>
          </g>
          <g id="Group_4811" data-name="Group 4811" transform="translate(8.348 132.164)">
            <g id="Group_4810" data-name="Group 4810">
              <path id="Path_7749" data-name="Path 7749" d="M219.311,369.08c0,.059-15.125.107-33.779.107s-33.783-.048-33.783-.107,15.122-.106,33.783-.106S219.311,369.022,219.311,369.08Z" transform="translate(-151.748 -368.974)" fill="#e0e0e0"/>
            </g>
          </g>
          <g id="Group_4813" data-name="Group 4813" transform="translate(23.098 136.834)">
            <g id="Group_4812" data-name="Group 4812">
              <path id="Path_7750" data-name="Path 7750" d="M225.388,380.513c0,.059-8.4.107-18.765.107s-18.767-.048-18.767-.107,8.4-.106,18.767-.106S225.388,380.455,225.388,380.513Z" transform="translate(-187.857 -380.407)" fill="#e0e0e0"/>
            </g>
          </g>
          <g id="Group_4824" data-name="Group 4824" transform="translate(9.206 80.316)">
            <g id="Group_4814" data-name="Group 4814" transform="translate(3.29 5.538)">
              <path id="Path_7751" data-name="Path 7751" d="M165.414,257.93l1.28.693-.575.963-1.292-.764.023,1.421h-1.1l.012-1.433-1.292.775-.564-.963,1.28-.693-1.28-.7.564-.963,1.292.775-.012-1.433h1.1l-.023,1.433,1.292-.775.575.963Z" transform="translate(-161.903 -255.605)" fill="#ff725e"/>
            </g>
            <g id="Group_4815" data-name="Group 4815" transform="translate(17.961 5.538)">
              <path id="Path_7752" data-name="Path 7752" d="M201.33,257.93l1.28.693-.575.963-1.292-.764.023,1.421h-1.1l.012-1.433-1.292.775-.564-.963,1.28-.693-1.28-.7.564-.963,1.292.775-.012-1.433h1.1l-.023,1.433,1.292-.775.575.963Z" transform="translate(-197.819 -255.605)" fill="#ff725e"/>
            </g>
            <g id="Group_4816" data-name="Group 4816" transform="translate(32.243 5.538)">
              <path id="Path_7753" data-name="Path 7753" d="M236.3,257.93l1.28.693-.575.963-1.292-.764.023,1.421h-1.1l.012-1.433-1.292.775-.564-.963,1.28-.693-1.28-.7.564-.963,1.292.775-.012-1.433h1.1l-.023,1.433,1.292-.775.575.963Z" transform="translate(-232.784 -255.605)" fill="#ff725e"/>
            </g>
            <g id="Group_4817" data-name="Group 4817" transform="translate(46.078 5.538)">
              <path id="Path_7754" data-name="Path 7754" d="M270.164,257.93l1.279.693-.575.963-1.292-.764.023,1.421h-1.1l.012-1.433-1.292.775-.564-.963,1.28-.693-1.28-.7.564-.963,1.292.775-.012-1.433h1.1l-.023,1.433,1.292-.775.575.963Z" transform="translate(-266.653 -255.605)" fill="#ff725e"/>
            </g>
            <g id="Group_4818" data-name="Group 4818" transform="translate(59.805 5.538)">
              <path id="Path_7755" data-name="Path 7755" d="M303.769,257.93l1.28.693-.575.963-1.292-.764.023,1.421h-1.1l.012-1.433-1.292.775-.564-.963,1.28-.693-1.28-.7.564-.963,1.292.775-.012-1.433h1.1l-.023,1.433,1.292-.775.575.963Z" transform="translate(-300.258 -255.605)" fill="#ff725e"/>
            </g>
            <g id="Group_4819" data-name="Group 4819">
              <path id="Path_7756" data-name="Path 7756" d="M162.929,258.807h-6.192a2.89,2.89,0,0,1-2.887-2.886V244.933a2.89,2.89,0,0,1,2.887-2.886h6.192a2.89,2.89,0,0,1,2.886,2.886v10.988A2.89,2.89,0,0,1,162.929,258.807Zm-6.192-16.556a2.685,2.685,0,0,0-2.682,2.682v10.988a2.685,2.685,0,0,0,2.682,2.682h6.192a2.685,2.685,0,0,0,2.682-2.682V244.933a2.685,2.685,0,0,0-2.682-2.682Z" transform="translate(-153.85 -242.047)" fill="#263238"/>
            </g>
            <g id="Group_4820" data-name="Group 4820" transform="translate(14.375)">
              <path id="Path_7757" data-name="Path 7757" d="M198.119,258.807h-6.192a2.89,2.89,0,0,1-2.886-2.886V244.933a2.89,2.89,0,0,1,2.886-2.886h6.192A2.89,2.89,0,0,1,201,244.933v10.988A2.89,2.89,0,0,1,198.119,258.807Zm-6.192-16.556a2.685,2.685,0,0,0-2.682,2.682v10.988a2.685,2.685,0,0,0,2.682,2.682h6.192a2.685,2.685,0,0,0,2.682-2.682V244.933a2.685,2.685,0,0,0-2.682-2.682Z" transform="translate(-189.04 -242.047)" fill="#263238"/>
            </g>
            <g id="Group_4821" data-name="Group 4821" transform="translate(28.354)">
              <path id="Path_7758" data-name="Path 7758" d="M232.341,258.807h-6.192a2.89,2.89,0,0,1-2.886-2.886V244.933a2.89,2.89,0,0,1,2.886-2.886h6.192a2.89,2.89,0,0,1,2.887,2.886v10.988A2.89,2.89,0,0,1,232.341,258.807Zm-6.192-16.556a2.685,2.685,0,0,0-2.682,2.682v10.988a2.685,2.685,0,0,0,2.682,2.682h6.192a2.685,2.685,0,0,0,2.683-2.682V244.933a2.685,2.685,0,0,0-2.683-2.682Z" transform="translate(-223.263 -242.047)" fill="#263238"/>
            </g>
            <g id="Group_4822" data-name="Group 4822" transform="translate(42.492)">
              <path id="Path_7759" data-name="Path 7759" d="M266.952,258.807H260.76a2.889,2.889,0,0,1-2.886-2.886V244.933a2.889,2.889,0,0,1,2.886-2.886h6.192a2.89,2.89,0,0,1,2.887,2.886v10.988A2.89,2.89,0,0,1,266.952,258.807Zm-6.192-16.556a2.685,2.685,0,0,0-2.682,2.682v10.988a2.685,2.685,0,0,0,2.682,2.682h6.192a2.685,2.685,0,0,0,2.683-2.682V244.933a2.686,2.686,0,0,0-2.683-2.682Z" transform="translate(-257.874 -242.047)" fill="#263238"/>
            </g>
            <g id="Group_4823" data-name="Group 4823" transform="translate(56.219)">
              <path id="Path_7760" data-name="Path 7760" d="M300.558,258.807h-6.192a2.89,2.89,0,0,1-2.886-2.886V244.933a2.89,2.89,0,0,1,2.886-2.886h6.192a2.89,2.89,0,0,1,2.886,2.886v10.988A2.89,2.89,0,0,1,300.558,258.807Zm-6.192-16.556a2.685,2.685,0,0,0-2.682,2.682v10.988a2.685,2.685,0,0,0,2.682,2.682h6.192a2.685,2.685,0,0,0,2.682-2.682V244.933a2.685,2.685,0,0,0-2.682-2.682Z" transform="translate(-291.479 -242.047)" fill="#263238"/>
            </g>
          </g>
          <g id="Group_4827" data-name="Group 4827" transform="translate(9.303 110.344)">
            <g id="Group_4825" data-name="Group 4825">
              <rect id="Rectangle_247" data-name="Rectangle 247" width="69.356" height="12.148" rx="6.074" fill="#3169b3"/>
            </g>
            <g id="Group_4826" data-name="Group 4826" transform="translate(25.924 3.633)">
              <path id="Path_7761" data-name="Path 7761" d="M217.55,324.452h1.867a2.065,2.065,0,1,1,0,4.11H217.55Zm1.82,3.329a1.276,1.276,0,1,0,0-2.549H218.5v2.549Z" transform="translate(-217.55 -324.452)" fill="#fff"/>
              <path id="Path_7762" data-name="Path 7762" d="M228.693,328.292a1.739,1.739,0,1,1,1.738,1.627A1.626,1.626,0,0,1,228.693,328.292Zm2.542,0a.81.81,0,1,0-.8.875A.8.8,0,0,0,231.235,328.292Z" transform="translate(-224.141 -325.762)" fill="#fff"/>
              <path id="Path_7763" data-name="Path 7763" d="M241.916,328.063v1.808H241V328.2c0-.511-.235-.746-.64-.746-.44,0-.757.27-.757.851v1.562h-.916v-3.159h.875v.37a1.383,1.383,0,0,1,1.045-.417A1.238,1.238,0,0,1,241.916,328.063Z" transform="translate(-230.053 -325.762)" fill="#fff"/>
              <path id="Path_7764" data-name="Path 7764" d="M251.445,328.55h-2.389a.842.842,0,0,0,.9.634,1.071,1.071,0,0,0,.792-.305l.487.528a1.844,1.844,0,0,1-3.106-1.116,1.608,1.608,0,0,1,1.685-1.626,1.564,1.564,0,0,1,1.644,1.638C251.463,328.375,251.451,328.474,251.445,328.55Zm-2.4-.534H250.6a.789.789,0,0,0-1.556,0Z" transform="translate(-235.641 -325.762)" fill="#fff"/>
            </g>
          </g>
          <g id="Group_4836" data-name="Group 4836" transform="translate(31.024 27.794)">
            <g id="Group_4828" data-name="Group 4828">
              <circle id="Ellipse_196" data-name="Ellipse 196" cx="12.274" cy="12.274" r="12.274" fill="#3169b3"/>
            </g>
            <g id="Group_4835" data-name="Group 4835" transform="translate(8.221 6.502)">
              <g id="Group_4829" data-name="Group 4829" transform="translate(1.688)">
                <path id="Path_7765" data-name="Path 7765" d="M231.725,132.925h-.2V131.78a2.394,2.394,0,1,1,4.788,0v.933h-.2v-.933a2.19,2.19,0,1,0-4.38,0Z" transform="translate(-231.521 -129.385)" fill="#fff"/>
              </g>
              <g id="Group_4834" data-name="Group 4834" transform="translate(0 3.438)">
                <g id="Group_4830" data-name="Group 4830">
                  <path id="Path_7766" data-name="Path 7766" d="M234.485,145.908H228.4a1.011,1.011,0,0,1-1.009-1.01v-6.087A1.011,1.011,0,0,1,228.4,137.8h6.087a1.01,1.01,0,0,1,1.009,1.009V144.9A1.011,1.011,0,0,1,234.485,145.908Zm-6.087-7.9a.806.806,0,0,0-.805.805V144.9a.806.806,0,0,0,.805.806h6.087a.806.806,0,0,0,.805-.806v-6.087a.806.806,0,0,0-.805-.805Z" transform="translate(-227.388 -137.802)" fill="#fff"/>
                </g>
                <g id="Group_4833" data-name="Group 4833" transform="translate(3.127 2.342)">
                  <g id="Group_4831" data-name="Group 4831">
                    <path id="Path_7767" data-name="Path 7767" d="M236,145.446a.955.955,0,1,1,.955-.955A.956.956,0,0,1,236,145.446Zm0-1.706a.751.751,0,1,0,.751.751A.752.752,0,0,0,236,143.74Z" transform="translate(-235.043 -143.536)" fill="#fff"/>
                  </g>
                  <g id="Group_4832" data-name="Group 4832" transform="translate(0.824 1.765)">
                    <rect id="Rectangle_248" data-name="Rectangle 248" width="0.204" height="1.724" fill="#fff"/>
                  </g>
                </g>
              </g>
            </g>
          </g>
        </g>
      </g>
      <g id="Group_5403" data-name="Group 5403" transform="translate(225.312 154.346)">
        <g id="Group_5402" data-name="Group 5402" transform="translate(0 0)">
          <g id="Group_5392" data-name="Group 5392" transform="translate(0 32.366)">
            <path id="Path_7883" data-name="Path 7883" d="M422.354,231.068c-3.148,1.254-5.027,4.466-6.354,7.583a117.5,117.5,0,0,0-6.389,20.328s-5.03-1.354-7.987-.789a23.433,23.433,0,0,0-2.772,4.5,5.04,5.04,0,0,0-.817,3.469,10.124,10.124,0,0,0,2.808,1.851,109.681,109.681,0,0,0,10.879,3.52c3.464-4.283,6.985-8.482,10.133-13Z" transform="translate(-378.797 -231.068)" fill="#f3c9b0"/>
            <path id="Path_7884" data-name="Path 7884" d="M368.35,264.03a14.1,14.1,0,0,1,4.4.105c.895,1.482,2.383,3.456,3.443,4.836a46.489,46.489,0,0,0,13.02,3.125,5.376,5.376,0,0,1-.064,4.312,5.5,5.5,0,0,1-3.053,3.123c-3.077-1.684-8.071-5.99-11.148-7.674a3.609,3.609,0,0,1-2.961.512,4.064,4.064,0,0,1-2.174-1.447c-.031.012-.063.023-.094.035-.443.183-.7.639-1.142.787a.465.465,0,0,1-.589-.284c-.16-.719.483-1.328,1.073-1.641l.019-.01a3.2,3.2,0,0,0-1.54.493.6.6,0,0,1-.8-.875,3.235,3.235,0,0,1,2.3-1.133,6.1,6.1,0,0,1,1.156.018c0-.027.008-.053.012-.079-1.217-.144-2.515-.55-3.37.457a.509.509,0,0,1-.885-.416,2.37,2.37,0,0,1,2.2-1.788,11.178,11.178,0,0,1,1.971.055c.09.007.178.011.264.015.007-.144.013-.287.015-.428a5.475,5.475,0,0,0-1.824-.431,1.579,1.579,0,0,0-.862.266,5.513,5.513,0,0,1-.8.445,1.016,1.016,0,0,1-.883-.026c-.26-.16-.554-.643-.285-.787C366.572,265.16,367.432,264.113,368.35,264.03Z" transform="translate(-365.653 -244.436)" fill="#ffab91"/>
            <g id="Group_5390" data-name="Group 5390" transform="translate(0.534 15.27)">
              <path id="Path_7885" data-name="Path 7885" d="M368.134,274.1l-.532.815a.421.421,0,0,1-.552.141h0a.421.421,0,0,1-.187-.538l.385-.894a.421.421,0,0,1,.586-.2l.147.079A.421.421,0,0,1,368.134,274.1Z" transform="translate(-366.665 -263.556)" fill="#3f72af"/>
              <rect id="Rectangle_249" data-name="Rectangle 249" width="9.767" height="2.944" transform="matrix(0.473, -0.881, 0.881, 0.473, 0.268, 8.605)" fill="#112d4e"/>
              <path id="Path_7886" data-name="Path 7886" d="M369.111,272.673l-1.143,1.443-1.416-.76.572-1.75Z" transform="translate(-366.553 -262.838)" fill="#112d4e"/>
            </g>
            <g id="Group_5391" data-name="Group 5391" transform="translate(3.388 19.752)">
              <path id="Path_7887" data-name="Path 7887" d="M372.66,265.245a.644.644,0,0,0-.614.126.583.583,0,0,0-.031.538,2.239,2.239,0,0,0,2.438,1.53.84.84,0,0,0,.492-1.428,2.977,2.977,0,0,0-.991-.447A8.132,8.132,0,0,0,372.66,265.245Z" transform="translate(-371.61 -264.723)" fill="#ffab91"/>
              <path id="Path_7888" data-name="Path 7888" d="M371.523,264.6a.34.34,0,0,1,.454-.2c.007,0,.013,0,.021,0a15.683,15.683,0,0,1,3.089.916c.5.206.088.944-.411.74a14.474,14.474,0,0,0-2.473-.748c-.005.935,1.855,1.584,2.479,1.788a.414.414,0,0,1,.285.306.427.427,0,0,1,.009.364,1.927,1.927,0,0,0,.108,1.918,1.211,1.211,0,0,0,1.734.282c.445-.317.882.409.441.722a2.045,2.045,0,0,1-2.713-.328,2.625,2.625,0,0,1-.461-2.578C372.714,267.279,370.8,266.266,371.523,264.6Z" transform="translate(-371.366 -264.378)" fill="#ff8a65"/>
            </g>
            <path id="Path_7889" data-name="Path 7889" d="M400.919,284.7a5.734,5.734,0,0,0,2.192-2.75,5.215,5.215,0,0,0,.307-3.894c-.144-.353.43-.506.572-.157a5.749,5.749,0,0,1-.328,4.257,6.321,6.321,0,0,1-2.447,3.057C400.891,285.414,400.594,284.9,400.919,284.7Z" transform="translate(-379.95 -250.049)" fill="#2b4e78"/>
            <path id="Path_7890" data-name="Path 7890" d="M418.856,278.393a1.736,1.736,0,0,1,.677.686q.321.486.6,1a13.922,13.922,0,0,1,.914,2.1c.124.361-.449.517-.572.157a13,13,0,0,0-.82-1.894q-.238-.448-.511-.877a1.551,1.551,0,0,0-.58-.656C418.216,278.749,418.512,278.235,418.856,278.393Z" transform="translate(-387.126 -250.319)" fill="#2b4e78"/>
          </g>
          <path id="Path_7891" data-name="Path 7891" d="M444.9,199.851a10.464,10.464,0,0,1,2.387-4.319,7.1,7.1,0,0,1,1-1.1c.683-.57,1.169-.643,1.3-1.622.517-3.793-.139-9.314-3.628-11.667a6.023,6.023,0,0,0-1.643-.855c-.623-.181-1.163.076-1.755-.032-.856-.156-.569-1.479-.814-2.071a3.132,3.132,0,0,0-3.461-1.643,5.479,5.479,0,0,0-3.289,2.358,4.108,4.108,0,0,0-.717,1.484.034.034,0,0,1-.009.018,2.762,2.762,0,0,0-3.1-.682,5.408,5.408,0,0,0-2.416,2.524,11.031,11.031,0,0,0,.227,9.761,18.617,18.617,0,0,0,6.915,7.225,13.2,13.2,0,0,0,4.53,1.975A5.989,5.989,0,0,0,444.9,199.851Z" transform="translate(-390.919 -176.485)" fill="#3e2723"/>
          <g id="Group_5394" data-name="Group 5394" transform="translate(28.931 71.178)">
            <path id="Path_7892" data-name="Path 7892" d="M417.048,347.61c-2.475-16.777-.511-34.464,2.839-51.088a64.777,64.777,0,0,1,14.943,1.833,103.511,103.511,0,0,1-12.9,51.152Z" transform="translate(-415.05 -296.522)" fill="#09121f"/>
            <path id="Path_7893" data-name="Path 7893" d="M465.351,439.245a2.483,2.483,0,0,1-1.276-.143c.771,2.916,1.516,5.838,2.213,8.773a9.668,9.668,0,0,0,4.761-.95c.116-3.191.31-6.533.443-9.929A15.4,15.4,0,0,1,465.351,439.245Z" transform="translate(-434.645 -353.699)" fill="#ffab91"/>
            <path id="Path_7894" data-name="Path 7894" d="M461.8,389.463a34.224,34.224,0,0,0-11.832-15.885l-1.4,2.546a8.041,8.041,0,0,0-.348,6.655c3.721,9.762,6.332,23.97,9.01,34.106.238.9,2.589.556,3.876.363.56-.084,4.487-.915,4.51-1.5C465.9,408.431,464.2,395.979,461.8,389.463Z" transform="translate(-427.964 -327.886)" fill="#112d4e"/>
            <path id="Path_7895" data-name="Path 7895" d="M437.729,351.935c-3.567-12.011-5.582-34.349-5.582-34.349s-10.069-8.343-10.069-19.563c5.274-.544,20.718,2.705,25.983,3.331a103.516,103.516,0,0,1-5.519,52.465Z" transform="translate(-417.551 -297.108)" fill="#112d4e"/>
            <path id="Path_7896" data-name="Path 7896" d="M464.478,443.214a19.633,19.633,0,0,0,6.97-1.611c.5-.215.728.6.234.814a20.259,20.259,0,0,1-7.194,1.644C463.944,444.085,463.935,443.238,464.478,443.214Z" transform="translate(-434.645 -355.56)" fill="#09121f"/>
            <path id="Path_7897" data-name="Path 7897" d="M456.144,381.172a8.7,8.7,0,0,0,1.911-3.925c.111-.533.93-.317.819.215a9.6,9.6,0,0,1-2.125,4.3C456.4,382.179,455.792,381.585,456.144,381.172Z" transform="translate(-431.373 -329.254)" fill="#09121f"/>
            <path id="Path_7898" data-name="Path 7898" d="M457.264,386.054l1.069-1.9a.424.424,0,0,1,.736.419l-1.069,1.9A.423.423,0,0,1,457.264,386.054Z" transform="translate(-431.849 -332.105)" fill="#09121f"/>
            <g id="Group_5393" data-name="Group 5393" transform="translate(1.813 43.266)">
              <path id="Path_7899" data-name="Path 7899" d="M433.623,434.968a2.48,2.48,0,0,1-1.271-.181c.683,2.938,1.34,5.881,1.948,8.836,2.063.11,2.981.534,4.913-.171.212-3.186.38-7.157.616-10.547A15.407,15.407,0,0,1,433.623,434.968Z" transform="translate(-423.546 -395.3)" fill="#ffab91"/>
              <path id="Path_7900" data-name="Path 7900" d="M431.342,385.72a34.221,34.221,0,0,0-11.35-16.233l-1.474,2.5a8.04,8.04,0,0,0-.548,6.641c3.427,9.869,5.965,26.756,8.338,36.969.211.908,3.738.669,5.014.517.562-.067,2.993-.114,3.033-.694C434.862,408.112,433.55,392.305,431.342,385.72Z" transform="translate(-417.501 -369.487)" fill="#09121f"/>
              <path id="Path_7901" data-name="Path 7901" d="M433.125,443.253a9.889,9.889,0,0,0,6.153-1.83c.443-.312.99.334.545.648a10.854,10.854,0,0,1-6.782,2.024C432.5,444.076,432.582,443.233,433.125,443.253Z" transform="translate(-423.677 -398.733)" fill="#112d4e"/>
              <path id="Path_7902" data-name="Path 7902" d="M424.329,377.607l1.8-2.752c.3-.457.989.033.691.489l-1.8,2.753C424.721,378.553,424.031,378.062,424.329,377.607Z" transform="translate(-420.25 -371.598)" fill="#112d4e"/>
              <path id="Path_7903" data-name="Path 7903" d="M426.421,381.586q.386-1.462.771-2.923c.139-.526.93-.226.793.3q-.386,1.461-.771,2.923C427.075,382.41,426.284,382.109,426.421,381.586Z" transform="translate(-421.125 -373.11)" fill="#112d4e"/>
            </g>
            <path id="Path_7904" data-name="Path 7904" d="M420.164,451.457l4.973-1.275,7.05-.122a16.973,16.973,0,0,1,1.111,5.762H414.443C414.457,452.946,417.286,451.457,420.164,451.457Z" transform="translate(-414.443 -359.016)" fill="#3169b3"/>
            <path id="Path_7905" data-name="Path 7905" d="M453.9,451.457l4.973-1.275,7.05-.122a16.973,16.973,0,0,1,1.111,5.762H448.177C448.191,452.946,451.02,451.457,453.9,451.457Z" transform="translate(-428.174 -359.016)" fill="#3169b3"/>
          </g>
          <path id="Path_7906" data-name="Path 7906" d="M435.936,226.864a21.261,21.261,0,0,1,7.383-.717c4.741.382,10.811,3.277,9.83,8.978-.5,2.912-2.263,5.465-2.843,8.378a119.809,119.809,0,0,0-1.8,32.939c.129,1.7.737,3.947-.881,4.486-7.531,2.513-14.141,2.522-22.078,2.238a15.43,15.43,0,0,1-5.357-.941,3.489,3.489,0,0,1-2.085-3.531c1.025-11.676,1.949-23.047,2.986-34.759l.011-.129C421.836,235.385,428.2,229.009,435.936,226.864Z" transform="translate(-386.997 -196.671)" fill="#e8c49c"/>
          <g id="Group_5395" data-name="Group 5395" transform="translate(31.124 30.606)">
            <path id="Path_7907" data-name="Path 7907" d="M444.222,232.1a2.753,2.753,0,0,0,2.491.305,10.759,10.759,0,0,0,2.533-.834,10.926,10.926,0,0,0,4.1-3.346c.225-.3.742-.014.516.292a11.541,11.541,0,0,1-4.631,3.712,11.252,11.252,0,0,1-2.813.827,2.937,2.937,0,0,1-2.61-.538A.3.3,0,0,1,444.222,232.1Z" transform="translate(-428.55 -228.1)" fill="#2b4e78"/>
            <path id="Path_7908" data-name="Path 7908" d="M418.363,285.375q.171-1.132.233-2.275c.158-3-.114-6.008.206-9.007.316-2.963.763-5.917,1.153-8.871s.792-5.939,1.34-8.884c.306-1.647.659-3.286,1.082-4.907a14.153,14.153,0,0,1,1.641-4.234c.208-.319.725-.027.516.292a12.594,12.594,0,0,0-1.472,3.675c-.373,1.386-.693,2.788-.975,4.2-.569,2.843-.983,5.714-1.368,8.587q-.585,4.365-1.153,8.731a38.807,38.807,0,0,0-.35,4.355c-.023,1.47.03,2.939.02,4.409a35.45,35.45,0,0,1-.39,4.708c-.2,1.409-.227,3.074.994,4.05.3.238-.125.655-.42.419a3.926,3.926,0,0,1-1.277-3.152A14.781,14.781,0,0,1,418.363,285.375Z" transform="translate(-418.141 -235.817)" fill="#2b4e78"/>
            <path id="Path_7909" data-name="Path 7909" d="M439.392,309.755c4.488-.429,9.263-1.2,12.9-4.076.3-.234.719.183.419.42-3.775,2.99-8.651,3.8-13.318,4.249C439.012,310.384,439.015,309.791,439.392,309.755Z" transform="translate(-426.675 -259.649)" fill="#2b4e78"/>
          </g>
          <g id="Group_5399" data-name="Group 5399" transform="translate(39.787 7.749)">
            <g id="Group_5398" data-name="Group 5398">
              <g id="Group_5397" data-name="Group 5397">
                <path id="Path_7910" data-name="Path 7910" d="M445.74,211.546c1.146,2.9.5,9.413.122,9.818a1.176,1.176,0,0,0-.226,1.492c.368.424,1.047.3,1.577.12a16.485,16.485,0,0,0,6.69-4.378c-.182-.162-.493-.486-.675-.648-2.157-1.916-1.374-8-1.114-10.876Z" transform="translate(-437.92 -196.685)" fill="#ffab91"/>
                <path id="Path_7911" data-name="Path 7911" d="M451.978,213.079c.058-1.215.186-4.622.286-5.73l-6.326,4.309a14.8,14.8,0,0,1,.646,4.979C448.374,215.438,450.217,214.3,451.978,213.079Z" transform="translate(-438.119 -196.797)" fill="#ff8a65"/>
                <g id="Group_5396" data-name="Group 5396">
                  <path id="Path_7912" data-name="Path 7912" d="M433.174,193.474c-.949,4.553-.761,14.569,5.519,15.312a6.014,6.014,0,0,0,5.257-2.629,17.726,17.726,0,0,0,2.448-5.612,6.691,6.691,0,0,0,2.272-.577,2.162,2.162,0,0,0,1.175-1.818,1.335,1.335,0,0,0-1.492-1.307c-1.468.347-2.664,2.212-2.849.68-1.348-11.174-7.921-5.3-10.077-7.969-.036-.044-1.615,2.192-1.743,2.444A5.8,5.8,0,0,0,433.174,193.474Z" transform="translate(-432.751 -189.553)" fill="#ffab91"/>
                  <path id="Path_7913" data-name="Path 7913" d="M458.179,203.564c-.525-.3-1.151.05-1.577.4-.279.227-.869.827-.579,1.218a.025.025,0,0,0,.024.008c.344-.058.576-.55.85-.754.393-.294.882-.3,1.27-.572A.174.174,0,0,0,458.179,203.564Z" transform="translate(-442.192 -195.209)" fill="#ff8a65"/>
                  <path id="Path_7914" data-name="Path 7914" d="M434.3,201.921a.277.277,0,0,0-.433.038,1.347,1.347,0,0,0-.119.908,2.283,2.283,0,0,0,.2.97.3.3,0,0,0,.54-.046,2.27,2.27,0,0,0,.063-.988A1.353,1.353,0,0,0,434.3,201.921Z" transform="translate(-433.146 -194.551)" fill="#212121"/>
                  <path id="Path_7915" data-name="Path 7915" d="M443.8,201.264a.277.277,0,0,0-.433.037,1.348,1.348,0,0,0-.119.908,2.28,2.28,0,0,0,.2.969.3.3,0,0,0,.54-.046,2.27,2.27,0,0,0,.063-.988A1.347,1.347,0,0,0,443.8,201.264Z" transform="translate(-437.013 -194.284)" fill="#212121"/>
                </g>
              </g>
            </g>
            <path id="Path_7916" data-name="Path 7916" d="M440.608,196.777a2.411,2.411,0,0,1,3.018-.195c.435.318.022,1.057-.419.736a1.568,1.568,0,0,0-1.994.05C440.809,197.731,440.2,197.141,440.608,196.777Z" transform="translate(-435.895 -192.235)" fill="#3e2723"/>
            <path id="Path_7917" data-name="Path 7917" d="M432.979,197.753a1.223,1.223,0,0,1,1.5-.187c.462.286.046,1.024-.419.736a.365.365,0,0,0-.474.043C433.2,198.731,432.595,198.14,432.979,197.753Z" transform="translate(-432.794 -192.743)" fill="#3e2723"/>
            <path id="Path_7918" data-name="Path 7918" d="M442.3,213.761a3.569,3.569,0,0,0,2.688-1.353c.345-.422.948.173.605.592a4.395,4.395,0,0,1-3.283,1.607A.423.423,0,0,1,442.3,213.761Z" transform="translate(-436.474 -198.797)" fill="#212121"/>
            <path id="Path_7919" data-name="Path 7919" d="M436.886,205.625a.217.217,0,0,1,.311.3,3.574,3.574,0,0,0-1.01,1.572,1.356,1.356,0,0,0,1.157,1.838c.279.006.03.441-.25.435a1.673,1.673,0,0,1-1.64-1.479C435.3,207.242,436.194,206.339,436.886,205.625Z" transform="translate(-433.844 -196.068)" fill="#ff8a65"/>
          </g>
          <g id="Group_5401" data-name="Group 5401" transform="translate(53.54 32.068)">
            <path id="Path_7920" data-name="Path 7920" d="M462.6,231.332a4.424,4.424,0,0,1,4.425-.32,9.466,9.466,0,0,1,5.475,5.617c2.4,6.956,4.986,14.372,7.191,21.391,1.679,5.34-2.291,11.092-4.618,16.184-2.756-1.115-5.387-2.386-8.143-3.5a47.5,47.5,0,0,1,2.035-10.976c-4.183-8.43-5.4-12.758-8.778-21.542" transform="translate(-457.67 -230.565)" fill="#d6b4a0"/>
            <g id="Group_5400" data-name="Group 5400" transform="translate(0 38.699)">
              <path id="Path_7921" data-name="Path 7921" d="M455.944,316.047V316a7.7,7.7,0,0,1,5.129-7.062q.285-.1.565-.2a46.477,46.477,0,0,0,4.4-12.646,5.375,5.375,0,0,1,4.284.491,5.5,5.5,0,0,1,2.805,3.348c-1.981,2.894-6.76,7.438-8.742,10.332a3.608,3.608,0,0,1,.216,3,4.058,4.058,0,0,1-1.654,2.021c.008.033.016.065.025.1.139.459.566.761.671,1.214a.465.465,0,0,1-.341.557c-.731.088-1.274-.612-1.526-1.23l-.007-.02a3.191,3.191,0,0,0,.337,1.581.6.6,0,0,1-.95.707,3.238,3.238,0,0,1-.9-2.4,6.125,6.125,0,0,1,.133-1.149l-.078-.02c-.264,1.2-.8,2.448.12,3.4a.51.51,0,0,1-.5.84,2.371,2.371,0,0,1-1.561-2.371,11.18,11.18,0,0,1,.25-1.956c.015-.088.028-.176.041-.262-.142-.021-.285-.042-.425-.058a5.457,5.457,0,0,0-.61,1.772,1.577,1.577,0,0,0,.178.884,5.543,5.543,0,0,1,.365.838.99.99,0,0,1-.151.92.572.572,0,0,1-.919-.138C456.685,317.708,455.937,316.863,455.944,316.047Z" transform="translate(-455.944 -295.827)" fill="#ffab91"/>
            </g>
            <path id="Path_7922" data-name="Path 7922" d="M477.3,278.775a8.155,8.155,0,0,1,3.483.272c.371.085.272.67-.1.585a7.757,7.757,0,0,0-3.331-.266.3.3,0,0,1-.321-.27A.3.3,0,0,1,477.3,278.775Z" transform="translate(-464.528 -250.148)" fill="#2b4e78"/>
            <path id="Path_7923" data-name="Path 7923" d="M478.906,280.341l1.135.119a.3.3,0,0,1,.242.343.3.3,0,0,1-.343.242l-1.135-.119a.3.3,0,0,1-.242-.343A.3.3,0,0,1,478.906,280.341Z" transform="translate(-465.149 -250.824)" fill="#2b4e78"/>
            <path id="Path_7924" data-name="Path 7924" d="M464.035,253.795q2.9,7.456,6.4,14.654c.167.342-.392.541-.558.2q-3.5-7.191-6.4-14.654A.3.3,0,0,1,464.035,253.795Z" transform="translate(-459.001 -239.944)" fill="#2b4e78"/>
            <path id="Path_7925" data-name="Path 7925" d="M462.868,257.561a9.586,9.586,0,0,0,2.521,2.546.3.3,0,0,1,.042.417.3.3,0,0,1-.417.042,10.056,10.056,0,0,1-2.629-2.664C462.171,257.587,462.655,257.243,462.868,257.561Z" transform="translate(-458.544 -241.502)" fill="#2b4e78"/>
            <path id="Path_7926" data-name="Path 7926" d="M472.533,295.293a5.461,5.461,0,0,1,4.742.33,7.12,7.12,0,0,1,3.035,3.616c.141.355-.416.556-.558.2a6.469,6.469,0,0,0-2.722-3.278,4.9,4.9,0,0,0-4.3-.312C472.382,296,472.181,295.44,472.533,295.293Z" transform="translate(-462.621 -256.751)" fill="#2b4e78"/>
          </g>
        </g>
      </g>
    </g>
  </g>
</svg>
