<svg id="profile_1_" data-name="profile (1)" xmlns="http://www.w3.org/2000/svg" width="38.781" height="38.781" viewBox="0 0 38.781 38.781">
  <g id="Group_3" data-name="Group 3">
    <path id="Path_7" data-name="Path 7" d="M19.391,0A19.391,19.391,0,1,0,38.781,19.391,19.411,19.411,0,0,0,19.391,0Zm0,9.934a6.03,6.03,0,1,1-6.03,5.986A6.045,6.045,0,0,1,19.391,9.934Zm0,24.856a15.275,15.275,0,0,1-9.717-3.47,13.225,13.225,0,0,1,9.717-4.728,13,13,0,0,1,9.717,4.728A15.275,15.275,0,0,1,19.391,34.79Z"/>
  </g>
</svg>
