<svg id="worldwide" xmlns="http://www.w3.org/2000/svg" width="21.568" height="21.568" viewBox="0 0 21.568 21.568">
  <path id="Path_6737" data-name="Path 6737" d="M101.528,26.656a6.658,6.658,0,0,1,5.392-6.536,6.656,6.656,0,1,0,0,13.071A6.658,6.658,0,0,1,101.528,26.656Z" transform="translate(-94.83 -19.157)" fill="#cee1f2"/>
  <path id="Path_6738" data-name="Path 6738" d="M86.5,16.513a2.528,2.528,0,1,0,2.528,2.528A2.53,2.53,0,0,0,86.5,16.513Zm0,3.37a.843.843,0,1,1,.843-.843A.843.843,0,0,1,86.5,19.883ZM86.5,0A7.5,7.5,0,1,0,94,7.5,7.507,7.507,0,0,0,86.5,0Zm0,13.312A5.813,5.813,0,1,1,92.312,7.5,5.82,5.82,0,0,1,86.5,13.312ZM90.415,7.5a.843.843,0,0,1-.843.843h-.167a7.473,7.473,0,0,1-.679,2.777.843.843,0,0,1-1.507-.753,5.648,5.648,0,0,0,.5-2.024H85.28a5.647,5.647,0,0,0,.5,2.024.843.843,0,1,1-1.507.753,7.473,7.473,0,0,1-.679-2.777h-.167a.843.843,0,0,1,0-1.685h.164a7.262,7.262,0,0,1,.686-2.827.843.843,0,0,1,1.5.768,5.558,5.558,0,0,0-.5,2.059h2.441a5.559,5.559,0,0,0-.5-2.059.843.843,0,0,1,1.5-.768,7.262,7.262,0,0,1,.686,2.827h.164A.842.842,0,0,1,90.415,7.5Z" transform="translate(-75.672)" fill="#1e1f21"/>
  <path id="Path_6739" data-name="Path 6739" d="M20.726,433.685H15.881a.842.842,0,1,1,0-1.685h4.844a.842.842,0,1,1,0,1.685Zm-14.2-.842A.843.843,0,0,0,5.687,432H.843a.842.842,0,1,0,0,1.685H5.687A.842.842,0,0,0,6.529,432.843Z" transform="translate(0 -413.802)" fill="#3169b3"/>
</svg>
