<svg xmlns="http://www.w3.org/2000/svg" width="18.826" height="19.056" viewBox="0 0 18.826 19.056">
  <path id="house-key" d="M27.808,23.246a.5.5,0,0,0-.149-.317l-7.5-7.5a5.7,5.7,0,1,0-3.018,3.018L19.6,20.91a.516.516,0,0,0,.384.15l1.344-.047-.044,1.347a.514.514,0,0,0,.53.532l1.349-.046-.048,1.345a.525.525,0,0,0,.15.382.493.493,0,0,0,.384.151l1.345-.046-.045,1.346a.512.512,0,0,0,.162.395.518.518,0,0,0,.351.138l.057,0,2.063-.229a.517.517,0,0,0,.458-.558ZM14.222,12.509a1.619,1.619,0,1,1,0-2.29A1.618,1.618,0,0,1,14.222,12.509ZM26.047,23.418a.39.39,0,0,1-.548,0l-6.385-6.387a5.449,5.449,0,0,0,.486-.606l6.447,6.446A.387.387,0,0,1,26.047,23.418Z" transform="translate(-9.215 -7.5)" fill="#3169b3"/>
</svg>
