<svg xmlns="http://www.w3.org/2000/svg" width="71.11" height="71.11" viewBox="0 0 71.11 71.11">
  <g id="planet-earth" transform="translate(0 0.046)">
    <g id="Group_4094" data-name="Group 4094" transform="translate(0 -0.046)">
      <path id="Path_7380" data-name="Path 7380" d="M46.142,1.673a.992.992,0,0,0-.121-.044A35.4,35.4,0,0,0,1.558,25.036c-.015.05-.027.1-.038.148A35.183,35.183,0,0,0,9.23,59.166a1.459,1.459,0,0,0,.4.44A35.328,35.328,0,0,0,70.473,40.058a1.381,1.381,0,0,0,.053-.345,35.108,35.108,0,0,0,.289-4.3A35.467,35.467,0,0,0,46.142,1.673ZM35.408,67.865A32.343,32.343,0,0,1,12.021,57.856c.227-2.257.794-9.129-.286-12.564a9.6,9.6,0,0,0-2.706-3.871,8.444,8.444,0,0,1-1.791-2.216c-.859-1.826-2.1-8.985-2.774-13.579A32.333,32.333,0,0,1,42.533,3.765a16.921,16.921,0,0,0-2.012,3.2c-1.717-.631-4.128-1.348-5.47-1.015-2.225.555-4.541,3.417-6.742,6.471a15.871,15.871,0,0,0-1.145,2.145,5.872,5.872,0,0,0-4.692,2.077c-1.331,1.425-2.343,3.629-1.6,5.335A2.813,2.813,0,0,0,23.605,23.6a8.286,8.286,0,0,0,3.966-1.528A8.22,8.22,0,0,1,31,20.654c5.332-.115,8.052,1.228,8.855,2.467a1.3,1.3,0,0,1,.221,1.006,35.1,35.1,0,0,1-6.176-.319c-3.488-.348-7.093-.711-9.2-.156-2.611.688-4.131,2.487-6.763,6.521-1.18,1.812-.853,5.591-.118,7.291a8.182,8.182,0,0,0,3.857,3.771,11.468,11.468,0,0,0,4.647-.065c1.31-.186,3.29-.454,3.862-.094,1.354.867,2.266,4.517,2.266,9.073a7.123,7.123,0,0,1-.575,1.387,5.474,5.474,0,0,0-.867,3.346c.912,4.488,4.3,7.093,7.093,7.093q.195,0,.381-.018c4.078-.363,10.788-5.615,11.646-10.041a20.743,20.743,0,0,0,.006-4.458,21.692,21.692,0,0,1-.012-4.37A30.258,30.258,0,0,1,52.9,37.653a1.472,1.472,0,0,0-.274-1.865,30.616,30.616,0,0,1-2.741-2.718,22.985,22.985,0,0,1-1.455-2.709,6.1,6.1,0,0,1,.959.4c1.661,1.027,5.639,5.462,7.034,7.082a1.466,1.466,0,0,0,1.4.487c2.2-.431,2.479-2.694,2.662-4.193a6.312,6.312,0,0,1,.351-1.723c1.2-.274,2.762,2.163,4.007,4.14a21.2,21.2,0,0,0,2.632,3.6A32.478,32.478,0,0,1,35.408,67.865Z" transform="translate(0 0.148)" fill="#3169b3"/>
      <g id="Path_7929" data-name="Path 7929" transform="translate(0)" fill="none">
        <path d="M35.555,0A35.555,35.555,0,1,1,0,35.555,35.555,35.555,0,0,1,35.555,0Z" stroke="none"/>
        <path d="M 35.55517578125 0.9999923706054688 C 30.88981628417969 0.9999923706054688 26.36453628540039 1.913482666015625 22.10504531860352 3.715103149414063 C 17.99036407470703 5.455467224121094 14.29478454589844 7.947166442871094 11.12097549438477 11.12097549438477 C 7.947166442871094 14.29478454589844 5.455467224121094 17.99036407470703 3.715103149414063 22.10504531860352 C 1.913482666015625 26.36453628540039 0.9999923706054688 30.88981628417969 0.9999923706054688 35.55517578125 C 0.9999923706054688 40.22053527832031 1.913482666015625 44.74581527709961 3.715103149414063 49.00530624389648 C 5.455467224121094 53.11998748779297 7.947166442871094 56.81556701660156 11.12097549438477 59.98937606811523 C 14.29478454589844 63.16317749023438 17.99036407470703 65.65487670898438 22.10504531860352 67.39523315429688 C 26.36453628540039 69.19685363769531 30.88981628417969 70.11034393310547 35.55517578125 70.11034393310547 C 40.22053527832031 70.11034393310547 44.74581527709961 69.19685363769531 49.00530624389648 67.39523315429688 C 53.11998748779297 65.65487670898438 56.81556701660156 63.16317749023438 59.98937606811523 59.98937606811523 C 63.16317749023438 56.81556701660156 65.65487670898438 53.11998748779297 67.39523315429688 49.00530624389648 C 69.19685363769531 44.74581527709961 70.11034393310547 40.22053527832031 70.11034393310547 35.55517578125 C 70.11034393310547 30.88981628417969 69.19685363769531 26.36453628540039 67.39523315429688 22.10504531860352 C 65.65487670898438 17.99036407470703 63.16317749023438 14.29478454589844 59.98937606811523 11.12097549438477 C 56.81556701660156 7.947166442871094 53.11998748779297 5.455467224121094 49.00530624389648 3.715103149414063 C 44.74581527709961 1.913482666015625 40.22053527832031 0.9999923706054688 35.55517578125 0.9999923706054688 M 35.55517578125 -7.62939453125e-06 C 55.19175720214844 -7.62939453125e-06 71.11034393310547 15.91859436035156 71.11034393310547 35.55517578125 C 71.11034393310547 55.19175720214844 55.19175720214844 71.11034393310547 35.55517578125 71.11034393310547 C 15.91859436035156 71.11034393310547 -7.62939453125e-06 55.19175720214844 -7.62939453125e-06 35.55517578125 C -7.62939453125e-06 15.91859436035156 15.91859436035156 -7.62939453125e-06 35.55517578125 -7.62939453125e-06 Z" stroke="none" fill="#111"/>
      </g>
    </g>
  </g>
</svg>
