<?xml version="1.0" standalone="no"?>
<!DOCTYPE svg PUBLIC "-//W3C//DTD SVG 20010904//EN"
 "http://www.w3.org/TR/2001/REC-SVG-20010904/DTD/svg10.dtd">
<svg version="1.0" xmlns="http://www.w3.org/2000/svg"
 width="706.000000pt" height="980.000000pt" viewBox="0 0 706.000000 980.000000"
 preserveAspectRatio="xMidYMid meet">

<g transform="translate(0.000000,980.000000) scale(0.100000,-0.100000)"
fill="#000000" stroke="none">
<path d="M2322 9773 c-11 -16 -108 -199 -217 -408 -316 -608 -364 -695 -413
-739 -12 -10 -132 -50 -279 -92 -329 -95 -912 -273 -935 -285 -25 -13 -23 -43
13 -227 23 -118 189 -903 224 -1058 6 -28 -21 -72 -370 -604 -161 -245 -303
-464 -316 -488 l-24 -43 50 -45 c28 -25 156 -127 285 -227 129 -101 336 -261
459 -357 124 -96 229 -178 233 -181 13 -9 24 -88 78 -569 58 -515 89 -763 96
-769 2 -2 104 1 225 8 122 7 223 11 225 8 2 -2 -307 -625 -688 -1385 -381
-759 -689 -1384 -686 -1388 8 -7 281 85 934 314 204 72 383 134 397 137 28 8
6 72 302 -855 127 -395 163 -500 174 -500 14 0 352 658 888 1727 302 601 550
1093 553 1093 3 0 325 -638 715 -1417 391 -779 715 -1417 720 -1417 10 -1 100
266 340 1007 86 266 120 357 131 357 24 0 324 -100 719 -240 439 -155 612
-213 626 -208 6 2 -296 617 -671 1367 -375 749 -679 1365 -677 1368 3 2 89 -1
191 -8 113 -7 190 -9 195 -3 5 5 26 133 46 284 124 944 135 1013 158 1039 12
13 173 136 357 274 366 274 597 452 647 500 l33 31 -27 45 c-28 49 -286 458
-527 835 -80 126 -146 233 -146 236 0 4 51 221 114 481 160 664 187 798 164
816 -15 12 -447 155 -919 303 l-325 102 -103 207 c-56 113 -191 378 -299 589
-190 372 -197 383 -221 377 -41 -10 -514 -200 -870 -349 -178 -75 -330 -136
-337 -136 -7 0 -240 98 -516 219 -548 238 -694 301 -702 301 -2 0 -13 -12 -24
-27z m1383 -1548 c491 -58 872 -237 1188 -559 229 -232 419 -566 498 -874 43
-170 67 -482 50 -667 -40 -442 -228 -833 -560 -1166 -290 -291 -607 -459
-1001 -531 -154 -28 -503 -31 -655 -4 -506 86 -911 326 -1211 717 -267 349
-394 726 -394 1167 0 547 178 980 560 1359 329 328 677 495 1156 557 146 19
215 19 369 1z"/>
</g>
</svg>
