<svg xmlns="http://www.w3.org/2000/svg" width="38.685" height="36.373" viewBox="0 0 38.685 36.373">
  <path id="icons8-home_1_" data-name="icons8-home (1)" d="M30.21,2.031a1.52,1.52,0,0,0-1.517,1.517V10.8L20.679,2.79a1.56,1.56,0,0,0-2.181,0L.714,20.621a1.509,1.509,0,0,0,2.134,2.134l16.74-16.74L36.375,22.8a1.58,1.58,0,0,0,1.091.474,1.474,1.474,0,0,0,1.043-.474,1.5,1.5,0,0,0,0-2.134L33.245,15.4V3.549a1.52,1.52,0,0,0-1.517-1.517ZM19.588,8.813,2.9,25.5v8.346A4.554,4.554,0,0,0,7.448,38.4h24.28a4.554,4.554,0,0,0,4.552-4.552V25.5ZM16.553,23.229h6.07a1.52,1.52,0,0,1,1.517,1.517v9.1a1.52,1.52,0,0,1-1.517,1.517h-6.07a1.52,1.52,0,0,1-1.517-1.517v-9.1A1.52,1.52,0,0,1,16.553,23.229Z" transform="translate(-0.27 -2.031)"/>
</svg>
