<svg id="key" xmlns="http://www.w3.org/2000/svg" width="96.791" height="95.917" viewBox="0 0 96.791 95.917">
  <g id="Group_4099" data-name="Group 4099" transform="translate(0 0)">
    <g id="Group_4098" data-name="Group 4098">
      <path id="Path_7390" data-name="Path 7390" d="M8.486,10.8A28.978,28.978,0,0,1,56.044,41.629l2.989,2.989,7.041,2.012a2.108,2.108,0,0,1,1.447,1.447l1.841,6.441L75.8,56.358a2.107,2.107,0,0,1,1.447,1.447l1.841,6.441,6.441,1.841a2.108,2.108,0,0,1,1.447,1.447l1.842,6.442,6.442,1.841A2.107,2.107,0,0,1,96.774,78.1l-2,16.013a2.108,2.108,0,0,1-1.746,1.818L79.4,98.2a2.107,2.107,0,0,1-1.835-.589L38.577,58.627A28.977,28.977,0,0,1,8.486,10.8Zm2.98,37.995a24.722,24.722,0,0,0,26.845,5.431,2.107,2.107,0,0,1,2.284.462l39.18,39.181L90.79,92.035l1.579-12.661-5.832-1.667A2.108,2.108,0,0,1,85.09,76.26l-1.842-6.442-6.441-1.841A2.108,2.108,0,0,1,75.36,66.53L73.519,60.09l-6.441-1.841A2.107,2.107,0,0,1,65.631,56.8L63.79,50.36l-6.44-1.84a2.11,2.11,0,0,1-.911-.536l-4.367-4.367a2.108,2.108,0,0,1-.438-2.34,24.762,24.762,0,1,0-40.167,7.515Z" transform="translate(0 -2.311)"/>
      <path id="Path_7391" data-name="Path 7391" d="M330.04,70.541a19.389,19.389,0,0,1,17.252-17.253,6.795,6.795,0,0,1,5.48,11.57L341.61,76.021a6.741,6.741,0,0,1-4.784,2.005,6.89,6.89,0,0,1-2.969-.681A6.686,6.686,0,0,1,330.04,70.541Zm5.634,3a2.543,2.543,0,0,0,2.956-.5l11.162-11.162a2.543,2.543,0,0,0,.5-2.956,2.487,2.487,0,0,0-2.246-1.459,2.983,2.983,0,0,0-.312.017,15.175,15.175,0,0,0-13.5,13.5A2.481,2.481,0,0,0,335.673,73.541Z" transform="translate(-320.371 -43.62)" fill="#3169b3"/>
      <path id="Path_7392" data-name="Path 7392" d="M71.925,290.719l24.113,24.114a2.107,2.107,0,0,1-2.98,2.98L68.945,293.7a2.107,2.107,0,0,1,2.98-2.98Z" transform="translate(-12.782 -235.697)" fill="#3169b3"/>
      <path id="Path_7393" data-name="Path 7393" d="M235.708,253.376l.211.211a2.107,2.107,0,1,1-2.98,2.98l-.211-.211a2.107,2.107,0,0,1,2.98-2.98Z" transform="translate(-183.625 -205.413)" fill="#3169b3"/>
    </g>
  </g>
</svg>
