<svg xmlns="http://www.w3.org/2000/svg" width="114.3" height="114.3" viewBox="0 0 114.3 114.3">
  <g id="translate_2_" data-name="translate (2)" transform="translate(-0.002)">
    <path id="Path_7443" data-name="Path 7443" d="M104.255,27.012h-49.1L46.935,2.292A3.349,3.349,0,0,0,43.757,0H10.048A10.057,10.057,0,0,0,0,10.046v67.2A10.057,10.057,0,0,0,10.048,87.287h36.9l8.15,24.654a3.362,3.362,0,0,0,3.2,2.359h45.958A10.057,10.057,0,0,0,114.3,104.253v-67.2a10.058,10.058,0,0,0-10.046-10.046ZM10.048,80.59A3.352,3.352,0,0,1,6.7,77.241v-67.2A3.352,3.352,0,0,1,10.048,6.7H41.342L65.9,80.59Zm55.3,6.7-6.563,14.475L54,87.287ZM107.6,104.253a3.352,3.352,0,0,1-3.349,3.349H63.493L73.6,85.321a3.371,3.371,0,0,0,.127-2.44L57.378,33.709h46.877a3.352,3.352,0,0,1,3.349,3.349Z" transform="translate(0)"/>
    <path id="Path_7444" data-name="Path 7444" d="M91.139,134.394H81.094a3.349,3.349,0,0,0,0,6.7h6.121a10.044,10.044,0,1,1-2.366-10.452,3.349,3.349,0,0,0,4.736-4.736,16.743,16.743,0,1,0,4.9,11.839A3.349,3.349,0,0,0,91.139,134.394Z" transform="translate(-47.382 -93.988)" fill="#3169b3"/>
    <path id="Path_7445" data-name="Path 7445" d="M331.14,217.7H321.094v-3.349a3.349,3.349,0,1,0-6.7,0V217.7H304.351a3.349,3.349,0,1,0,0,6.7H323.8a42.086,42.086,0,0,1-6.014,10.531c-.573-.774-1.139-1.566-1.685-2.368a3.349,3.349,0,1,0-5.538,3.766c.939,1.382,1.924,2.726,2.906,4-1.673,1.941-3.323,3.7-4.77,5.121a3.349,3.349,0,0,0,4.69,4.78c.115-.113,1.942-1.912,4.381-4.674,2.38,2.724,4.162,4.513,4.3,4.652a3.348,3.348,0,0,0,4.736-4.735c-.035-.035-2.085-2.1-4.7-5.148,4.74-6.127,7.63-11.465,8.631-15.926h.4a3.349,3.349,0,0,0,0-6.7Z" transform="translate(-233.804 -163.896)" fill="#3169b3"/>
  </g>
</svg>
