<svg xmlns="http://www.w3.org/2000/svg" width="105.375" height="102.3" viewBox="0 0 105.375 102.3">
  <g id="layers" transform="translate(0 -7.471)">
    <path id="Path_6749" data-name="Path 6749" d="M77.425,78.117a3.542,3.542,0,0,1-3.347,0L33.284,57.085a1.374,1.374,0,0,1,.007-2.426L73.308,33.251a3.541,3.541,0,0,1,3.311,0l24.047,7.887L80.413,30.426a25.324,25.324,0,0,0-23.676,0L25.244,47.084a9.824,9.824,0,0,0-.05,17.352l31.413,16.85a25.324,25.324,0,0,0,23.935,0L91.88,75.2Z" transform="translate(-15.887 -15.898)" fill="#cee1f2"/>
    <path id="Path_6750" data-name="Path 6750" d="M52.687,72.52a29.406,29.406,0,0,1-13.913-3.5L7.361,52.165a13.941,13.941,0,0,1,.071-24.618L38.925,10.89a29.411,29.411,0,0,1,27.525,0L97.942,27.548a13.941,13.941,0,0,1,.071,24.618L66.6,69.015a29.414,29.414,0,0,1-13.913,3.5Zm0-56.816a21.189,21.189,0,0,0-9.913,2.463L11.282,34.825a5.708,5.708,0,0,0-.029,10.086L42.666,61.76a21.154,21.154,0,0,0,20.043,0l31.414-16.85a5.708,5.708,0,0,0-.029-10.086L62.6,18.167A21.189,21.189,0,0,0,52.687,15.7ZM40.85,14.528h0ZM66.6,106.266l36.6-19.633a4.116,4.116,0,1,0-3.891-7.255l-36.6,19.633A21.162,21.162,0,0,1,42.65,99L6.046,79.576a4.116,4.116,0,1,0-3.859,7.272l36.587,19.419a29.368,29.368,0,0,0,27.826,0Z" transform="translate(0 0)" fill="#1e1f21"/>
    <path id="Path_6751" data-name="Path 6751" d="M52.687,295.367a29.409,29.409,0,0,1-13.913-3.5L2.187,272.444a4.116,4.116,0,0,1,3.859-7.272L42.65,284.6a21.162,21.162,0,0,0,20.059.008l36.6-19.633a4.116,4.116,0,1,1,3.891,7.255L66.6,291.862a29.409,29.409,0,0,1-13.913,3.5Z" transform="translate(0 -204.119)" fill="#3169b3"/>
  </g>
</svg>
