<svg id="incoming-message" xmlns="http://www.w3.org/2000/svg" width="21.271" height="21.271" viewBox="0 0 21.271 21.271">
  <path id="Path_6759" data-name="Path 6759" d="M36.411,28.641a4.4,4.4,0,1,1,0-8.474,4.405,4.405,0,0,0,0,8.474ZM22.493,35.455V28.434a4.155,4.155,0,0,1,4.155-4.155H24.155A4.155,4.155,0,0,0,20,28.434v7.021a4.155,4.155,0,0,0,4.155,4.155h2.493A4.155,4.155,0,0,1,22.493,35.455Z" transform="translate(-19.169 -19.169)" fill="#cee1f2"/>
  <path id="Path_6760" data-name="Path 6760" d="M16.286,21.271H4.986A4.991,4.991,0,0,1,0,16.286V9.265A4.991,4.991,0,0,1,4.986,4.279H8.309a.831.831,0,0,1,0,1.662H4.986A3.327,3.327,0,0,0,1.662,9.265v7.021A3.327,3.327,0,0,0,4.986,19.61h11.3a3.327,3.327,0,0,0,3.324-3.324V11.508a.831.831,0,0,1,1.662,0v4.778A4.991,4.991,0,0,1,16.286,21.271ZM21.271,5.235a5.235,5.235,0,1,0-5.235,5.235A5.241,5.241,0,0,0,21.271,5.235Zm-1.662,0a3.573,3.573,0,1,1-3.573-3.573A3.577,3.577,0,0,1,19.61,5.235Z" fill="#1e1f21"/>
  <path id="Path_6761" data-name="Path 6761" d="M87.311,87.336a4.979,4.979,0,0,1-3.023-1.018l-3.961-3.012a.831.831,0,0,1,1.006-1.323L85.294,85a3.332,3.332,0,0,0,4.032,0l1.385-1.059a.831.831,0,1,1,1.01,1.32l-1.386,1.06A4.981,4.981,0,0,1,87.311,87.336Zm6.232-8.929V75.831A.831.831,0,0,0,92.712,75h-.831a.831.831,0,0,0,0,1.662v1.745a.831.831,0,1,0,1.662,0Z" transform="translate(-76.675 -71.884)" fill="#3169b3"/>
</svg>
