<svg xmlns="http://www.w3.org/2000/svg" width="38.814" height="35.825" viewBox="0 0 38.814 35.825">
  <g id="shopping-basket_1_" data-name="shopping-basket (1)" transform="translate(0 -19.719)">
    <g id="Group_3628" data-name="Group 3628" transform="translate(0 19.718)">
      <path id="Path_6327" data-name="Path 6327" d="M35.867,31.986H34.486L28.3,20.323a1.137,1.137,0,1,0-2.01,1.065l5.619,10.6H7.068l5.619-10.6a1.137,1.137,0,1,0-2.01-1.065L4.494,31.986H2.948a2.948,2.948,0,0,0,0,5.9h.082c0,.016,0,.033.007.049l2.372,13.3a5.229,5.229,0,0,0,5.153,4.315H28.418a5.229,5.229,0,0,0,5.153-4.315l2.372-13.3c0-.017.005-.034.008-.051a2.947,2.947,0,0,0-.083-5.893ZM14.546,51.675a1.136,1.136,0,0,1-1.31-.933l-1.677-9.958a1.137,1.137,0,1,1,2.243-.378l1.677,9.958A1.137,1.137,0,0,1,14.546,51.675Zm5.95-1.121a1.137,1.137,0,1,1-2.274,0V40.6a1.137,1.137,0,0,1,2.274,0Zm6.584-9.769L25.4,50.743a1.137,1.137,0,1,1-2.243-.378l1.677-9.958a1.137,1.137,0,1,1,2.243.378Z" transform="translate(0 -19.718)"/>
    </g>
  </g>
</svg>
