<svg xmlns="http://www.w3.org/2000/svg" width="21.693" height="21.695" viewBox="0 0 21.693 21.695">
  <g id="Group_3964" data-name="Group 3964" transform="translate(-11454 -1242)">
    <path id="Path_6740" data-name="Path 6740" d="M133.661,3.341a1.572,1.572,0,0,0-1.035-.374c-.62,0-1.088-.361-1.088-.839a.836.836,0,0,1,.836-.834,3.352,3.352,0,0,1,1.3.273.247.247,0,1,0,.179-.46,4.48,4.48,0,0,0-.979-.271V.247a.247.247,0,0,0-.494,0V.8h0a1.33,1.33,0,0,0-1.33,1.327,1.236,1.236,0,0,0,.459.956,1.741,1.741,0,0,0,1.123.377.919.919,0,0,1,.987.828.859.859,0,0,1-.861.834,4.408,4.408,0,0,1-1.419-.31.247.247,0,0,0-.183.459,5.291,5.291,0,0,0,1.227.317v.487a.247.247,0,0,0,.494,0V5.611a1.362,1.362,0,0,0,.829-.38,1.3,1.3,0,0,0,.406-.942A1.247,1.247,0,0,0,133.661,3.341Z" transform="translate(11332.297 1244.729)" fill="#3169b3"/>
    <g id="savings" transform="translate(11454 1242)">
      <path id="Path_6726" data-name="Path 6726" d="M135.038,24.873a4.875,4.875,0,0,1,3.369-4.636,4.873,4.873,0,1,0,0,9.272A4.875,4.875,0,0,1,135.038,24.873Z" transform="translate(-126.435 -19.153)" fill="#cee1f2"/>
      <g id="Group_3936" data-name="Group 3936" transform="translate(0)">
        <path id="Path_6727" data-name="Path 6727" d="M126.749,11.441a5.72,5.72,0,1,0-5.72-5.72A5.727,5.727,0,0,0,126.749,11.441Zm0-9.746a4.026,4.026,0,1,1-4.026,4.026A4.03,4.03,0,0,1,126.749,1.695Z" transform="translate(-115.902)" fill="#1e1f21"/>
        <path id="Path_6728" data-name="Path 6728" d="M21.456,253.673a2.365,2.365,0,0,0-2.981-1.079c-.817.31-1.815.689-2.9.988a2.522,2.522,0,0,0-.15-1.479,2.485,2.485,0,0,0-1.648-1.446,3.073,3.073,0,0,0-1.245-.072,8.806,8.806,0,0,1-6.158-1.453A6.417,6.417,0,0,0,3.244,248a8.039,8.039,0,0,0-2.626.462.847.847,0,1,0,.506,1.618,6.788,6.788,0,0,1,2.12-.385,5.131,5.131,0,0,1,2.29.911,10.871,10.871,0,0,0,5.724,1.763,11.12,11.12,0,0,0,1.5-.1,1.416,1.416,0,0,1,.561.025.786.786,0,0,1,.536.46.773.773,0,0,1,.014.625,1.1,1.1,0,0,1-.658.544,5.646,5.646,0,0,1-1.831.268,9.2,9.2,0,0,1-2.327-.269.847.847,0,1,0-.431,1.639,11.073,11.073,0,0,0,2.715.324,21.842,21.842,0,0,0,7.738-1.7.677.677,0,0,1,.87.264.646.646,0,0,1-.254.861,16.377,16.377,0,0,1-8.222,2.188A17.621,17.621,0,0,1,3.34,255.2a3.835,3.835,0,0,0-2.687-.519v0a.847.847,0,0,0,.421,1.64,2.4,2.4,0,0,1,1.457.367,19.308,19.308,0,0,0,8.938,2.5A18.184,18.184,0,0,0,20.49,256.8,2.333,2.333,0,0,0,21.456,253.673Z" transform="translate(-0.024 -237.491)" fill="#1e1f21"/>
        <path id="Path_6729" data-name="Path 6729" d="M266.967,434Z" transform="translate(-255.653 -415.61)" fill="#1e1f21"/>
      </g>
    </g>
  </g>
</svg>
