<svg xmlns="http://www.w3.org/2000/svg" width="18.398" height="23.909" viewBox="0 0 18.398 23.909">
  <g id="user_33_" data-name="user (33)" transform="translate(-59)">
    <g id="Group_3937" data-name="Group 3937" transform="translate(62.233 0.934)" opacity="0.8">
      <path id="Path_6731" data-name="Path 6731" d="M131.554,25.37a5.372,5.372,0,0,1,3.712-5.109,5.37,5.37,0,1,0,0,10.218A5.372,5.372,0,0,1,131.554,25.37Z" transform="translate(-128.239 -20)" fill="#c2d9ef"/>
    </g>
    <g id="Group_3938" data-name="Group 3938" transform="translate(59 14.476)">
      <path id="Path_6732" data-name="Path 6732" d="M76.465,319.433a.934.934,0,0,1-.934-.934,6.638,6.638,0,0,0-6.631-6.631H67.5a6.638,6.638,0,0,0-6.631,6.631.934.934,0,1,1-1.868,0,8.508,8.508,0,0,1,8.5-8.5h1.4a8.508,8.508,0,0,1,8.5,8.5A.934.934,0,0,1,76.465,319.433Z" transform="translate(-59 -310)" fill="#3169b3"/>
    </g>
    <g id="Group_3939" data-name="Group 3939" transform="translate(61.802)">
      <path id="Path_6733" data-name="Path 6733" d="M125.3,12.608a6.3,6.3,0,1,1,6.3-6.3A6.311,6.311,0,0,1,125.3,12.608Zm0-10.74A4.436,4.436,0,1,0,129.74,6.3,4.441,4.441,0,0,0,125.3,1.868Z" transform="translate(-119)" fill="#37383b"/>
    </g>
  </g>
</svg>
