<svg xmlns="http://www.w3.org/2000/svg" width="38.942" height="38.946" viewBox="0 0 38.942 38.946">
  <g id="customer_1_" data-name="customer (1)" transform="translate(-0.024)">
    <g id="Group_3638" data-name="Group 3638" transform="translate(15.998)">
      <g id="Group_3637" data-name="Group 3637">
        <path id="Path_6345" data-name="Path 6345" d="M214.669,0a4.7,4.7,0,0,0-4.64,4.64,4.7,4.7,0,0,0,4.64,4.64,4.641,4.641,0,0,0,0-9.28Z" transform="translate(-210.029)"/>
      </g>
    </g>
    <g id="Group_3640" data-name="Group 3640" transform="translate(13.716 9.28)">
      <g id="Group_3639" data-name="Group 3639">
        <path id="Path_6346" data-name="Path 6346" d="M192.016,122a6.8,6.8,0,0,1-5.065,2.282A6.971,6.971,0,0,1,181.809,122a6.794,6.794,0,0,0-1.781,4.564V127.7a1.14,1.14,0,0,0,1.141,1.141h11.486A1.14,1.14,0,0,0,193.8,127.7v-1.141A6.793,6.793,0,0,0,192.016,122Z" transform="translate(-180.029 -122)"/>
      </g>
    </g>
    <g id="Group_3642" data-name="Group 3642" transform="translate(0.024 22.099)">
      <g id="Group_3641" data-name="Group 3641" transform="translate(0)">
        <path id="Path_6347" data-name="Path 6347" d="M11.048,303.453,5.233,291.8a2.282,2.282,0,0,0-3.055-1.026l-1.52.753a1.142,1.142,0,0,0-.514,1.533l6.846,13.692a1.142,1.142,0,0,0,1.528.513l1.5-.743A2.282,2.282,0,0,0,11.048,303.453Z" transform="translate(-0.024 -290.532)"/>
      </g>
    </g>
    <g id="Group_3644" data-name="Group 3644" transform="translate(6.794 17.988)">
      <g id="Group_3643" data-name="Group 3643">
        <path id="Path_6348" data-name="Path 6348" d="M120.257,237.332a2.275,2.275,0,0,0-3.012.3l-6.237,7.667a2.758,2.758,0,0,1-1.689.73H104a1.141,1.141,0,0,1,0-2.282h4.564a2.282,2.282,0,1,0,0-4.564h-5.979c-.569,0-.852-.361-1.3-.753a7.939,7.939,0,0,0-7.083-1.734,8.324,8.324,0,0,0-3.5,1.749l-.034-.027-1.65,1.452,6.486,13h13.064a6.874,6.874,0,0,0,5.477-2.738l6.694-9.584A2.3,2.3,0,0,0,120.257,237.332Z" transform="translate(-89.016 -236.479)"/>
      </g>
    </g>
  </g>
</svg>
