<svg xmlns="http://www.w3.org/2000/svg" width="20.646" height="21.487" viewBox="0 0 20.646 21.487">
  <g id="Group_3963" data-name="Group 3963" transform="translate(-15 -423)">
    <path id="Path_6712" data-name="Path 6712" d="M36.28,58.773l-1.472-.208a1.45,1.45,0,0,0-1.632,1.186l-.257,1.465a1.451,1.451,0,0,1-.749,1.031l-1.313.7a1.452,1.452,0,0,0-.623,1.919l.653,1.336a1.452,1.452,0,0,1,0,1.275l-.653,1.336a1.452,1.452,0,0,0,.623,1.919l1.313.7a1.451,1.451,0,0,1,.749,1.031l.257,1.465a1.45,1.45,0,0,0,1.632,1.186L36.28,74.9a1.45,1.45,0,0,1,.274-.012l.078-.814a1,1,0,0,1-1.126-.819l-.526-2.54a1,1,0,0,0-.517-.712l-.906-.481a1,1,0,0,1-.43-1.325l.451-.922a1,1,0,0,0,0-.88l-.451-.922a1,1,0,0,1,.43-1.325l.906-.481a1,1,0,0,0,.517-.712l.506-2.559a1,1,0,0,1,1.126-.819l.1-.811A1.444,1.444,0,0,1,36.28,58.773Z" transform="translate(-14.246 366.906)" fill="#cee1f2"/>
    <path id="Path_6713" data-name="Path 6713" d="M20.348,21.489a2.282,2.282,0,0,1-1.592-.648l-1.068-1.034a.607.607,0,0,0-.51-.166l-1.472.208a2.343,2.343,0,0,1-.328.023,2.279,2.279,0,0,1-2.248-1.9l-.257-1.465a.608.608,0,0,0-.316-.435l-1.313-.7a2.282,2.282,0,0,1-.984-3.029l.653-1.336a.609.609,0,0,0,0-.538l-.653-1.336a2.282,2.282,0,0,1,.984-3.029l1.313-.7a.608.608,0,0,0,.316-.435l.257-1.465a2.28,2.28,0,0,1,2.576-1.872l1.472.208a.607.607,0,0,0,.51-.166L18.756.649a2.279,2.279,0,0,1,3.184,0l1.068,1.034a.606.606,0,0,0,.51.166l1.472-.208a2.28,2.28,0,0,1,2.576,1.872l.257,1.465a.608.608,0,0,0,.316.435l1.313.7a2.282,2.282,0,0,1,.984,3.029l-.653,1.336a.609.609,0,0,0,0,.538l.653,1.336a2.282,2.282,0,0,1-.984,3.029l-1.313.7a.608.608,0,0,0-.316.435l-.257,1.465a2.28,2.28,0,0,1-2.576,1.872l-1.472-.208a.607.607,0,0,0-.51.166L21.94,20.841A2.282,2.282,0,0,1,20.348,21.489Zm-3.08-3.533a2.272,2.272,0,0,1,1.587.645l1.068,1.034a.608.608,0,0,0,.85,0L21.842,18.6a2.274,2.274,0,0,1,1.913-.622l1.472.208a.609.609,0,0,0,.688-.5l.257-1.465a2.276,2.276,0,0,1,1.182-1.627l1.313-.7a.61.61,0,0,0,.263-.81l-.653-1.336a2.277,2.277,0,0,1,0-2.011L28.928,8.4a.61.61,0,0,0-.263-.81l-1.313-.7a2.276,2.276,0,0,1-1.182-1.627L25.914,3.8a.609.609,0,0,0-.688-.5l-1.472.208a2.275,2.275,0,0,1-1.913-.622L20.773,1.855a.608.608,0,0,0-.85,0L18.855,2.889a2.274,2.274,0,0,1-1.913.622L15.47,3.3a.609.609,0,0,0-.688.5l-.257,1.465A2.276,2.276,0,0,1,13.344,6.9l-1.313.7a.61.61,0,0,0-.263.81l.653,1.336a2.277,2.277,0,0,1,0,2.011l-.653,1.336a.61.61,0,0,0,.263.81l1.313.7a2.276,2.276,0,0,1,1.182,1.627l.257,1.465a.609.609,0,0,0,.688.5l1.472-.208A2.327,2.327,0,0,1,17.268,17.956Z" transform="translate(4.975 422.999)" fill="#1e1f21"/>
    <text id="_" data-name="?" transform="translate(21 439)" fill="#3169b3" font-size="15" font-family="Poppins-Medium, Poppins" font-weight="500"><tspan x="0" y="0">?</tspan></text>
  </g>
</svg>
