<svg xmlns="http://www.w3.org/2000/svg" width="186.015" height="185.999" viewBox="0 0 186.015 185.999">
  <g id="tag" transform="translate(-0.001 -0.021)">
    <path id="Path_7377" data-name="Path 7377" d="M181.626,38.993,168.1,25.475,184.353,9.338a5.449,5.449,0,1,0-7.68-7.734L160.393,17.77,147.1,4.481c-4.826-4.824-12.359-5.765-18.754-2.346L103.675,15.024c-6.391,3.376-1.034-1.081-99.813,97.653-5.035,5.033-5.087,12.817-.5,17.4l52.609,52.585a11.449,11.449,0,0,0,8.246,3.354,12.989,12.989,0,0,0,9.16-3.851l91.586-91.544c4.992-4.989,5.452-6.962,19.007-32.882,3.421-6.394,2.48-13.926-2.348-18.751Zm-7.269,13.623c-.316.576.705-1.349-12.921,24.706-2.379,4.41,4.121-2.7-95.761,97.139-1.1,1.1-2.145.5-2,.5-56.441-56.414-52.813-52.543-52.781-53.2.058-1.138-5.647,4.937,92.254-92.92,3.484-3.482,3.831-3.249,30.261-17.059,2.525-1.311,4.74-.832,5.979.407l13.266,13.26-7.972,7.916a20,20,0,1,0,7.7,7.709l7.975-7.919L173.921,46.7A4.979,4.979,0,0,1,174.357,52.616Zm-30.333-1.795a9.118,9.118,0,1,1-15.57-6.443A9.135,9.135,0,0,1,144.024,50.821Z" transform="translate(0 0)"/>
    <path id="Path_7378" data-name="Path 7378" d="M157.788,168.349,99.874,226.237a5.45,5.45,0,1,0,7.705,7.709l57.915-57.888a5.45,5.45,0,1,0-7.705-7.709Z" transform="translate(-62.572 -106.159)" fill="#3169b3"/>
    <path id="Path_7379" data-name="Path 7379" d="M193.9,281.726l-37.31,37.293a5.45,5.45,0,0,0,7.705,7.709l37.31-37.292a5.45,5.45,0,0,0-7.705-7.709Z" transform="translate(-98.683 -178.346)" fill="#3169b3"/>
  </g>
</svg>
