<svg xmlns="http://www.w3.org/2000/svg" width="21.639" height="20.456" viewBox="0 0 21.639 20.456">
  <g id="vector" transform="translate(0 -14)">
    <path id="Path_6734" data-name="Path 6734" d="M23.578,45.159V38.225A4.219,4.219,0,0,1,27.792,34H25.226A4.226,4.226,0,0,0,21,38.226v6.931a4.226,4.226,0,0,0,4.226,4.226h2.566a4.219,4.219,0,0,1-4.214-4.225Z" transform="translate(-20.112 -19.155)" fill="#cee1f2"/>
    <path id="Path_6735" data-name="Path 6735" d="M16.567,31.074H5.071A5.076,5.076,0,0,1,0,26V19.072A5.077,5.077,0,0,1,5.072,14h11.5a5.077,5.077,0,0,1,5.072,5.072V26A5.077,5.077,0,0,1,16.567,31.074ZM5.072,15.691a3.385,3.385,0,0,0-3.381,3.381V26a3.384,3.384,0,0,0,3.38,3.38h11.5A3.385,3.385,0,0,0,19.948,26V19.072a3.385,3.385,0,0,0-3.381-3.381Zm10.65,17.92a.845.845,0,0,0-.845-.845H6.762a.845.845,0,1,0,0,1.691h8.115A.845.845,0,0,0,15.722,33.61Z" transform="translate(0 0)" fill="#1e1f21"/>
    <path id="Path_6736" data-name="Path 6736" d="M154.664,113.46v-5.368a1.057,1.057,0,1,0-1.247-1.247h-5.325a1.057,1.057,0,1,0-1.247,1.247v5.368a1.057,1.057,0,1,0,1.247,1.247h5.325a1.057,1.057,0,1,0,1.247-1.247Zm-1.691-.444h-4.438v-4.48h4.438Z" transform="translate(-139.83 -88.112)" fill="#3169b3"/>
  </g>
</svg>
