<svg xmlns="http://www.w3.org/2000/svg" width="39.321" height="34.603" viewBox="0 0 39.321 34.603">
  <g id="web-browser" transform="translate(-1 -1)">
    <g id="Group_3968" data-name="Group 3968" transform="translate(1 1)">
      <path id="Path_6780" data-name="Path 6780" d="M37.962,1H3.359A2.359,2.359,0,0,0,1,3.359V33.244A2.359,2.359,0,0,0,3.359,35.6h34.6a2.359,2.359,0,0,0,2.359-2.359V3.359A2.359,2.359,0,0,0,37.962,1Zm.786,2.359V5.719H34.766V2.573h3.2A.786.786,0,0,1,38.749,3.359ZM29.26,5.719V2.573h3.932V5.719Zm-5.505,0V2.573h3.932V5.719ZM3.359,2.573H22.183V5.719H2.573V3.359A.786.786,0,0,1,3.359,2.573Zm34.6,31.457H3.359a.786.786,0,0,1-.786-.786V7.291H38.749V33.244A.786.786,0,0,1,37.962,34.03Z" transform="translate(-1 -1)"/>
      <path id="Path_6781" data-name="Path 6781" d="M22.8,11a11.8,11.8,0,1,0,11.8,11.8A11.8,11.8,0,0,0,22.8,11Zm9.06,16.515H28.58a21.113,21.113,0,0,0,.488-3.932H32.98A10.139,10.139,0,0,1,31.857,27.515ZM12.613,23.583h3.913a21.114,21.114,0,0,0,.488,3.932H13.736a10.139,10.139,0,0,1-1.123-3.932Zm1.123-5.505h3.277a21.113,21.113,0,0,0-.488,3.932H12.613A10.139,10.139,0,0,1,13.736,18.078Zm9.847-1.573V12.738c1.1.44,2.157,1.774,2.9,3.767Zm3.382,1.573a19.2,19.2,0,0,1,.528,3.932H23.583V18.078Zm-4.955-5.34v3.767h-2.9C19.853,14.512,20.914,13.178,22.01,12.738Zm0,5.34V22.01H18.1a19.2,19.2,0,0,1,.528-3.932ZM18.1,23.583H22.01v3.932H18.628A19.2,19.2,0,0,1,18.1,23.583Zm3.913,5.505v3.767c-1.1-.44-2.157-1.774-2.9-3.767Zm1.573,3.767V29.088h2.9C25.74,31.081,24.679,32.415,23.583,32.855Zm0-5.34V23.583H27.5a19.2,19.2,0,0,1-.528,3.932Zm5.485-5.505a21.114,21.114,0,0,0-.488-3.932h3.277A10.139,10.139,0,0,1,32.98,22.01Zm1.77-5.505h-2.7a11.827,11.827,0,0,0-1.578-3.2A10.254,10.254,0,0,1,30.838,16.505ZM19.032,13.3a11.827,11.827,0,0,0-1.578,3.2h-2.7a10.254,10.254,0,0,1,4.277-3.2ZM14.755,29.088h2.7a11.827,11.827,0,0,0,1.578,3.2A10.254,10.254,0,0,1,14.755,29.088Zm11.806,3.2a11.827,11.827,0,0,0,1.578-3.2h2.7a10.254,10.254,0,0,1-4.277,3.2Z" transform="translate(-3.136 -3.136)" fill="#3169b3"/>
    </g>
  </g>
</svg>
