<svg id="infected" xmlns="http://www.w3.org/2000/svg" width="21.851" height="21.851" viewBox="0 0 21.851 21.851">
  <path id="Path_6718" data-name="Path 6718" d="M72.269,24.908a4.91,4.91,0,0,1,3.393-4.669,4.908,4.908,0,1,0,0,9.338A4.91,4.91,0,0,1,72.269,24.908Z" transform="translate(-66.284 -19.146)" fill="#cee1f2"/>
  <path id="Path_6719" data-name="Path 6719" d="M71.523,5.761a5.761,5.761,0,1,0-5.761,5.761A5.768,5.768,0,0,0,71.523,5.761ZM65.761,9.816a4.054,4.054,0,1,1,4.054-4.054A4.059,4.059,0,0,1,65.761,9.816Zm12.675,5.761h-.6a4.032,4.032,0,0,0-.558-1.345l.442-.442a.854.854,0,0,0-1.207-1.207l-.442.442a4.031,4.031,0,0,0-1.345-.558v-.6a.854.854,0,0,0-1.707,0v.6a4.032,4.032,0,0,0-1.345.558l-.442-.442a.854.854,0,0,0-1.207,1.207l.442.442a4.031,4.031,0,0,0-.558,1.345h-.6a.854.854,0,0,0,0,1.707h.6a4.032,4.032,0,0,0,.558,1.345l-.442.442a.854.854,0,1,0,1.207,1.207l.442-.442a4.031,4.031,0,0,0,1.345.558V21a.854.854,0,0,0,1.707,0v-.6a4.032,4.032,0,0,0,1.345-.558l.442.442a.854.854,0,0,0,1.207-1.207l-.442-.442a4.032,4.032,0,0,0,.558-1.345h.6a.854.854,0,1,0,0-1.707Zm-4.567,3.2a2.347,2.347,0,1,1,2.347-2.347A2.35,2.35,0,0,1,73.87,18.778Z" transform="translate(-57.439)" fill="#1e1f21"/>
  <path id="Path_6720" data-name="Path 6720" d="M.854,318.621A.853.853,0,0,1,0,317.767,7.776,7.776,0,0,1,7.767,310h1.28a.854.854,0,0,1,0,1.707H7.767a6.067,6.067,0,0,0-6.06,6.06A.853.853,0,0,1,.854,318.621Zm14.51-5.42a1.067,1.067,0,1,0,1.067-1.067A1.067,1.067,0,0,0,15.364,313.2Z" transform="translate(0 -296.77)" fill="#3169b3"/>
</svg>
